<?xml version="1.0" encoding="utf-8"?>
<!-- Generator: Adobe Illustrator 24.0.0, SVG Export Plug-In . SVG Version: 6.00 Build 0)  -->
<svg version="1.1" id="Layer_1" xmlns="http://www.w3.org/2000/svg" xmlns:xlink="http://www.w3.org/1999/xlink" x="0px" y="0px"
	 viewBox="0 0 291 170.7" style="enable-background:new 0 0 291 170.7;" xml:space="preserve">
<style type="text/css">
	.st0{fill:#005BBB;}
</style>
<g>
	<g>
		<path d="M105.6,160c0.2-0.2,0.5-0.5,0.7-0.7c0.3-0.3,0.6-0.6,1.2-0.7c0.3,0,0.6-0.3,0.8-0.7c0.2-0.4,0.8-0.8,1.4-0.9
			c1-0.3,1.8-0.9,2.7-1.4c0.9-0.5,1.8-0.8,2.7-1.3c0.7-0.4,1.5-0.4,2.2-0.7s1.4-0.5,2.1-0.7c0.2-0.1,0.4-0.1,0.6,0
			c0.7,0.2,1.4-0.3,2.1-0.3c0.2,0,0.4-0.2,0.6-0.2c0.9,0,1.8,0.1,2.6-0.1c0.9-0.2,1.7-0.1,2.6-0.1c0.9,0,1.8,0,2.6,0
			c0.6,0,1.1,0.2,1.6,0.3s1.1-0.2,1.6,0.2c0.1,0.1,0.4,0,0.6,0c0.9,0,1.8,0.2,2.7,0.5s1.7,0.4,2.6,0.7c2.1,0.8,4.1,1.6,6,2.8
			c1.1,0.7,2.2,1.3,3.2,2c1.1,0.7,2.1,1.4,3.2,2.1c1.6,1.1,3.3,2,5.1,2.9c1,0.5,2,0.8,3,1.1c0.8,0.3,1.6,0.5,2.4,0.6
			c1.2,0.2,2.3,0.3,3.5,0.5s2.4,0.1,3.6,0.2c1.2,0,2.5,0,3.7,0c0.5,0,0.8-0.4,1.3-0.3c0.4,0.1,0.9,0,1.3-0.2
			c0.4-0.2,0.9,0.1,1.3-0.3c1,0.2,1.8-0.4,2.7-0.6c1.9-0.6,3.6-1.5,5.4-2.3c0.5-0.2,0.9-0.5,1.4-0.7c1-0.5,1-0.6,1.8-1.2
			c0.6-0.5,1.3-1,1.9-1.4c0.5-0.3,1.1-0.6,1.7-0.9c0.7-0.3,1.4-0.7,2-1.3c1.3-1.1,2.8-1.8,4.3-2.3c0.9-0.3,1.8-0.6,2.7-0.9
			c0.9-0.3,1.8-0.6,2.6-0.9c0.1,0,0.3-0.1,0.4-0.1c0.7,0,1.3,0,1.9-0.3c0.6-0.3,1.3-0.1,1.9-0.3c1.3-0.4,2.7-0.1,4-0.2
			c0.7,0,1.2,0.1,1.6,0.9c0.3,0.7,0.1,1.2-0.2,1.8c-0.1,0.2-0.3,0.3-0.4,0.4c-1.7,0.1-3.4,0.2-5.1,0.4c-1.2,0.1-2.5,0.3-3.7,0.6
			s-2.3,0.6-3.4,1c-1.4,0.6-2.9,1.2-4.2,2.1c-0.8,0.5-1.6,1-2.4,1.4c-1.6,0.8-2.9,1.9-4.4,2.9c-1.8,1.1-3.6,2.3-5.6,3.1
			c-1.8,0.8-3.7,1.4-5.6,1.8c-0.5,0.1-1,0.1-1.5,0.2c-0.5,0.2-0.9,0.1-1.3,0.2c-1,0.3-2,0-2.9,0.3c-1.4,0.3-2.8,0.1-4.2,0.2
			c-1.2,0.1-2.3-0.4-3.5-0.2c-0.5-0.3-1.2-0.1-1.7-0.3s-1.1-0.1-1.6-0.2c-0.9-0.3-1.7-0.4-2.6-0.7c-1.7-0.6-3.5-1.2-5.1-2.1
			c-1.8-1-3.6-2-5.3-3.1s-3.3-2.2-5-3.2c-2.8-1.6-3.7-2-6.7-3c-0.8-0.3-1.7-0.5-2.6-0.6c-0.5,0-1-0.2-1.6-0.2s-1.1-0.3-1.7-0.2
			c-0.6,0-1.1,0-1.7,0c-0.3,0-0.7-0.2-1-0.2c-0.4,0-0.7,0-1.1,0c-0.6,0.1-1.3,0.2-1.9,0.2s-1.3-0.1-1.9,0c-1.2,0.3-2.5,0.3-3.7,0.7
			c-1.1,0.3-2.3,0.6-3.4,1c-1.6,0.6-3.1,1.4-4.6,2.3c-2.3,1.4-4.5,2.9-6.7,4.3c-1.7,1-3.3,2.1-5.2,2.8c-1.6,0.6-3.2,1.2-4.8,1.6
			c-1.2,0.3-2.5,0.5-3.7,0.7c-1,0.2-2,0-2.9,0.2c-1.3,0.3-2.7,0.1-4,0.2c-1.3,0.1-2.6-0.3-4-0.3c-0.9,0-1.8-0.3-2.7-0.4
			c-0.9-0.2-1.7-0.5-2.6-0.7s-1.7-0.5-2.6-0.8c-2-0.8-3.8-1.8-5.7-2.9c-1.9-1.1-3.7-2.5-5.7-3.6c-1.5-0.9-3-1.9-4.6-2.6
			c-1.5-0.7-3.1-1.3-4.7-1.7c-1.3-0.3-2.5-0.7-3.8-0.7c-0.7-0.4-1.5-0.2-2.3-0.2c-0.8-0.1-1.7-0.1-2.5-0.3c-0.7-0.1-1.3,0.3-1.9,0.3
			c-0.7,0-1.4-0.1-2,0c-1.8,0.2-3.6,0.5-5.3,1c-2,0.6-4,1.4-5.8,2.4c-1.5,0.8-2.9,1.8-4.4,2.7c-1.8,1.2-3.5,2.4-5.4,3.4
			c-0.7,0.3-1.3,0.8-1.9,1.1c-0.7,0.3-1.4,0.6-2,0.9c-0.7,0.2-1.4,0.4-2,0.7c-0.7,0.3-1.4,0.6-2.1,0.6c-1.1,0.1-2.2,0.5-3.4,0.6
			c-0.9,0.1-1.9,0-2.8,0.2s-1.7,0.1-2.5,0.2c-0.8,0.1-1.4-0.2-1.9-0.9c0-0.6,0-1.1,0-1.7c0.5-0.6,1.1-0.9,1.9-0.9
			c0.6,0.1,1.2,0,1.8,0c1.2,0,2.4-0.3,3.6-0.4c1.4-0.2,2.7-0.8,4.1-0.5c0.1,0,0.3,0,0.4-0.1c0.9-0.5,1.8-1,2.6-1.4
			c0.1-0.1,0.3-0.1,0.4-0.2c1.1-0.6,2.3-1.3,3.4-1.9c0.6-0.3,1-0.8,1.7-1.1c0.3-0.1,0.5-0.3,0.8-0.4c0.4-0.1,0.8-0.5,1.2-0.9
			c0.4-0.4,0.8-0.6,1.3-0.8c0.8-0.3,1.7-0.7,2.3-1.4c0.6-0.7,1.5-0.9,2.2-1.4c0.6,0.1,1-0.3,1.5-0.5c0.6-0.3,1.3-0.4,1.9-0.7
			c1.1-0.6,2.4-0.7,3.6-1.2c0.5-0.2,1,0.1,1.4-0.3c1,0,1.9-0.4,2.9-0.3c0.5,0.1,1,0.1,1.5-0.2c0.4-0.3,1-0.3,1.5-0.2
			c1.3,0,2.6,0,4,0c0.6,0,1.2,0.1,1.8,0.2c0.6,0.1,1.1-0.1,1.7,0.2c0.5,0.2,1.1,0.1,1.7,0.3c1.3,0.3,2.8,0.6,4.6,1.3
			c1.3,0.5,2.6,0.9,3.8,1.6c1.1,0.6,2.2,1.3,3.3,1.9c1.9,1.1,3.7,2.5,5.7,3.6c1.3,0.8,2.6,1.5,4,2.2c1,0.5,2.1,0.7,3.1,1.3
			c0.3,0.2,0.8,0,1.2,0.2c0.5,0.2,1.2,0.1,1.6,0.4c0.5,0.3,1.1-0.1,1.5,0.4h0.1c1.2,0.1,2.3,0.1,3.5,0.2c0.5,0,1.1-0.1,1.6,0.2
			c0.2,0.1,0.6-0.2,1-0.2c0.8,0,1.7,0,2.5,0c0.7,0,1.5-0.1,2.2-0.2c0.7-0.1,1.3-0.4,2-0.5c0.9-0.1,1.8-0.6,2.8-0.6
			c0.2,0,0.5-0.1,0.7-0.2c0.7-0.5,1.5-0.8,2.3-1c0.2-0.1,0.4-0.1,0.5-0.2c0.8-0.2,1.6-0.4,2.2-1.1c0.4-0.4,0.8-0.8,1.3-1
			c0.6-0.3,1.2-0.7,1.8-1.1C104.8,160,105.2,160,105.6,160z"/>
		<path d="M213.8,139.1c0,0.2,0,0.4,0,0.7c0,0.8-0.6,1.4-1.4,1.5c-0.5,0-1,0-1.4,0c-1.3-0.1-2.7,0.1-4,0.3c-1.5,0.2-3,0.5-4.5,1
			c-0.8,0.3-1.6,0.5-2.4,0.8c-0.8,0.3-1.6,0.7-2.3,1.1c-1.7,0.9-3.4,1.9-5,3c-1.7,1.2-3.5,2.3-5.3,3.3c-0.7,0.4-1.5,0.8-2.3,1.2
			c-0.7,0.4-1.5,0.6-2.3,0.9c-0.8,0.3-1.5,0.8-2.3,0.7c-1,0.6-2.1,0.6-3.2,0.9c-0.8,0.3-1.8,0.1-2.6,0.3c-1.3,0.3-2.6,0.2-3.9,0.2
			c-1.3,0-2.6,0-3.8,0c-0.6,0-1.1-0.1-1.7-0.2c-0.5-0.1-1,0-1.6-0.2c-0.5-0.2-1.1-0.2-1.7-0.3c-0.7-0.1-1.3-0.3-2-0.5
			c-0.6-0.2-1.4-0.2-1.9-0.5c-1.3-0.7-2.8-1-4.1-1.8c-1.7-0.9-3.3-1.9-4.9-3c-1.7-1.1-3.3-2.1-5-3.2c-1.1-0.7-2.3-1.3-3.4-1.8
			c-1.4-0.7-3-1.2-4.5-1.5c-1-0.2-2-0.3-3-0.7c-0.1,0-0.2,0-0.2,0c-0.9,0.2-1.8-0.3-2.8-0.2c-0.9,0-1.8,0.1-2.8,0
			c-1.6-0.1-3.1,0.1-4.7,0.3c-1.3,0.1-2.6,0.5-3.8,0.8c-2.4,0.6-4.5,1.6-6.6,2.7c-1,0.5-2,1.2-3,1.8c-0.9,0.5-1.7,1.1-2.6,1.6
			c-0.8,0.6-1.7,1.1-2.6,1.6c-1.1,0.6-2.1,1.3-3.2,1.9c-1.7,0.8-3.4,1.5-5.2,1.9c-1.2,0.3-2.3,0.6-3.5,0.7c-0.5,0-0.9,0.3-1.3,0.2
			s-0.8-0.1-1.2,0.2c-0.2,0.1-0.5,0-0.7,0c-2.2,0-4.4,0-6.6,0c-0.5,0-1-0.1-1.5-0.2c-0.5-0.1-1,0.1-1.5-0.2
			c-0.5-0.2-1.1-0.1-1.7-0.3c-0.7-0.2-1.4-0.3-2.1-0.5c-2.2-0.5-4.2-1.4-6.2-2.4c-1.3-0.7-2.5-1.4-3.8-2.2c-1-0.6-2-1.4-3-2
			s-1.9-1.3-2.9-1.8c-0.8-0.5-1.6-0.9-2.5-1.3c-0.8-0.4-1.6-0.9-2.5-1c-1.4-0.9-3-0.8-4.4-1.4c-0.6,0.1-1.2-0.1-1.8-0.2
			c-1-0.1-2.1-0.2-3.1-0.2c-1.1,0-2.2,0-3.2,0c-0.7,0-1.4-0.1-2.2,0.2c-0.7,0.3-1.5-0.2-2.2,0.3c-1.8,0.1-3.5,0.7-5.1,1.2
			c-1.4,0.4-2.7,1.1-3.9,1.8c-2,1-3.8,2.2-5.6,3.5c-1.5,1-3.1,2-4.7,2.9c-1.2,0.7-2.4,1.2-3.6,1.7c-1.4,0.5-2.8,1-4.2,1.4
			c-0.9,0.2-1.8,0.4-2.7,0.5c-0.7,0.1-1.4,0.1-2.1,0.2C5.1,155,4.3,155,3.5,155s-1.7,0-2.6,0c-0.2-0.3-0.5-0.6-0.8-1
			c0-0.1,0-0.4,0-0.7c0.4-0.4,0.7-0.7,1.2-1.2c0.3,0,0.7,0,1.1,0c0.4,0.1,0.8-0.1,1.2-0.3c0.2-0.1,0.3-0.2,0.5-0.2
			c1.2,0.2,2.3-0.2,3.5-0.3c0.7-0.1,1.5-0.1,2.2-0.4c0.3-0.1,0.7-0.1,1.1-0.2c1-0.1,1.9-0.7,2.8-1.1c0.5-0.3,1-0.5,1.6-0.4
			c0.6-0.6,1.2-1.1,2-1.3c0.2,0,0.3-0.1,0.5-0.3c1.9-1.5,4.1-2.7,6.1-4.1c0.4-0.3,0.9-0.4,1.3-0.8c0.1-0.1,0.3-0.2,0.5-0.2
			c0.9,0,1.5-0.6,2.2-1.1s1.5-0.8,2.3-1.1c0.9-0.3,2-0.4,2.8-1.1c0.5-0.4,1.2-0.5,1.8-0.5c1.4-0.2,2.8-0.7,4.2-0.5
			c0.6,0,1.1-0.2,1.7-0.2c0.5-0.1,1,0,1.6-0.2c0.5-0.2,1.1-0.1,1.7,0c0.5,0,1.1-0.2,1.6,0.2c0.1,0.1,0.5,0,0.7,0
			c1,0,1.9,0.1,2.9,0.2c0.9,0.1,1.8,0.4,2.7,0.5c1.5,0.2,2.9,0.8,4.3,1.2c1.7,0.6,3.3,1.4,4.9,2.3c1.6,0.9,3.1,1.9,4.6,3
			c1,0.7,2.2,1.4,3.3,2c2.2,1.3,4.5,2.6,7,3.3c0.4,0.1,0.8,0.3,1.1,0.4c0.6,0.1,1.1,0.3,1.7,0.3c0.7,0.1,1.5,0,2.2,0.4
			c0.1,0,0.2,0,0.2,0c2-0.1,4,0.4,6,0.2c0.2,0,0.4-0.2,0.6-0.2c0.5,0,0.9,0,1.4,0c0.5,0.1,0.8,0.1,1.3-0.1c0.8-0.2,1.6-0.4,2.4-0.6
			c1.1-0.2,2.3-0.2,3.3-0.7c0.4-0.2,1-0.3,1.3-0.6c0.7-0.7,1.6-0.7,2.5-0.9c0.2,0,0.5,0,0.6-0.2c1-1.3,2.6-1.8,3.8-2.8
			c1.1-0.2,1.7-1.2,2.7-1.7c0.1-0.1,0.2-0.3,0.4-0.3c1.2-0.2,1.9-1.2,2.9-1.7c0.9-0.5,1.8-0.9,2.8-1.4c0.3-0.1,0.6-0.3,0.9-0.4
			c0.3-0.1,0.6-0.4,1.1-0.3c0.1,0,0.3-0.1,0.4-0.2c0.9-0.4,1.8-0.9,2.9-0.8c0.5,0,0.9-0.5,1.5-0.5c0.1,0,0.4-0.2,0.6-0.2
			c0.7,0.1,1.4,0,2.1-0.3c0.6-0.2,1.2-0.2,1.8-0.2c1.5,0.1,2.9-0.4,4.3-0.3c0.4,0,0.7,0.1,1.1,0.2c0.3,0.2,0.8,0,1.1,0.1
			c0.3,0.2,0.3-0.1,0.5-0.1c0.6,0.1,1.1-0.1,1.7,0.2c0.6,0.2,1.3,0.1,1.9,0.3c1.7,0.3,3.4,0.8,5.1,1.4c1.8,0.6,3.4,1.4,5,2.3
			c1.1,0.6,2.1,1.4,3.3,2c0.5,0.8,1.5,0.9,2.2,1.5c1.8,1.3,3.8,2.4,5.7,3.5c1.6,0.9,3.4,1.2,5.1,1.9c1.2,0,2.2,0.4,3.4,0.5
			c0.9,0.1,1.9,0,2.8,0.2c0.8,0.2,1.6,0.2,2.4,0.2c0.1,0,0.3,0,0.4,0c0.7,0.6,1.4,0,2.1-0.1c0.2,0,0.4-0.2,0.5-0.2
			c1.1,0.1,2.1-0.3,3.1-0.3c0.3,0,0.7-0.2,1-0.2c0.5,0,0.8-0.3,1.3-0.3c0.4,0,0.9-0.1,1.2-0.2c0.4-0.2,0.9-0.1,1.3-0.2
			c0.9-0.3,1.7-0.7,2.5-1.2c0.4-0.3,0.9-0.6,1.4-0.8c1-0.5,1.9-1.1,2.9-1.7c0.5-0.3,1-0.6,1.6-0.8c0.4-0.1,0.8-0.3,1.1-0.6
			c0.6-0.9,1.7-1.3,2.4-1.9c0.1-0.1,0.3-0.3,0.5-0.2c0.8,0.1,1.2-0.4,1.6-0.9c0.5-0.5,1.1-0.6,1.7-0.8c0.3-0.1,0.6-0.1,0.8-0.3
			c0.5-0.4,0.9-0.4,1.5-0.5c0.3,0,0.7-0.1,0.9-0.3c0.6-0.5,1.4-0.7,2.1-1.1c0.5-0.3,1.1-0.4,1.6-0.4c1.3,0,2.5-0.3,3.7-0.7
			c0.1,0,0.3,0,0.5,0c1.1-0.1,2.2,0,3.3-0.2C212,137.7,213.1,137.9,213.8,139.1z"/>
		<path d="M185.7,92.3c0.8-1.1,2.1-1.6,3.2-2.4c0.3-0.2,0.6-0.7,1.1-0.5c0.1,0,0.4-0.1,0.5-0.3c0.5-1,1.6-1.2,2.3-1.8
			c0.7,0.1,1.1-0.7,1.7-0.8c0.6-0.1,1-0.7,1.5-1c1.1-0.7,2.2-1.2,3.4-1.6c1-0.3,2-0.5,2.9-0.7c0.3-0.1,0.7-0.1,1-0.3
			c0.5-0.3,1-0.4,1.5-0.5s1-0.1,1.5-0.2c1-0.3,2.1-0.1,3.1-0.3c0.7-0.1,1.4-0.1,2.1-0.2c0.7-0.1,1.2,0.3,1.7,0.5
			c0.4,0.2,0.8,0.6,0.6,1.2c0,0.2,0,0.4,0,0.6c-0.2,0.2-0.4,0.4-0.6,0.6c-0.3,0.4-0.8,0.5-1.2,0.5c-0.6,0-1.3,0-1.9,0
			c-1.1,0.1-2.3,0-3.4,0.3c-2.2,0.5-4.4,0.8-6.4,1.9c-1.1,0.1-1.9,0.8-2.8,1.2c-0.9,0.4-1.7,1.1-2.6,1.5c-1.9,1-3.6,2.4-5.5,3.5
			c-0.7,0.4-1.3,0.9-2,1.1c-0.4,0.1-0.8,0.5-1.2,0.7c-1.8,1.1-3.8,1.8-5.9,2.4c-1.3,0.4-2.6,0.8-4,0.8c-0.9,0.5-2,0.2-2.9,0.4
			c-1,0.2-2.1,0.1-3.2,0.1c-1,0-2.1,0-3.1,0c-0.5,0-1.1-0.2-1.6-0.2c-0.5-0.1-1,0-1.5-0.2c-0.4-0.2-1-0.2-1.6-0.2
			c-1.4-0.2-2.7-0.6-4-1c-2.2-0.7-4.3-1.8-6.3-2.9c-1.7-1-3.3-2-4.9-3.2c-2.2-1.6-4.7-2.9-7.2-4c-1.5-0.6-3.1-1.2-4.7-1.4
			c-1-0.1-2-0.3-3-0.5c-1.3-0.3-2.5-0.1-3.8-0.2c-0.7,0-1.4,0.1-2.2,0c-1.3-0.1-2.5,0.1-3.7,0.3c-1.6,0.3-3.1,0.6-4.7,1.1
			c-1.5,0.5-2.9,1.2-4.3,1.8c-2.2,1-4.1,2.4-6.1,3.7c-2.5,1.7-5,3.2-7.8,4.4c-1.6,0.7-3.3,1.3-5,1.6c-0.9,0.2-1.8,0.3-2.7,0.5
			c-0.7,0.1-1.3,0-1.9,0.2c-1.2,0.3-2.3,0.2-3.5,0.2s-2.3,0-3.5,0c-0.6,0-1.1-0.1-1.7-0.2c-0.5-0.1-1,0-1.6-0.2
			c-0.5-0.2-1.1-0.2-1.7-0.3c-1.4-0.2-2.8-0.7-4.1-1.1c-1.3-0.3-2.4-0.9-3.6-1.5c-1.6-0.8-3.2-1.7-4.7-2.7c-1.9-1.3-3.8-2.5-5.8-3.7
			c-2.3-1.4-4.7-2.4-7.2-3.2c-0.9-0.3-1.8-0.4-2.6-0.6c-3.1-0.7-6.3-0.5-9.4-0.4c-1.4,0-2.8,0.1-4.1,0.7c-1.7,0-3.1,0.7-4.6,1.3
			c-0.9,0.3-1.9,0.7-2.7,1.3c-0.7,0.5-1.5,0.8-2.2,1.2c-1.3,0.8-2.6,1.7-3.9,2.5c-2.5,1.6-5.1,3.2-7.8,4.4c-1.6,0.7-3.2,1.3-5,1.6
			c-0.8,0.1-1.6,0.3-2.4,0.5s-1.6,0-2.3,0.2C4.8,99.1,4,99,3.3,99.1c-0.8,0-1.6,0-2.4,0c-0.3-0.3-0.5-0.6-0.8-0.9c0-0.4,0-0.9,0-1.4
			c0.2-0.1,0.5-0.2,0.7-0.4C1.3,96,1.9,96,2.4,95.9c1.1-0.3,2.1,0,3.1-0.2C6.7,95.5,8,95.5,9.2,95c0.8,0.2,1.6-0.3,2.3-0.5
			s1.5-0.4,2.3-0.6c1.1-0.4,2.1-0.9,3.1-1.6c1.4-1,2.9-1.6,4.2-2.7c0.8,0,1.2-0.7,1.7-1.1c0.7-0.6,1.5-0.7,2.3-1.1
			c1-0.5,1.8-1.1,2.7-1.7c0.9-0.7,2-1.2,3.1-1.4c0.4-0.1,0.7-0.2,1-0.4c0.9-0.5,1.9-0.8,3-0.8c0.3,0,0.7-0.2,1-0.2
			c1-0.2,2.1-0.2,3-0.5s1.8,0,2.7-0.2c1.2-0.3,2.3-0.2,3.5-0.2s2.5,0.4,3.7,0.2c0.9,0.4,1.8,0.2,2.7,0.5c0.9,0.2,1.7,0.5,2.6,0.7
			c2.5,0.7,3.5,1.1,5.6,2.2c2.7,1.5,5.4,3.1,7.9,4.9c0.8,0.6,1.7,0.9,2.3,1.6c1.1,0.1,1.8,1,2.8,1.3s1.9,0.9,2.9,1.1
			c0.3,0.5,0.9,0.1,1.4,0.4c0.3,0.2,0.9,0.2,1.3,0.3c1,0.2,1.9,0.5,2.9,0.4c0.7,0.5,1.5,0.2,2.2,0.4c0.7,0.3,1.6,0.1,2.4,0.1
			s1.6,0,2.4,0c0.4,0,0.8-0.2,1.2-0.2c0.4,0,0.8,0.1,1.1-0.2h0.1c1,0,1.9,0,2.8-0.5c1.3,0,2.5-0.7,3.8-1c0.1,0,0.3-0.1,0.4-0.2
			c1.1-0.5,2.2-1,3.3-1.5c0.8-0.3,1.5-0.7,2.1-1.3c0.4-0.4,1.1-0.6,1.7-0.9c0.4-0.2,0.8-0.5,1.1-0.8c1-0.8,2.1-1.7,3.2-2.3
			c0.8-0.4,1.5-1.1,2.3-1.4c0.3-0.1,0.7-0.3,1-0.4c0.4-0.2,0.9-0.3,1.3-0.7c0.6-0.6,1.7-0.7,2.9-1c0.9-0.2,1.9-0.5,2.8-0.7
			c0.2-0.1,0.4-0.2,0.6-0.2c0.7,0,1.3-0.1,1.9-0.4c0.1,0,0.2-0.1,0.3-0.1c0.6,0.1,1.2-0.3,1.8-0.3c0.6,0,1.3,0,1.9,0
			c0.7,0,1.4,0,2,0c0.4,0,0.8,0.1,1.2-0.2c0.2-0.1,0.6-0.1,0.8,0c0.6,0.4,1.2,0.2,1.8,0.2s1.1,0.1,1.7,0.2c0.5,0.1,1,0.1,1.6,0.2
			c1.5,0.3,3.1,0.7,4.6,1.2c1.6,0.5,3.1,1.3,4.7,2.1c2,1,3.8,2.2,5.6,3.5c2.5,1.7,5,3.2,7.8,4.4c0.7,0.3,1.5,0.8,2.3,0.9
			s1.5,0.6,2.3,0.6c0.6,0,1.2,0.3,1.7,0.5c0.2,0.1,0.5,0.2,0.7,0.1c0.4-0.1,0.7-0.2,1.1,0c0.3,0.2,0.8-0.1,1.2,0
			c1.4,0.4,2.9,0.2,4.3,0.2c0.5,0,1,0,1.6-0.2c0.4-0.1,1.1-0.3,1.6,0.2c0.5-0.3,1.1-0.1,1.6-0.4c1-0.5,2.3-0.5,3.3-1
			c0.1,0,0.2,0,0.4,0c1.1,0.1,2-0.5,3-1C183.7,93,184.6,92.3,185.7,92.3z"/>
		<path d="M213.1,127.1c-0.7,0-1.2,0-1.7,0c-0.6,0-1.1,0.2-1.7,0.2c-0.6,0-1.2-0.1-1.8,0c-0.5,0.1-1,0.2-1.5,0.2s-1,0.2-1.4,0.3
			c-1.6,0.4-3.2,0.8-4.8,1.5c-0.9,0.4-1.8,0.7-2.6,1.2c-1.7,0.9-3.4,1.9-5,3s-3.3,2.1-4.9,3.2c-1.5,0.9-3,1.6-4.6,2.2
			c-1.5,0.6-3,1.2-4.6,1.3c-0.5,0.4-1.2,0.1-1.7,0.4c-0.5,0.3-1.2-0.2-1.7,0.3h-0.2c-2.1-0.1-4.2,0.4-6.3,0.2
			c-0.6-0.1-1.1-0.2-1.7-0.2c-0.6,0-1.2,0.2-1.7-0.1c-0.7-0.4-1.4,0-2.1-0.4c-0.6-0.3-1.4-0.1-2-0.3c-1.1-0.4-2.2-0.5-3.2-1
			c-1.2-0.6-2.5-0.9-3.7-1.6c-1.1-0.6-2.1-1.2-3.2-1.8c-2.3-1.3-4.4-2.9-6.6-4.3c-1.4-0.8-2.8-1.6-4.3-2.2c-1.3-0.6-2.8-1-4.2-1.3
			c-1-0.2-2-0.4-3-0.5c-0.9-0.2-1.9,0-2.8-0.2c-0.9-0.2-1.7-0.2-2.5-0.2c-1.2,0-2.5,0.3-3.7,0.3c-0.5,0-1,0.2-1.6,0.2
			c-0.5,0-1,0.2-1.4,0.3c-1.2,0.3-2.4,0.6-3.5,1c-1.8,0.6-3.5,1.4-5.1,2.4c-1.8,1-3.4,2.2-5.1,3.3c-1.3,0.8-2.5,1.6-3.8,2.4
			c-0.6,0.4-1.3,0.7-2,1c-1.7,0.8-3.3,1.6-5.2,1.9c-0.6,0.5-1.5,0.4-2.2,0.7s-1.5,0.1-2.3,0.3c-1,0.3-2,0-2.9,0.3
			c-1.3,0.3-2.7,0.2-4,0.2c-1.2,0-2.3-0.2-3.5-0.2c-0.5,0-1-0.2-1.6-0.2c-0.5,0-1-0.2-1.4-0.3c-0.8-0.2-1.6-0.2-2.4-0.5
			c-0.7-0.3-1.5-0.5-2.2-0.8c-1.4-0.5-2.7-1.1-4-1.8c-1.9-1-3.7-2.1-5.5-3.3c-1.4-0.9-2.8-1.8-4.3-2.7c-0.9-0.6-1.9-1.1-2.9-1.5
			c-1.4-0.7-2.9-1.2-4.5-1.6c-1.3-0.3-2.5-0.6-3.8-0.8c-0.9-0.1-1.7-0.1-2.5-0.2c-0.5,0-0.9-0.2-1.3-0.2c-0.5,0-1,0-1.4,0
			c-1.2,0-2.5,0.3-3.7,0.3c-0.5,0-1,0.2-1.6,0.2c-0.5,0-1,0.2-1.4,0.3c-0.6,0.1-1.3,0.1-1.9,0.4c-0.5,0.2-1.1,0.4-1.7,0.6
			c-1.8,0.6-3.5,1.5-5.1,2.4c-1.5,0.8-2.9,1.8-4.3,2.7c-1.7,1.1-3.5,2.2-5.3,3.2s-3.7,1.8-5.7,2.4c-0.9,0.3-1.8,0.6-2.7,0.7
			c-0.9,0.2-1.9,0.3-2.8,0.5s-1.8,0.1-2.7,0.2c-0.9,0.1-1.8,0.3-2.7,0.2c-0.5,0-0.9,0-1.3-0.5c-0.4-0.6-0.3-1.2,0-1.7
			s0.8-0.9,1.5-0.9c1.3,0.1,2.6-0.4,4-0.3c0.2,0,0.3-0.1,0.5-0.2c1-0.3,2-0.6,3-0.6c0.5,0,0.9,0,1.3-0.2c1.1-0.5,2.4-0.7,3.4-1.3
			s2.1-1.2,3.1-1.8c0.5-0.3,1.2-0.4,1.6-0.8c1-1.1,2.5-1.6,3.6-2.5c0.7-0.5,1.5-0.9,2.3-1.3H25c1.1-1.3,2.6-1.7,4.1-2.2
			c0.3-0.1,0.6-0.2,0.9-0.4c0.9-0.8,2-1.1,3.2-1.2c0.3,0,0.6-0.2,0.9-0.3c0.6-0.3,1.2-0.5,1.9-0.4c0.6,0.1,1.2-0.3,1.8-0.4
			c0.1,0,0.1-0.1,0.2-0.1c1.3,0.2,2.7-0.4,4-0.2c0.6,0.1,1.2,0.4,1.7,0.2c0.9-0.3,1.9-0.2,2.8-0.2c0.6,0,1.1,0.1,1.7,0.2
			c0.5,0.1,1-0.1,1.6,0.2c0.4,0.2,1,0.2,1.6,0.2c0.9,0.1,1.7,0.4,2.5,0.6c2.3,0.5,4.4,1.5,6.5,2.6c1.5,0.8,2.9,1.7,4.3,2.6
			c0.8,1.2,2.2,1.5,3.3,2.3c1.2,0.8,2.5,1.6,3.9,2.2c1.5,0.7,3,1.3,4.6,1.7c0.7,0.2,1.4,0.5,2.1,0.7c0.1,0,0.2,0,0.2,0
			c0.9,0.1,1.9,0,2.8,0.3c1.3,0.3,2.7,0.2,4,0.2c1.4,0,2.7,0.1,4.1,0c1.2-0.1,2.4-0.3,3.6-0.6c1-0.3,2.1-0.6,3.1-1l0.1-0.1
			c1.7,0.1,3-1,4.3-1.7c1.1-0.6,2.2-1.3,3.3-1.9c0.6-0.3,1.3-0.5,1.7-1c0.9-1,2-1.6,3-2.2c1.1-0.7,2.1-1.5,3.4-1.8
			c0.3-0.1,0.5-0.3,0.8-0.5c0.7-0.5,2.2-1,3.1-1.2s1.8-0.5,2.7-0.8c0.3-0.1,0.5-0.3,0.8-0.4c0.6-0.1,1.3-0.3,1.9-0.2
			c1.8,0.1,3.5-0.4,5.3-0.3c1.3-0.5,2.7-0.2,4.1-0.2c0.5,0,1,0.1,1.5,0.2s1-0.2,1.5,0.2c0.1,0.1,0.4,0,0.6,0c0.2,0,0.5-0.1,0.7,0
			c0.8,0.3,1.6,0.3,2.4,0.6c1.4,0.5,2.8,0.8,4.1,1.4s2.6,1.3,3.9,2c1.4,0.8,2.7,1.7,4,2.5c1.3,0.9,2.6,1.7,3.9,2.5
			c2.1,1.2,4.2,2.3,6.5,3c0.4,0.1,0.8,0.3,1.2,0.4c0.8,0.3,1.7,0.4,2.5,0.6c0.5,0.1,1,0.2,1.5,0.2c0.5,0.1,1-0.1,1.5,0.2
			c0.2,0.1,0.5,0,0.7,0c1.9,0,3.8,0,5.6,0c0.8,0,1.5-0.3,2.3-0.3c0.7,0,1.4-0.1,2.1-0.4c0.1,0,0.2,0,0.4,0c0.8-0.1,1.7-0.1,2.5-0.3
			c0.4-0.1,0.7-0.4,1.1-0.6c0.8-0.6,2.5-1.3,3.6-1.6c0.1,0,0.2-0.1,0.3-0.1c0.9-0.5,2-0.9,2.8-1.7c0.7-0.7,1.5-1.2,2.3-1.7
			c0.3-0.2,0.6-0.4,0.9-0.6c2.1-1.1,4.1-2.3,6.1-3.5c0.8-0.5,1.8-0.9,2.8-1.1c0.9-0.2,1.7-0.7,2.6-0.9c0.7-0.2,1.4-0.5,2.1-0.4
			c0.4,0,0.7,0,1.1-0.2c0.5-0.3,1.1-0.3,1.7-0.3c1.1,0.2,2.2-0.3,3.3-0.2c0.8,0.1,1.5,0.1,2.3,0.2c0.7,0.1,1.2,1.1,0.8,1.9
			C213.6,126.5,213.3,126.8,213.1,127.1z"/>
		<path d="M0.8,127.1c-0.6-0.8-0.6-0.8-0.6-2.2c0.3-0.2,0.6-0.5,1-0.9c0.3,0,0.9,0,1.4,0c0.6,0,1.2-0.2,1.8-0.2
			c0.6-0.1,1.2,0.1,1.7-0.1c0.1-0.1,0.4,0.1,0.6,0.1s0.3-0.2,0.5-0.2c1.3,0.1,2.6-0.5,3.9-0.5c0.1,0,0.2,0,0.2,0
			c1.2-0.8,2.7-1,3.9-1.8c1-0.7,2.1-1.2,3.2-1.8c0.7-0.4,1.3-1.1,2-1.5c0.4-0.2,0.7-0.5,1.1-0.6c0.2-0.1,0.5-0.2,0.7-0.4
			c0.8-0.9,1.9-1.3,2.8-2c0.4-0.3,0.8-0.7,1.3-0.5c0.7-0.6,1.7-0.8,2.5-1.3c0.6-0.4,1.1-1,1.9-0.9c0.8-0.7,1.8-0.7,2.7-1
			c0.3-0.1,0.6-0.2,1-0.3c0.6-0.1,1.1-0.1,1.7-0.3c0.5-0.1,1.1-0.3,1.6-0.4c1.6-0.3,3.2,0,4.7-0.3c1-0.1,2-0.3,2.9-0.1
			c0.8,0.1,1.6,0.1,2.4,0.2c1.3,0.2,2.5,0.2,3.8,0.5c1.4,0.3,2.9,0.8,4.3,1.3c1.8,0.6,3.4,1.4,5,2.3c1.9,1.1,3.8,2.3,5.6,3.6
			c1.8,1.1,3.5,2.3,5.4,3.2c1.9,0.9,3.9,1.7,6,2.1c0.9,0.2,1.8,0.3,2.7,0.5c0.6,0.1,1.2,0.2,1.8,0.2c0.8,0,1.6,0,2.4,0.4
			c0.1,0.1,0.4,0.1,0.6,0.1c0.4-0.1,0.8-0.2,1.2-0.2c0.4-0.1,0.8,0.2,1.1-0.2c0.1-0.1,0.2-0.1,0.3,0c1.4,0.2,2.8-0.3,4.2-0.2
			c0.3,0,0.5-0.1,0.8-0.2c0.5-0.1,1-0.3,1.6-0.3c0.5,0,1.1-0.2,1.6-0.4c0.9-0.3,1.7-0.8,2.6-1c0.7-0.2,1.3-0.8,1.9-1.1
			c0.3-0.2,0.5-0.4,0.8-0.5c0.9-0.1,1.4-0.7,2-1.2c0.3-0.2,0.6-0.5,0.9-0.5c0.8-0.1,1.3-0.6,1.9-1c0.5-0.3,0.9-0.7,1.4-1.1
			c0.2-0.1,0.4-0.3,0.6-0.3c1-0.1,1.7-0.7,2.3-1.4c0.3-0.3,0.6-0.5,0.9-0.7c1.2-0.5,2.3-1.3,3.5-1.6c0.6-0.2,1.3-0.1,1.9-0.6
			c0.5-0.4,1.2-0.5,1.8-0.6c0.4-0.1,0.8-0.1,1.1-0.2c0.3-0.1,0.6-0.2,1-0.2c1.5-0.3,3.1-0.3,4.6-0.5c1.2-0.1,2.4-0.2,3.6-0.2
			s2.4,0.2,3.6,0.3c0.5,0,1.2,0.1,1.7,0.2s1.1,0.1,1.6,0.2c1.2,0.3,2.4,0.7,3.6,1.1c1.9,0.5,3.7,1.4,5.4,2.3
			c1.1,0.6,2.1,1.3,3.2,1.9c1.8,1.1,3.4,2.3,5.2,3.3c1,0.6,2,1.3,3,1.7c1.9,0.8,3.7,1.6,5.7,2.1c0.5,0.1,1,0.1,1.5,0.2
			c0.5,0.2,0.9,0.1,1.3,0.2c1.1,0.3,2.2,0.1,3.3,0.3c0.9,0.2,1.9,0.2,2.8,0.2c0.5,0,1,0.1,1.4-0.1c0.5-0.2,0.9-0.1,1.4-0.1
			s0.9,0,1.4-0.2c0.4-0.2,0.9-0.1,1.3,0c0.6,0.1,1.1-0.1,1.6-0.3c1.6-0.7,3.3-1.1,4.9-1.7c1.6-0.6,3.1-1.4,4.4-2.3
			c0.6-0.4,1.2-0.9,1.9-1.2c0.8-0.3,1.3-1,2.1-1.4c0.4-0.2,0.8-0.5,1.2-0.7c0.8-0.4,1.7-0.8,2.4-1.6c0.4-0.4,0.9-0.6,1.5-0.8
			c0.6-0.2,0.8-0.9,1.4-0.9c1.6-0.2,2.9-1.1,4.4-1.6c0.6-0.2,1.2-0.4,1.9-0.4c0.8,0,1.6-0.2,2.3-0.4c0.3-0.1,0.6-0.1,0.9-0.1
			c1.5,0.2,3-0.3,4.5-0.3c0.8,0,1.5,0.3,2.2,0.8c0,0.3,0,0.6,0,0.9c0,0.7-0.8,1.5-1.5,1.5c-0.8,0-1.6,0-2.4,0c-1-0.1-2,0.4-3,0.3
			c-0.9,0.4-1.9,0.3-2.8,0.7c-0.9,0.3-1.8,0.5-2.7,0.8c-1.4,0.5-2.7,1.2-4.1,1.8c-1.5,0.7-2.9,1.8-4.3,2.6c-1.5,0.9-2.9,2-4.5,2.8
			c-0.9,0.5-1.8,1.1-2.7,1.6c-1.6,0.8-3.3,1.4-5,1.9c-0.7,0.2-1.4,0.4-2.2,0.5c-0.7,0.1-1.5,0.3-2.2,0.5s-1.3,0.1-1.9,0.2
			c-2.5,0.5-5,0.1-7.5,0.2c-0.6,0-1-0.2-1.6-0.3c-0.5,0-1,0.1-1.5-0.2c-0.4-0.2-1-0.2-1.6-0.2c-1.4-0.2-2.8-0.6-4.1-1
			c-1.4-0.4-2.9-1.1-4.2-1.8c-1.7-0.9-3.4-1.9-5-3s-3.2-2.1-4.9-3.1c-1.1-0.7-2.3-1.3-3.5-1.8s-2.4-1.1-3.7-1.2
			c-0.7-0.5-1.6-0.4-2.4-0.7c-0.8-0.3-1.8-0.1-2.6-0.3c-2.2-0.5-4.5-0.1-6.7-0.2c-0.6,0-1,0.2-1.6,0.3c-0.5,0-1-0.1-1.5,0.2
			c-0.5,0.2-1.1,0-1.7,0.3c-0.2,0.1-0.5-0.1-0.7,0c-1.1,0.6-2.3,0.7-3.4,1.1c-1.2,0.5-2.3,1-3.4,1.6c-1.7,0.9-3.4,1.9-5,3
			c-1.7,1.2-3.5,2.3-5.3,3.4c-1.2,0.7-2.4,1.2-3.6,1.7c-1.1,0.5-2.3,0.8-3.5,1.2c-0.9,0.3-1.8,0.4-2.7,0.7c-0.8,0.2-1.8,0.1-2.6,0.3
			c-2.5,0.5-5,0.1-7.5,0.2c-0.6,0-1.1-0.1-1.7-0.2c-0.5-0.1-1.1,0.3-1.6-0.2c-1.1,0.2-2-0.4-3-0.5c-0.8-0.1-1.5-0.5-2.2-0.7
			c-1.4-0.4-2.7-1-4-1.6c-1.9-1-3.7-2-5.4-3.2c-1.6-1.1-3.3-2.1-4.9-3.1c-1.1-0.7-2.3-1.3-3.4-1.8c-1.4-0.7-3-1.2-4.5-1.5
			c-1-0.2-2-0.2-3-0.7c-0.1,0-0.2,0-0.2,0c-1.7-0.1-3.4-0.4-5.1-0.2c-0.7,0-1.4,0-2,0c-1.1,0.1-2.2,0-3.3,0.3
			c-1.2,0.2-2.4,0.4-3.5,0.7c-0.8,0.2-1.6,0.5-2.4,0.8c-1.2,0.5-2.4,1.1-3.6,1.7c-1.7,0.9-3.4,2-5,3c-1.9,1.2-3.8,2.5-5.7,3.6
			c-1,0.6-2.1,1-3.1,1.4c-1.1,0.5-2.4,0.9-3.6,1.2c-0.5,0.1-1,0.2-1.4,0.4c-0.4,0.2-0.9,0-1.3,0.3c-0.5,0.2-1.1,0.2-1.7,0.3
			c-1,0.2-2,0.2-3,0.3c-1,0-2.1,0-3.1,0C0.9,127.1,0.8,127.1,0.8,127.1z"/>
		<path d="M1.3,109.9c0.7,0,1.4,0,2.1,0c1.1-0.1,2.2,0,3.3-0.3c1.2-0.2,2.4-0.4,3.5-0.7c0.8-0.2,1.6-0.5,2.4-0.8
			c0.4-0.1,0.7-0.2,1.1-0.3c0.3-0.2,0.6-0.4,1-0.5c0.5-0.2,1-0.3,1.5-0.5c0.1,0,0.3-0.1,0.4-0.2c0.7-0.9,1.9-1.3,2.8-2
			c0.8-0.6,1.7-1,2.5-1.6c0.3-0.2,0.7-0.5,1.1-0.6c0.1,0,0.3-0.1,0.4-0.2c0.9-0.9,2.2-1.2,3.3-1.8c0.7-0.4,1.5-0.9,2.2-1.3
			s1.5-0.6,2.1-1c1-0.6,2.1-0.8,3.2-1.2c0.1-0.1,0.3,0,0.5,0c0.5-0.1,0.9,0.2,1.4-0.1c0.4-0.3,1,0.2,1.3-0.3
			c0.8-0.1,1.5-0.2,2.3-0.2c0.5-0.1,1.1-0.2,1.6-0.2c0.5-0.1,1,0,1.4,0.3c0.3,0.2,0.5,0.1,0.8,0c1.3-0.5,2.3-0.4,4-0.1
			c0.8,0.2,1.6,0.2,2.4,0.2c0.8,0,1.6,0.2,2.4,0.5c0.7,0.2,1.5,0.3,2.2,0.5c1.6,0.6,3.2,0.9,4.6,1.9c0.3,0.2,0.6,0.4,0.9,0.5
			c1.8,0.6,3.3,1.8,4.8,2.8c1.8,1.2,3.6,2.4,5.5,3.5c0.6,0.3,1.2,0.7,1.9,1c1.5,0.6,2.9,1.3,4.4,1.7c0.9,0.2,1.8,0.4,2.8,0.6
			c0.9,0.2,1.8,0,2.5,0.3c0.9,0.3,1.8-0.1,2.6,0.4c0.1,0.1,0.3,0,0.4,0c1.2-0.5,2.4-0.2,3.6-0.2c0.5,0,1-0.2,1.5-0.3
			c0.4-0.1,0.9,0.1,1.4-0.2c0.5-0.3,1.1-0.1,1.7-0.2c0.4-0.1,0.9-0.3,1.3-0.3s0.8-0.3,1.3-0.4c0.7-0.2,1.5-0.3,2.2-0.5
			c1.4-0.4,2.5-1,3.7-1.9c0.4-0.3,0.8-0.7,1.4-0.8c0.4,0,0.7-0.5,1.1-0.8c1-0.7,1.9-1.5,2.9-1.9c0.9-0.4,1.5-0.8,2.1-1.5
			c0.1-0.1,0.2-0.1,0.3-0.1c2-0.9,3.9-2.1,6.1-2.6c0.4-0.1,0.8-0.4,1.2-0.6c0.6-0.3,1.3-0.6,2-0.7c0.8-0.1,1.5-0.3,2.3-0.5
			c0.5-0.1,1.1-0.3,1.6-0.4c0.8-0.1,1.5-0.2,2.3-0.2s1.6,0,2.4,0c1,0,2,0,3,0c1.1,0,2.3,0,3.4,0.3c0.9,0.2,1.8,0,2.6,0.7
			c0.6,0,1.1,0.1,1.7,0.2c0.9,0.2,1.8,0.6,2.8,0.9c1.4,0.5,2.7,1.2,4,1.9c1.3,0.6,2.5,1.4,3.6,2.2c0.8,0.5,1.6,1,2.4,1.5
			c1.6,1.2,3.3,2.1,5,3.1c1.2,0.8,2.7,1.2,4.1,1.7c0.7,0.3,1.5,0.5,2.3,0.6c0.7,0.1,1.5,0.2,2.2,0.4c1.1,0.2,2.2,0.2,3.2,0.6
			c0.5,0.2,1.2,0.2,1.8,0c0.5-0.2,1-0.2,1.5-0.2s1,0,1.6,0s1.2,0.1,1.6-0.1c0.6-0.2,1.2,0.1,1.6-0.2c0.5-0.4,1.1,0.1,1.5-0.4
			c0.8,0,1.6-0.4,2.3-0.4c0.6-0.1,1.1-0.4,1.7-0.6c0.5-0.1,1-0.1,1.5-0.4c0.4-0.3,0.8-0.5,1.3-0.7c1.5-0.5,2.6-1.7,4.1-2.2
			c0.4-0.1,0.8-0.5,1.1-0.8c1-1,2.2-1.6,3.4-2.3c0.8-0.5,1.6-1,2.5-1.6c0.1-0.1,0.3-0.1,0.4-0.1c0.7,0.1,1.2-0.3,1.7-0.6
			c1.3-0.8,2.8-1.4,4.3-1.8c0.7-0.2,1.3-0.5,2-0.6c1-0.1,2-0.5,3-0.6c2.2-0.4,4.4,0,6.6-0.2c0.3,0.3,0.5,0.6,0.9,1
			c0,0.3,0.1,0.7-0.2,1.2s-0.6,0.8-1.2,0.8c-0.6,0-1.1-0.1-1.7,0c-1,0.3-2,0-3,0.3c-1.1,0.2-2.2,0.2-3.2,0.7c-1.6,0-3,0.8-4.5,1.3
			c-1.3,0.4-2.6,1.1-3.8,1.9c-1.7,1.1-3.4,2.2-5.1,3.3c-1.3,0.8-2.5,1.6-3.8,2.4c-0.5,0.3-1.1,0.7-1.7,0.9c-1.6,0.7-3.2,1.5-4.8,1.9
			c-1.2,0.3-2.4,0.8-3.6,0.8c-0.7,0.5-1.6,0.1-2.4,0.4c-0.7,0.3-1.6,0-2.4,0.1c-0.8,0.1-1.6,0.2-2.4,0.2c-1.5,0-3-0.4-4.6-0.3
			c-0.9-0.3-2-0.3-2.9-0.5s-1.8-0.5-2.7-0.7c-1.4-0.3-2.7-0.9-4-1.4c-1.1-0.5-2.1-1-3.2-1.6c-1.1-0.6-2.1-1.4-3.3-2
			c-1.7-1-3.3-2.2-5-3.2c-1.3-0.8-2.7-1.5-4.1-2.1c-1.1-0.5-2.3-0.9-3.6-1.2c-1.2-0.3-2.3-0.6-3.5-0.7c-1-0.2-2-0.1-3-0.2
			c-0.8-0.2-1.6-0.2-2.4-0.2c-1.5-0.1-2.9,0.4-4.3,0.2c-1.7,0.4-3.4,0.4-5,1.2c-1.3,0.1-2.4,0.7-3.6,1.2c-1.1,0.6-2.3,1.1-3.4,1.8
			c-1.6,1-3.1,2.1-4.7,3.1c-1.4,0.9-2.8,1.7-4.2,2.5c-1.8,1-3.8,1.9-5.8,2.5c-0.8,0.2-1.6,0.5-2.4,0.6c-1.1,0.2-2.2,0.3-3.3,0.5
			c-1.1,0.2-2.1,0-3.1,0.2c-1.1,0.3-2.2,0.2-3.3,0.2c-0.6,0-1.1-0.2-1.7-0.2s-1.2,0.1-1.8,0c-0.5-0.1-1-0.2-1.5-0.2
			s-0.9-0.2-1.3-0.2c-0.5-0.1-1.1,0-1.4-0.3c-0.4-0.3-1,0-1.3-0.4c-1.6-0.1-2.9-0.9-4.3-1.5c-2.7-1.1-5.1-2.7-7.5-4.4
			c-2.4-1.7-4.9-3.2-7.6-4.4c-1.1-0.5-2.4-0.8-3.6-1.2c-0.7-0.2-1.5-0.3-2.2-0.5c-0.4-0.1-0.7-0.2-1.1-0.2c-0.3-0.1-0.7,0.1-1-0.2
			h-0.2c-2,0.1-4-0.4-6-0.2c-0.5,0-0.9,0.2-1.3,0.2c-0.5,0-1-0.1-1.4,0c-1.4,0.3-2.8,0.3-4.1,0.7c-0.9,0.3-1.9,0.5-2.9,0.9
			c-0.9,0.4-1.8,0.8-2.7,1.2c-1.4,0.7-2.8,1.6-4.2,2.4c-1.7,1-3.3,2.2-4.9,3.2c-1.5,0.9-3.1,1.7-4.7,2.5c-1.6,0.8-3.2,1.3-4.9,1.7
			c-1.4,0.3-2.7,0.7-4.1,0.7c-0.7,0.4-1.5,0.2-2.2,0.2c-0.8,0.1-1.7,0.2-2.5,0.2c-1.1,0-1.1-0.1-1.6-1.2c-0.3-0.7-0.1-1.1,0.3-1.6
			C0.9,110.2,1.1,110.1,1.3,109.9z"/>
	</g>
</g>
<path d="M211,170.4c-1.2,0.1-2.3,0.2-3.5,0.3c-1.2,0-2.3,0-3.5,0c-1.7,0-3.4-0.4-5.1-0.2c-0.9-0.4-1.8-0.1-2.7-0.3
	c-0.6-0.1-1.2-0.1-1.8-0.2c-0.6-0.1-1.2-0.1-1.8-0.2c-1.1-0.3-2.2-0.2-3.2-0.7c-1.4,0-2.7-0.6-4.1-0.8c-0.9-0.1-1.9-0.5-2.8-0.8
	c-1.5-0.4-3-0.9-4.5-1.4c-1.6-0.5-3.1-1.1-4.7-1.8c-0.5-0.2-1.1-0.2-1.3-1c0-0.2-0.6-0.4-0.9-0.4c-1.1,0.1-1.9-0.4-2.8-0.8
	c-1.7-0.8-3.3-1.7-4.9-2.6c-2.3-1.3-4.6-2.7-6.8-4.3c-1.4-0.9-2.7-1.9-3.9-2.9c-0.9-0.8-1.9-1.5-2.8-2.3c-1-0.8-1.7-1.7-2.7-2.5
	c-1.1-0.8-2-1.8-2.9-2.7c-1-1-2-2.1-3-3.2c-0.8-1-1.7-1.9-2.4-3c-1.5-2-3-3.9-4.4-6l-0.1-0.1c-0.1-0.4-0.2-0.7-0.3-1.1
	c-0.1-0.3-0.6-0.4-0.8-0.7c-0.5-0.8-0.9-1.5-1.4-2.3c-0.3-0.5-0.6-1-0.9-1.5c-1.1-2-2.1-4.1-3.1-6.1c-0.8-1.7-1.6-3.4-2.2-5.2
	c-0.4-1.2-0.9-2.4-1.3-3.6c-0.3-0.8-0.5-1.7-0.8-2.5s-0.4-1.6-0.8-2.4c-0.1-0.3,0.1-0.7-0.2-1.1c-0.3-0.4,0.1-1.1-0.3-1.4
	c-0.4-0.4,0-1-0.5-1.3v-0.2c0-0.6,0.1-1.3-0.1-1.7c-0.3-0.5-0.3-1.1-0.5-1.6c-0.2-0.4-0.1-0.9-0.1-1.4s0-1-0.2-1.5
	c-0.4-1.1-0.3-1.5,0-2.9c0.1-0.5,0.1-1.1-0.2-1.6c-0.4-0.6-0.5-1.3-0.5-2.1c0-3.3,0-6.6,0-10c0-0.6,0.2-1.3,0.2-1.9
	c0.1-0.6-0.2-1.2,0.2-1.8c0.1-0.2,0-0.5,0-0.7c0-0.6-0.1-1.2,0.1-1.6c0.3-0.5-0.2-1.1,0.4-1.4c-0.1-1.1,0.6-2.1,0.5-3.2
	c0-0.3,0.2-0.6,0.2-0.9c0-0.5,0.5-0.9,0-1.4c-0.1-0.1,0.1-0.5,0.2-0.7c0.1-0.3,0.2-0.6,0.2-0.9c0.1-0.3,0.1-0.5,0.1-0.8
	c0.1-0.9,0.8-1.7,0.9-2.6c0.1-0.8,0.3-1.5,0.6-2.3c0.3-0.7,0.5-1.5,0.5-2.3c0-0.6,0.3-1.2,0.6-1.7c0.5-0.8,0.5-1.8,1.1-2.6
	c-0.1-0.8,0.5-1.2,0.9-1.8c0.2-0.3,0.4-0.6,0.3-1s0.1-0.8,0.3-1.1c0.7-1.5,1.5-2.9,2.2-4.4c0.1-0.2,0.1-0.4,0.3-0.5
	c1.5-1.3,2.1-3.1,3-4.7c0.3-0.6,0.6-1.2,0.9-1.8c0.2-0.6,0.7-1.1,1-1.6c0.2-0.3,0.5-0.7,0.8-1c0.4-0.5,0.9-0.8,1-1.5
	c0-0.3,0.3-0.5,0.5-0.8c0.4-0.5,0.8-0.9,1.2-1.4c0.4-0.7,0.9-1.3,1.7-1.7c0.4-0.2,0.7-0.6,0.9-0.9c0.3-0.5,0.7-0.8,1-1.3
	c0.3-0.4,0.9-0.6,0.8-1.2c0,0,0.1-0.1,0.2-0.2c0.7-0.8,1.4-1.6,2.1-2.4c0.3-0.3,0.5-0.5,1-0.5c0.3,0,0.4-0.2,0.6-0.5
	c0.3-0.8,0.9-1.3,1.6-1.7c0.7-0.5,1.4-1.1,2-1.8c0.5-0.5,1.1-0.9,1.6-1.3c0.6-0.4,1.2-0.8,1.6-1.2c0.4-0.4,0.9-0.9,1.5-1.1
	c0.4-0.2,0.3-0.7,0.7-0.8c0.6-0.2,1-0.7,1.6-0.8c0.4,0,0.8-0.4,1-0.7c0.3-0.5,0.9-0.8,1.4-1c0.4-0.2,0.7-0.4,1.1-0.6
	c0.8-0.5,1.6-1.3,2.7-1.4c0.2,0,0.6-0.1,0.7-0.3c0.6-0.9,1.6-1,2.6-1.4c0.9-0.3,1.9-0.7,2.7-1.3c0.4-0.3,0.8-0.6,1.3-0.6
	c0.4-0.1,0.8-0.3,1.1-0.5c1.3-0.8,2.8-1.4,4.3-1.6c0.3,0,0.5-0.1,0.7-0.3c1.4-0.8,2.9-1.4,4.5-1.7c0.5-0.1,1-0.3,1.5-0.5
	c0.6-0.2,1.2-0.2,1.8-0.2c0.4,0,0.8-0.2,1.2-0.3c0.8-0.3,1.7-0.5,2.5-0.7s1.6-0.2,2.4-0.2c0.4,0,0.7-0.1,1.1-0.2
	c1.3-0.4,2.7-0.8,4.1-0.7c0.6,0,1.1,0,1.7-0.2c0.5-0.2,1.1,0.1,1.6-0.2c0.2-0.1,0.5,0,0.7,0c1.5,0,3,0,4.6,0c0.4,0,0.7,0,1.1,0.2
	c0.3,0.2,0.9,0,1.4-0.1c0.7-0.2,1.5,0,2.3,0c0.3,0,0.5,0.1,0.8,0.1c0.9,0,1.8,0,2.6,0c0.7,0,1.4,0.1,2.1,0.4
	c0.1,0.1,0.3,0.1,0.4,0.1c0.6,0,1.2,0,1.8,0s1.1,0.1,1.7,0.2c1.1,0.2,2.2,0.5,3.3,0.6c1.4,0.2,2.6,0.9,4,0.9c0.5,0,1,0.3,1.5,0.4
	c1.1,0.3,2.2,0.6,3.3,1c1.7,0.6,3.5,1.1,5.1,1.8c1.1,0.5,2.2,1,3.3,1.4s2.1,0.9,3.1,1.4c0.4,0.2,0.9,0.5,1.3,0.7
	c0.7,0.5,1.5,0.6,2.2,1c1.8,1.1,3.7,2.1,5.5,3.3c0.7,0.5,1.5,1,2.3,1.5c1,0.7,2,1.5,3.1,2.2c1.1,0.8,2.1,1.7,3.2,2.5
	c0.6,0.5,1.2,1.1,1.8,1.6c1.8,1.6,3.6,3.4,5.3,5.1c0.5,0.5,1,1.1,1.4,1.7c0.5,0.5,1,0.9,1.4,1.6c0.3,0.6,0.8,1.1,1.3,1.6
	c0.9,0.8,1.5,1.9,2.3,2.8c0.8,1,1.6,2.1,2.3,3.2c1.2,1.8,2.3,3.5,3.3,5.3s2.1,3.6,2.9,5.5c0.9,2,1.9,4,2.6,6.1
	c0.4,1.1,0.9,2.1,1.2,3.2c0.7,2.1,1.3,4.2,1.9,6.3c0.3,1.1,0.4,2.2,0.9,3.2c0.2,0.4,0,0.9,0.2,1.3c0.2,0.5,0.2,1.1,0.3,1.7
	c0.1,0.6,0.2,1.1,0.2,1.7c0.1,0.4,0.2,0.8,0.2,1.2c0,0.4-0.1,0.8,0.2,1.1v0.1c0.1,1.1,0.2,2.3,0.2,3.4c0,0.8,0.4,1.6,0.3,2.4
	s-0.2,1.6,0,2.4c0.4,1.5,0.3,3.1,0.2,4.6c-0.1,1.7-0.1,3.3-0.2,4.9c-0.1,0.8-0.1,1.6-0.2,2.4c-0.1,0.7-0.1,1.3-0.2,1.9
	s-0.1,1.2-0.3,1.8c-0.1,0.5-0.1,1-0.2,1.5c-0.2,0.5-0.1,0.9-0.2,1.4c-0.3,1.2-0.4,2.4-0.7,3.5c-0.2,0.8-0.3,1.6-0.6,2.4
	c-0.3,0.7-0.3,1.5-0.6,2.3c-0.4,1.3-0.9,2.6-1.3,3.9c-0.3,0.9-0.5,1.8-0.9,2.6c-0.3,0.8-0.7,1.6-1,2.5c-0.2,0.6-0.5,1.2-0.8,1.8
	c-0.8,1.7-1.5,3.4-2.4,5c-1.6,2.9-3.2,5.9-5.2,8.6c-0.9,1.3-1.7,2.6-2.6,3.8c-0.4,0.5-0.8,1-1.2,1.4c-1.2,1.3-2.3,2.7-3.4,4
	c-1.3,1.5-2.8,2.9-4.2,4.4c-1.1,1.1-2.3,2.2-3.6,3.2c-1.1,0.9-2.1,1.8-3.2,2.7c-0.5,0.4-1,0.7-1.5,1c-1.7,1.4-3.6,2.5-5.4,3.7
	c-1.1,0.7-2.3,1.4-3.5,2.1c-1.8,1-3.6,2-5.5,2.9c-1.9,0.8-3.7,1.6-5.6,2.4c-2.1,0.9-4.3,1.5-6.5,2.3c-0.9,0.3-2,0.4-2.9,0.8
	c-0.4,0.2-0.9,0.1-1.3,0.3c-0.4,0.2-1,0-1.3,0.3c-0.4,0.3-0.9,0.1-1.3,0.4c-0.5,0.3-1.3,0.2-1.9,0.3c-0.4,0.1-0.7,0.2-1.1,0.2
	c-0.3,0.1-0.7-0.1-1,0.2c0,0-0.1,0-0.2,0c-0.9,0.1-1.9,0.1-2.8,0.2c-0.5,0.1-1,0.3-1.6,0.2c-0.5,0-1.1,0-1.6,0.2
	C212.1,170.6,211.5,170.4,211,170.4L211,170.4z M210.4,164.1v0.1c1.1-0.1,2.2-0.2,3.4-0.3c0.8-0.1,1.7-0.1,2.5-0.3
	c0.4-0.1,0.8-0.1,1.2-0.2c0.4-0.1,0.8-0.2,1.2-0.2c0.6-0.1,1.4,0,1.9-0.3s1,0,1.5-0.4c0.4-0.3,1.1-0.1,1.7-0.3
	c0.8-0.3,1.6-0.1,2.3-0.5c0.2-0.1,0.4-0.2,0.6-0.2c0.5,0,1.1-0.1,1.6-0.3c1.9-0.7,3.8-1.4,5.7-2.3c0.5-0.3,1.1-0.6,1.7-0.6
	c0.4,0,0.7-0.1,1.1-0.3c0.6-0.3,1.1-0.7,1.7-0.9c0.6-0.2,1.2-0.4,1.7-0.8c0.3-0.3,0.7-0.4,1-0.5c0.4-0.2,0.8-0.3,1.2-0.6
	c0.3-0.3,0.8-0.6,1.3-0.7c0.6-0.1,1-0.4,1.4-0.8c0.5-0.5,1.2-0.8,1.9-0.9c0.3-0.1,0.7-0.3,1-0.5s0.5-0.4,0.7-0.7
	c0.7-0.7,1.4-1.3,2.4-1.5c0.2,0,0.4-0.2,0.6-0.3c1.2-1,2.4-1.9,3.6-2.9c0.5-0.4,1-0.8,1.4-1.2c0.2-0.2,0.4-0.6,0.6-0.8
	c0.7-0.6,1.4-1.2,2.2-1.7c0.5-0.3,0.9-0.7,1.2-1.1c0.3-0.5,0.7-0.8,1.1-1.2c0.3-0.3,0.6-0.5,0.8-0.9c0.5-0.8,1.2-1.5,2-2
	c0.4-0.2,0.6-0.7,0.9-1.1c0.2-0.3,0.4-0.6,0.7-0.8c0.5-0.3,1.1-0.7,1.2-1.5c0-0.3,0.3-0.6,0.6-0.8c0.4-0.3,0.5-0.8,1-1.1
	c0.4-0.2,0.6-0.7,1-1.1c0.3-0.4,0.6-0.7,0.8-1.1c0.4-1.4,1.4-2.4,2.2-3.5c0.3-0.4,0.6-0.8,0.7-1.3c0.2-0.6,0.6-1.2,0.9-1.8
	c0.1-0.1,0.3-0.1,0.3-0.2c0.3-0.8,1.3-1.3,1.1-2.3c0-0.1,0.1-0.3,0.2-0.4c0.6-1.3,1.2-2.6,1.8-3.8c0.5-1.1,0.9-2.3,1.4-3.4
	c0.1-0.2,0.2-0.4,0.3-0.6c0.5-0.8,1-1.7,1.1-2.7c0.1-0.4-0.1-1,0.3-1.3c0.5-0.4,0.1-1,0.4-1.4c0.3-0.5,0.4-1.1,0.5-1.7
	c0.3-0.9,0.8-1.8,0.8-2.8c0.4-0.3,0.1-0.7,0.2-1c0.1-0.7,0.3-1.5,0.5-2.2c0.1-0.5-0.1-1,0.2-1.5c0.2-0.4,0.1-1,0.2-1.6
	c0.1-0.5,0.2-1.1,0.3-1.7c0.1-0.6,0.1-1.2,0.2-1.8c0.2-0.8,0.1-1.6,0.2-2.4c0.2-0.9,0-1.8,0-2.8c0-0.9,0.2-1.8,0.2-2.7
	c0-1.2,0.1-2.4-0.2-3.6c-0.2-0.7-0.3-1.5,0.2-2.2c0.1-0.2,0-0.5-0.1-0.8c-0.2-0.7-0.4-1.5-0.4-2.2c0-0.4,0.1-0.8-0.1-1
	c-0.2-0.4-0.1-0.7-0.2-1s-0.2-0.6-0.2-1c-0.1-0.9-0.2-1.9-0.2-2.8c0-0.1,0-0.2,0-0.2c-0.4-0.4-0.3-1-0.4-1.5s-0.4-1-0.3-1.6
	c-0.6-1-0.2-2.3-1-3.3c0-0.6-0.2-1.1-0.5-1.6c-0.2-0.5-0.3-1.1-0.4-1.6c-0.4-1.2-0.8-2.3-1.2-3.5c-0.7-2.3-1.7-4.4-2.7-6.6
	c-0.8-1.7-1.7-3.3-2.6-4.9c-0.7-1.3-1.4-2.6-2.2-3.9c-0.3-0.4-0.7-0.7-0.9-1.1c-0.7-1.2-1.5-2.2-2.3-3.3c-1.4-2-2.9-3.9-4.5-5.7
	c-2-2.2-4.1-4.2-6.3-6.3c-0.6-0.6-1.2-1.1-1.8-1.6c-1-0.9-2.1-1.7-3.2-2.5c-0.5-0.4-1-0.7-1.6-1.1c-0.5-0.4-1-0.8-1.6-1.1
	c-0.8-0.4-1.5-1-2.3-1.5c-1.4-0.9-2.9-1.8-4.3-2.5c-3-1.5-6-3.1-9.2-4.2c-1.4-0.5-2.8-1.1-4.2-1.5c-1.4-0.5-2.8-0.8-4.2-1.2
	c-0.9-0.3-1.7-0.5-2.6-0.7c-1-0.2-2-0.7-3-0.5c-1-0.5-2.1-0.4-3.2-0.7c-1.1-0.3-2.4-0.2-3.5-0.5c-0.5-0.1-1,0-1.6,0
	c-0.5,0-1-0.2-1.5-0.2c-1.9,0-3.8-0.1-5.6,0c-1.9,0.1-3.8-0.2-5.7,0.2c-0.7,0.2-1.5-0.1-2.3,0.2c-0.7,0.3-1.6,0-2.4,0.3
	c-1,0.2-2,0.2-3,0.5c-0.6,0.2-1.3,0-1.8,0.3c-0.6,0.3-1.2,0-1.7,0.4c-2.1,0.4-4.2,1-6.3,1.7c-1.7,0.6-3.4,1.2-5.1,1.9
	c-1.3,0.6-2.7,1-4,1.7c-2,1-4,2-5.9,3c-1.2,0.6-2.3,1.2-3.4,2c-2.7,1.7-5.3,3.6-7.7,5.6c-1.1,0.9-2.1,1.8-3.2,2.7
	c-1.1,0.9-2.1,2-3.1,3c-1,1.1-2.1,2-3,3.2c-1,1.2-2,2.4-3,3.6c-0.6,0.8-1.3,1.5-1.8,2.4c-0.9,1.3-1.8,2.7-2.7,4
	c-0.9,1.4-1.8,2.9-2.6,4.4c-1.5,3-3.1,5.9-4.2,9.1c-0.5,1.4-1.1,2.8-1.6,4.3c-0.4,1.2-0.6,2.4-1,3.5c-0.6,1.7-0.9,3.5-1.3,5.2
	c-0.4,1.3-0.4,2.8-0.7,4.1c-0.1,0.6-0.1,1.2-0.2,1.8c-0.2,0.6,0.1,1.2-0.3,1.8c0.2,1.4-0.3,2.7-0.2,4.1c0,0.3,0,0.6,0,1
	c-0.1,1,0.2,2-0.2,3c0,0.1,0,0.3,0,0.3c0.3,0.2,0.2,0.6,0.2,0.9c0,1.2,0,2.3,0,3.5c0,1.1,0.2,2.3,0.2,3.4c0,0.1,0,0.2,0,0.2
	c0.3,0.5,0.3,1,0.2,1.5c-0.1,0.5,0.2,1,0.3,1.5c0.1,0.7,0,1.5,0.3,2.2c0.2,0.5,0.1,1.1,0.2,1.6c0.3,0.9,0.4,1.8,0.7,2.7
	c0.2,0.5,0.2,1.1,0.3,1.7c0.6,1.7,0.9,3.5,1.6,5.2c0.4,1.1,0.8,2.3,1.2,3.5c0.6,1.4,1.1,2.9,1.8,4.3c1.2,2.4,2.3,4.8,3.6,7
	c0.6,1,1.1,1.9,1.7,2.9c1.3,2.1,2.8,4.1,4.3,6c1.2,1.6,2.5,3.2,3.9,4.7c1.8,2.1,3.9,3.9,5.8,5.9c0.1,0.1,0.2,0.2,0.3,0.2
	c0.6,0.2,0.8,0.7,1.3,1c0.4,0.3,0.9,0.7,1.3,1c1,0.9,2.1,1.7,3.2,2.5c0.8,0.6,1.6,1.3,2.4,1.9c0.2,0.2,0.4,0.3,0.7,0.4
	c1,0.3,1.8,1.1,2.7,1.6c0.8,0.4,1.6,0.8,2.3,1.4c0.8,0.6,1.6,1,2.4,1.4c2.1,1,4.3,2.1,6.5,2.9c0.4,0.2,0.8,0.4,1.1,0.4
	c0.5,0,0.6,0.5,1.1,0.6c0.6,0.1,1.3,0.2,1.8,0.5c0.6,0.3,1.3,0.3,1.9,0.6c0.6,0.3,1.3,0.5,2,0.7c1,0.3,2,0.4,2.9,0.8
	c0.6,0.2,1.3,0.1,1.9,0.4c0.3,0.2,0.8,0.2,1.2,0.3s0.8,0.3,1.2,0.2c0.6-0.1,1,0.3,1.6,0.3c0.6-0.1,1,0.3,1.4,0.6
	c0.3,0.2,0.6,0.1,0.9,0.2c1.6,0.1,3.1-0.2,4.7,0.2c0.7,0.2,1.5,0,2.3,0s1.5,0.3,2.3,0.3c1.1-0.1,2.2,0,3.2,0
	C208.3,164.4,209.4,164.2,210.4,164.1z"/>
<g>
	<path class="st0" d="M226.2,157.6l-1.3-3.4l0.8-0.3c0.5-0.2,0.8-0.4,1.1-0.5c0.2-0.2,0.4-0.4,0.5-0.7c0.1-0.3,0.1-0.6,0.1-1l0-0.5
		l-10.4-8.9l4.5-1.7l5.9,5.3l0.1-7.6l4.5-1.7l-0.7,14.9c-0.1,0.8-0.2,1.5-0.4,2.3c-0.2,0.7-0.6,1.4-1.1,2c-0.5,0.6-1.2,1.1-2.1,1.4
		L226.2,157.6z"/>
	<path class="st0" d="M253.7,141.5l-8.6-2l-0.5,0.4l4.5,5.4l-3.6,3L234.2,135l3.6-3l4.2,5l0.5-0.4l-0.4-8.3l4.6-3.8l0.3,10.7
		l11.2,2.4L253.7,141.5z"/>
	<path class="st0" d="M263.4,131.2l-14.9-9.1l3.9-6.4c0.7-1.1,1.5-1.9,2.4-2.5c0.9-0.6,1.9-0.8,3-0.8c1.1,0,2.1,0.4,3.2,1
		c1.1,0.6,1.8,1.4,2.3,2.4c0.5,0.9,0.7,2,0.6,3.1c-0.1,1.1-0.5,2.2-1.2,3.4l-2.3,3.8l-3.1-1.9l1.8-3c0.3-0.5,0.5-0.9,0.5-1.4
		c0-0.4,0-0.8-0.2-1.2c-0.2-0.4-0.5-0.7-0.9-0.9c-0.4-0.3-0.8-0.4-1.3-0.4c-0.4,0-0.8,0.1-1.2,0.4c-0.4,0.2-0.7,0.6-1,1.1l-0.9,1.4
		l11.7,7.1L263.4,131.2z"/>
	<path class="st0" d="M274.3,109.4l-1.3,4.9l-15.5-9.9l1.6-6.3l18.3-1.2l-1.3,5l-13.2,0.5l0,0.1L274.3,109.4z M267.4,108.6l2.4-9.3
		l3.4,0.9l-2.4,9.3L267.4,108.6z"/>
	<path class="st0" d="M258.6,89.7c0,0.6-0.2,1.1-0.6,1.5c-0.4,0.4-0.8,0.6-1.4,0.6c-0.5,0-1-0.2-1.4-0.6c-0.4-0.4-0.6-0.9-0.6-1.5
		c0-0.6,0.2-1,0.6-1.4c0.4-0.4,0.8-0.6,1.4-0.6c0.5,0,1,0.2,1.4,0.6C258.4,88.7,258.6,89.2,258.6,89.7z M260.1,84.7l17.5-0.1l0,4.7
		l-17.5,0.1L260.1,84.7z M258.6,84.3c0,0.6-0.2,1.1-0.6,1.5c-0.4,0.4-0.8,0.6-1.4,0.6c-0.5,0-1-0.2-1.4-0.6
		c-0.4-0.4-0.6-0.9-0.6-1.5c0-0.6,0.2-1,0.6-1.4c0.4-0.4,0.8-0.6,1.4-0.6c0.5,0,1,0.2,1.4,0.6C258.4,83.3,258.5,83.7,258.6,84.3z"/>
	<path class="st0" d="M277.2,76.6L260.3,81l-1.2-4.6l6.6-1.7l-1.6-6.1l-6.6,1.7l-1.2-4.6l16.9-4.4l1.2,4.6l-6.6,1.7l1.6,6.1L276,72
		L277.2,76.6z"/>
	<path class="st0" d="M252,58.5l15.3-8.4l2.3,4.2l-15.3,8.4L252,58.5z"/>
</g>
<g>
	<path class="st0" d="M147.4,57.5l-1.6,4.5c-0.4-0.1-0.8-0.1-1.1-0.1c-0.4,0-0.7,0.1-1,0.3c-0.3,0.2-0.6,0.4-0.8,0.7
		c-0.2,0.3-0.4,0.7-0.6,1.1c-0.3,0.8-0.3,1.5-0.1,2.1c0.2,0.6,0.6,1.2,1.2,1.7c0.6,0.5,1.4,0.9,2.3,1.2c1,0.3,1.9,0.5,2.7,0.5
		c0.8,0,1.4-0.3,1.9-0.7c0.5-0.4,0.9-1,1.2-1.7c0.1-0.4,0.2-0.8,0.2-1.2c0-0.4,0-0.7-0.2-1c-0.1-0.3-0.3-0.6-0.5-0.8
		c-0.2-0.3-0.5-0.5-0.8-0.6l1.6-4.5c0.7,0.3,1.3,0.7,1.9,1.3c0.6,0.6,1.1,1.3,1.5,2.1c0.4,0.8,0.6,1.8,0.7,2.8
		c0.1,1-0.1,2.2-0.5,3.4c-0.5,1.5-1.3,2.8-2.4,3.7c-1.1,1-2.3,1.6-3.8,1.9c-1.5,0.3-3.2,0.1-5-0.6c-1.8-0.6-3.3-1.5-4.3-2.7
		c-1-1.1-1.6-2.4-1.9-3.9s-0.1-2.9,0.4-4.4c0.4-1,0.8-2,1.4-2.7c0.6-0.8,1.3-1.4,2-1.9c0.8-0.5,1.6-0.8,2.6-0.9
		C145.4,57.2,146.4,57.2,147.4,57.5z"/>
	<path class="st0" d="M158.8,59.2l-2.8-2.3l0.2-0.4c0.3-0.5,0.4-1,0.3-1.6c-0.1-0.6-0.4-1.2-1-1.9c-0.6-0.7-1.4-1.6-2.6-2.6
		l-5.5-4.9l8-9.8L169,46.7l-2.9,3.5l-10.7-8.7l-2.4,2.9l4.1,3.7c1.5,1.4,2.6,2.6,3.2,3.7c0.7,1.1,0.9,2.2,0.7,3.2
		c-0.2,1-0.7,2.1-1.6,3.3L158.8,59.2z"/>
	<path class="st0" d="M174.9,42.5l-4.5,2.5l-3.5-18l5.7-3.2l13.5,12.4l-4.5,2.5l-9.5-9.2l-0.1,0.1L174.9,42.5z M170.7,36.9l8.4-4.7
		l1.7,3.1l-8.4,4.7L170.7,36.9z"/>
	<path class="st0" d="M188.4,35.6l-3.1-17.2l7.4-1.4c1.3-0.2,2.4-0.3,3.4-0.1c1,0.2,1.7,0.6,2.3,1.1c0.6,0.6,0.9,1.3,1.1,2.1
		c0.1,0.6,0.1,1.2-0.1,1.8c-0.2,0.6-0.5,1.1-0.9,1.5c-0.4,0.4-1,0.8-1.6,1l0,0.2c0.7-0.1,1.4,0,2.1,0.2c0.7,0.2,1.2,0.6,1.7,1.2
		c0.5,0.5,0.8,1.2,0.9,2c0.2,0.9,0.1,1.8-0.3,2.6c-0.4,0.8-0.9,1.5-1.8,2.1c-0.8,0.6-1.9,1-3.1,1.2L188.4,35.6z M192.4,31l2.2-0.4
		c0.8-0.1,1.3-0.4,1.7-0.8c0.3-0.4,0.5-0.8,0.3-1.4c-0.1-0.4-0.2-0.7-0.5-1c-0.2-0.2-0.5-0.4-0.9-0.5c-0.4-0.1-0.8-0.1-1.3,0
		l-2.2,0.4L192.4,31z M191.2,24.5l1.9-0.3c0.4-0.1,0.8-0.2,1-0.4c0.3-0.2,0.5-0.4,0.6-0.7c0.1-0.3,0.2-0.6,0.1-0.9
		c-0.1-0.5-0.4-0.9-0.8-1.1s-0.9-0.3-1.5-0.2l-2,0.4L191.2,24.5z"/>
	<path class="st0" d="M209.3,33.6l-5-0.8l8.5-16.3l6.4,1.1l2.8,18.2l-5-0.8l-1.7-13.1l-0.1,0L209.3,33.6z M209.5,26.7l9.5,1.6
		l-0.6,3.5l-9.5-1.6L209.5,26.7z"/>
</g>
</svg>
