<?xml version="1.0" encoding="utf-8"?>

<svg version="1.1" id="Layer_1" xmlns="http://www.w3.org/2000/svg" xmlns:xlink="http://www.w3.org/1999/xlink" x="0px" y="0px"
	 viewBox="0 0 512.1 511.9" style="enable-background:new 0 0 512.1 511.9;" xml:space="preserve">

	 <style type="text/css">
		.shape-fill {
			fill: #333;
		}

		@media (prefers-color-scheme: dark) {
			.shape-fill {
				fill: #FFF;
			}
		}
	 </style>
	<path class="shape-fill" d="M256.1,124.7c-72.7,0-131.3,58.6-131.3,131.2s58.6,131.3,131.3,131.3S387.3,328.6,387.3,256S328.7,124.7,256.1,124.7z
		M256.1,341.3c-47,0-85.3-38.3-85.3-85.3c0-47.1,38.3-85.3,85.3-85.3c47.1,0,85.3,38.3,85.3,85.3C341.4,303,303,341.3,256.1,341.3z"
		/>
	<circle class="shape-fill" cx="392.7" cy="119.3" r="30.6"/>
	<path class="shape-fill" d="M510.3,150.4c-1.9-41-11.3-77.3-41.4-107.3C439,13.2,402.6,3.9,361.6,1.8c-42.3-2.4-169-2.4-211.2,0
		C109.5,3.7,73.2,13.1,43.2,43C13.1,73,3.9,109.3,1.8,150.3c-2.4,42.3-2.4,169,0,211.2c1.9,41,11.3,77.3,41.4,107.3
		c30,29.9,66.2,39.3,107.3,41.4c42.3,2.4,169,2.4,211.2,0c41-1.9,77.3-11.3,107.3-41.4c29.9-29.9,39.3-66.3,41.4-107.3
		C512.7,319.3,512.7,192.7,510.3,150.4z M455.7,406.9c-8.9,22.4-26.2,39.6-48.7,48.7c-33.7,13.4-113.7,10.3-150.9,10.3
		c-37.2,0-117.3,3-150.9-10.3c-22.4-8.9-39.6-26.2-48.7-48.7C43.1,373.2,46.2,293.2,46.2,256c0-37.2-3-117.3,10.3-150.9
		c8.9-22.4,26.2-39.6,48.7-48.7C138.9,43,218.8,46.1,256.1,46.1c37.2,0,117.3-3,150.9,10.3c22.4,8.9,39.6,26.2,48.7,48.7
		c13.4,33.7,10.3,113.7,10.3,150.9C465.9,293.2,469,373.3,455.7,406.9z"/>
</svg>
