<?xml version="1.0" encoding="utf-8"?>
<!-- Generator: Adobe Illustrator 24.0.0, SVG Export Plug-In . SVG Version: 6.00 Build 0)  -->
<svg version="1.1" id="Layer_1" xmlns="http://www.w3.org/2000/svg" xmlns:xlink="http://www.w3.org/1999/xlink" x="0px" y="0px"
	 viewBox="0 0 827.6 182.6" style="enable-background:new 0 0 827.6 182.6;" xml:space="preserve">
<style type="text/css">
	.st0{fill:#005BBB;}
	.st1{fill:#FFD500;}
</style>
<rect class="st0" width="274" height="91.3"/>
<rect y="91.3" class="st1" width="274" height="91.3"/>
<g>
	<path d="M296.6,18.4h7.9L323,63.7h0.6l18.5-45.3h7.9v54.5h-6.2V31.5h-0.5l-17,41.4h-6l-17-41.4h-0.5v41.4h-6.2L296.6,18.4
		L296.6,18.4z"/>
	<path d="M360.3,72.9V18.4h32.9v5.9h-26.3v18.4h24.6v5.9h-24.6V67h26.7v5.9H360.3z"/>
	<path d="M419,72.9h-16.8V18.4h17.6c5.3,0,9.8,1.1,13.6,3.3c3.8,2.2,6.6,5.3,8.7,9.3c2,4.1,3,8.9,3,14.6s-1,10.6-3,14.7
		s-5,7.2-8.8,9.4C429.3,71.8,424.5,72.9,419,72.9z M408.8,67h9.8c4.5,0,8.2-0.9,11.2-2.6c3-1.7,5.2-4.2,6.6-7.4
		c1.5-3.2,2.2-7,2.2-11.5c0-4.4-0.7-8.2-2.2-11.4c-1.4-3.2-3.6-5.6-6.4-7.4c-2.9-1.7-6.4-2.6-10.7-2.6h-10.5V67z"/>
	<path d="M459.7,18.4v54.5h-6.6V18.4H459.7z"/>
	<path d="M513.8,35.4h-6.6c-0.4-1.9-1.1-3.6-2-5c-1-1.4-2.1-2.6-3.5-3.6s-2.9-1.7-4.6-2.2s-3.4-0.7-5.2-0.7c-3.3,0-6.3,0.8-9,2.5
		s-4.8,4.1-6.4,7.4c-1.6,3.2-2.4,7.2-2.4,12c0,4.7,0.8,8.7,2.4,12c1.6,3.2,3.7,5.7,6.4,7.4c2.7,1.7,5.7,2.5,9,2.5
		c1.8,0,3.6-0.2,5.2-0.7c1.7-0.5,3.2-1.2,4.6-2.2s2.5-2.2,3.5-3.6c1-1.4,1.6-3.1,2-5h6.6c-0.5,2.8-1.4,5.3-2.7,7.5
		c-1.3,2.2-2.9,4.1-4.9,5.6s-4.1,2.7-6.6,3.5c-2.4,0.8-5,1.2-7.8,1.2c-4.7,0-8.8-1.1-12.4-3.4s-6.5-5.5-8.5-9.7
		c-2.1-4.2-3.1-9.2-3.1-14.9c0-5.8,1-10.7,3.1-14.9s4.9-7.4,8.5-9.7s7.8-3.4,12.4-3.4c2.8,0,5.3,0.4,7.8,1.2c2.4,0.8,4.6,2,6.6,3.5
		s3.6,3.4,4.9,5.6C512.4,30.1,513.3,32.6,513.8,35.4z"/>
	<path d="M528,18.4v54.5h-6.6V18.4H528z"/>
	<path d="M581.5,18.4v54.5h-6.4l-29.7-42.8h-0.5v42.8h-6.6V18.4h6.4l29.8,42.9h0.5V18.4H581.5z"/>
	<path d="M591.7,72.9V18.4h32.9v5.9h-26.3v18.4h24.6v5.9h-24.6V67H625v5.9H591.7z"/>
	<path d="M651.7,72.9V18.4h32.7v5.9h-26.1v18.4H682v5.9h-23.7V73L651.7,72.9L651.7,72.9z"/>
	<path d="M738.7,45.6c0,5.8-1,10.7-3.1,14.9s-4.9,7.4-8.5,9.7c-3.6,2.3-7.8,3.4-12.4,3.4c-4.7,0-8.8-1.1-12.4-3.4
		c-3.6-2.3-6.5-5.5-8.5-9.7c-2.1-4.2-3.1-9.2-3.1-14.9c0-5.8,1-10.7,3.1-14.9s4.9-7.4,8.5-9.7s7.8-3.4,12.4-3.4
		c4.7,0,8.8,1.1,12.4,3.4c3.6,2.3,6.5,5.5,8.5,9.7S738.7,39.9,738.7,45.6z M732.3,45.6c0-4.7-0.8-8.7-2.4-12
		c-1.6-3.2-3.7-5.7-6.4-7.4c-2.7-1.7-5.7-2.5-9-2.5s-6.3,0.8-9,2.5s-4.8,4.1-6.4,7.4c-1.6,3.2-2.4,7.2-2.4,12c0,4.7,0.8,8.7,2.4,12
		c1.6,3.2,3.7,5.7,6.4,7.4c2.7,1.7,5.7,2.5,9,2.5s6.3-0.8,9-2.5c2.7-1.7,4.8-4.1,6.4-7.4C731.5,54.3,732.3,50.3,732.3,45.6z"/>
	<path d="M746.8,72.9V18.4h18.4c4.3,0,7.8,0.7,10.5,2.2c2.7,1.4,4.8,3.4,6.1,6c1.3,2.5,2,5.4,2,8.6s-0.7,6.1-2,8.5
		c-1.3,2.5-3.3,4.4-6,5.8s-6.2,2.1-10.4,2.1h-14.9v-6h14.7c2.9,0,5.3-0.4,7-1.3c1.8-0.9,3.1-2.1,3.9-3.6c0.8-1.6,1.2-3.4,1.2-5.6
		c0-2.2-0.4-4.1-1.2-5.7s-2.1-2.9-3.9-3.8c-1.8-0.9-4.2-1.3-7.1-1.3h-11.6V73L746.8,72.9L746.8,72.9z M772.4,48.4l13.4,24.5h-7.7
		L765,48.4H772.4z"/>
</g>
<g>
	<path d="M328.5,109.5H340v35.4c0,4-0.9,7.5-2.8,10.4c-1.9,3-4.5,5.3-7.9,7s-7.3,2.5-11.9,2.5c-4.5,0-8.5-0.8-11.9-2.5s-6-4-7.9-7
		s-2.8-6.5-2.8-10.4v-35.4h11.5v34.4c0,2.1,0.5,3.9,1.4,5.5s2.2,2.9,3.9,3.8c1.7,0.9,3.6,1.4,5.8,1.4c2.2,0,4.2-0.5,5.8-1.4
		c1.7-0.9,2.9-2.2,3.9-3.8c0.9-1.6,1.4-3.5,1.4-5.5V109.5z"/>
	<path d="M346.5,164.1v-54.5H358v24h0.7l19.6-24h13.8L371.9,134l20.5,30.1h-13.8l-14.9-22.4l-5.7,6.9v15.5H346.5z"/>
	<path d="M395.2,164.1v-54.5h21.5c4.1,0,7.6,0.7,10.6,2.2c2.9,1.5,5.1,3.5,6.7,6.2c1.5,2.7,2.3,5.8,2.3,9.4s-0.8,6.7-2.3,9.3
		c-1.6,2.6-3.8,4.6-6.8,6s-6.5,2.1-10.7,2.1H402v-9.3h12.5c2.2,0,4-0.3,5.5-0.9s2.5-1.5,3.3-2.7c0.7-1.2,1.1-2.7,1.1-4.5
		s-0.4-3.3-1.1-4.6c-0.7-1.2-1.8-2.2-3.3-2.8s-3.3-1-5.5-1h-7.8v45.1H395.2z M424.7,139.2l13.6,24.8h-12.7l-13.3-24.8H424.7z"/>
	<path d="M450.8,164.1h-12.4l18.8-54.5h14.9l18.8,54.5h-12.4L464.9,122h-0.4L450.8,164.1z M450,142.6h29.2v9H450V142.6z"/>
	<path d="M506,109.5V164h-11.5v-54.5H506z"/>
	<path d="M558.2,109.5V164h-10l-23.7-34.3h-0.4V164h-11.5v-54.5h10.1l23.5,34.3h0.5v-34.3H558.2z"/>
	<path d="M564.7,164.1v-54.5h36.8v9.5h-25.2v13h23.3v9.5h-23.3v13h25.3v9.5H564.7z"/>
</g>
</svg>
