<?xml version="1.0" encoding="utf-8"?>
<!-- Generator: Adobe Illustrator 24.0.0, SVG Export Plug-In . SVG Version: 6.00 Build 0)  -->
<svg version="1.1" id="Layer_1" xmlns="http://www.w3.org/2000/svg" xmlns:xlink="http://www.w3.org/1999/xlink" x="0px" y="0px"
	 viewBox="0 0 827.6 182.6" style="enable-background:new 0 0 827.6 182.6;" xml:space="preserve">
<style type="text/css">
	.st0{fill:#005BBB;}
	.st1{fill:#FFD500;}
</style>
<g>
	<path d="M298.9,16.5h8.3l19.5,47.7h0.7L347,16.5h8.3V74h-6.5V30.3h-0.6l-18,43.7h-6.3l-18-43.7h-0.6V74h-6.5V16.5H298.9z"/>
	<path d="M383.7,74.8c-4.2,0-7.7-0.9-10.7-2.8c-3-1.8-5.3-4.4-6.9-7.7c-1.6-3.3-2.4-7.2-2.4-11.6s0.8-8.3,2.4-11.7s3.9-6,6.8-7.9
		c2.9-1.9,6.3-2.8,10.2-2.8c2.2,0,4.5,0.4,6.6,1.1c2.2,0.7,4.2,2,6,3.6c1.8,1.7,3.2,3.9,4.3,6.6c1.1,2.7,1.6,6.1,1.6,10.2v2.8h-33.2
		v-5.7h26.5c0-2.4-0.5-4.6-1.4-6.5c-1-1.9-2.3-3.4-4.1-4.5c-1.8-1.1-3.8-1.7-6.2-1.7c-2.6,0-4.9,0.6-6.8,1.9c-1.9,1.3-3.4,3-4.4,5.1
		s-1.5,4.3-1.5,6.7v3.8c0,3.3,0.6,6,1.7,8.3c1.1,2.3,2.7,4,4.7,5.1c2,1.2,4.4,1.8,7,1.8c1.7,0,3.3-0.2,4.7-0.7s2.6-1.2,3.7-2.2
		c1-1,1.8-2.2,2.4-3.7l6.4,1.8c-0.7,2.2-1.8,4.1-3.4,5.7s-3.6,2.9-5.9,3.8C389.2,74.4,386.6,74.8,383.7,74.8z"/>
	<path d="M404.3,86.3V67.8h3.6c0.9-0.9,1.6-1.9,2.3-3c0.6-1.1,1.2-2.3,1.7-3.8s0.9-3.3,1.2-5.4c0.3-2.1,0.6-4.7,0.9-7.7l1.5-17.1
		h27.4v36.9h6.6v18.5h-6.6V73.9H411v12.3L404.3,86.3L404.3,86.3z M415.4,67.8h20.8V37h-14.6l-1.1,10.9c-0.5,4.5-1,8.4-1.7,11.8
		C418,63.1,416.9,65.8,415.4,67.8z"/>
	<path d="M462.1,64.2l20.8-33.3h7.6V74h-6.6V40.6l-20.6,33.3h-7.7V30.8h6.6L462.1,64.2L462.1,64.2z"/>
	<path d="M533.8,30.8v36.9h6.1v20.1h-6.6V73.9H500V30.8h6.6v36.9h20.6V30.8H533.8z"/>
	<path d="M554,64.2l20.8-33.3h7.6V74h-6.6V40.6l-20.6,33.3h-7.7V30.8h6.6L554,64.2L554,64.2z"/>
	<path d="M598.5,30.8v43.1h-6.6V30.8H598.5z M620.7,49.4v6.2h-23.8v-6.2H620.7z M625.7,30.8v43.1h-6.6V30.8H625.7z"/>
	<path d="M647.9,74.9c-2.7,0-5.2-0.5-7.4-1.6c-2.2-1-4-2.5-5.3-4.5s-2-4.4-2-7.2c0-2.5,0.5-4.5,1.5-6s2.3-2.8,3.9-3.6
		c1.6-0.9,3.4-1.5,5.4-2c2-0.4,4-0.8,6-1.1c2.6-0.3,4.7-0.6,6.4-0.8c1.6-0.2,2.8-0.5,3.6-0.9s1.1-1.2,1.1-2.2v-0.2
		c0-2.8-0.8-4.9-2.3-6.5c-1.5-1.5-3.8-2.3-6.8-2.3c-3.2,0-5.6,0.7-7.4,2.1c-1.8,1.4-3.1,2.9-3.8,4.4l-6.3-2.2
		c1.1-2.6,2.6-4.7,4.5-6.1c1.9-1.5,3.9-2.5,6.2-3.1c2.2-0.6,4.4-0.9,6.6-0.9c1.4,0,3,0.2,4.8,0.5s3.6,1,5.2,2c1.7,1,3.1,2.5,4.2,4.6
		c1.1,2,1.7,4.8,1.7,8.2v28.4H661v-5.8h-0.3c-0.4,0.9-1.2,1.9-2.2,3s-2.4,2-4.2,2.7C652.5,74.6,650.4,74.9,647.9,74.9z M648.9,69
		c2.6,0,4.8-0.5,6.6-1.5s3.2-2.4,4.1-4c0.9-1.6,1.4-3.3,1.4-5.1v-6.1c-0.3,0.3-0.9,0.6-1.8,0.9c-0.9,0.3-2,0.5-3.3,0.7
		s-2.4,0.4-3.6,0.5s-2.1,0.3-2.8,0.4c-1.7,0.2-3.3,0.6-4.8,1.1s-2.7,1.2-3.6,2.2c-0.9,1-1.4,2.3-1.4,4c0,2.3,0.9,4,2.6,5.2
		C644,68.4,646.2,69,648.9,69z"/>
	<path d="M692,86.3V67.8h3.6c0.9-0.9,1.6-1.9,2.3-3c0.6-1.1,1.2-2.3,1.7-3.8s0.9-3.3,1.2-5.4c0.3-2.1,0.6-4.7,0.9-7.7l1.5-17.1h27.4
		v36.9h6.6v18.5h-6.6V73.9h-31.9v12.3L692,86.3L692,86.3z M703.1,67.8h20.8V37h-14.6l-1.1,10.9c-0.5,4.5-1,8.4-1.7,11.8
		C705.7,63.1,704.6,65.8,703.1,67.8z"/>
	<path d="M739.3,73.9v-6.2h1.6c1.3,0,2.4-0.3,3.2-0.8c0.9-0.5,1.6-1.4,2.1-2.7c0.5-1.3,0.9-3.1,1.2-5.4c0.3-2.3,0.5-5.3,0.6-8.9
		l0.8-19.1h28.7v43.1H771V37h-15.8l-0.7,15.4c-0.2,3.5-0.5,6.6-0.9,9.3c-0.5,2.7-1.2,4.9-2.2,6.7s-2.2,3.2-3.8,4.1s-3.6,1.4-6,1.4
		H739.3z"/>
	<path d="M784.2,73.9l12.2-21.4h7.2l-12.2,21.4H784.2z M812.9,73.9v-37h-11.4c-2.6,0-4.6,0.6-6.1,1.8s-2.2,2.8-2.2,4.9
		c0,2.1,0.7,3.7,2,4.9s3.2,1.8,5.5,1.8h13.9v6.2h-13.9c-2.9,0-5.4-0.5-7.5-1.5s-3.7-2.5-4.9-4.4c-1.1-1.9-1.7-4.2-1.7-6.8
		c0-2.7,0.6-4.9,1.8-6.8c1.2-1.9,2.9-3.4,5.1-4.4c2.2-1,4.9-1.5,8-1.5h17.7v43.1h-6.3L812.9,73.9L812.9,73.9z"/>
</g>
<rect class="st0" width="274" height="91.3"/>
<rect y="91.3" class="st1" width="274" height="91.3"/>
<g>
	<path d="M303.3,166.8v-10h3.2c1.6,0,2.8-0.2,3.8-0.6c1-0.4,1.7-1,2.3-1.7c0.6-0.8,1.1-1.7,1.5-2.9l0.7-1.9l-21.1-41.9h12.7
		l13.7,28.6l11.4-28.6H344l-20,46.8c-1,2.2-2.1,4.2-3.4,6c-1.3,1.9-3,3.4-5,4.5s-4.7,1.7-7.8,1.7H303.3z"/>
	<path d="M344.6,166v-43.6h12.1v16.9h3.4l11.9-16.9h14.2L370.8,144l15.6,22H372l-10.8-15.5h-4.5V166H344.6z"/>
	<path d="M388.7,182.3v-60h11.9v7.3h0.5c0.5-1.2,1.3-2.4,2.3-3.6s2.3-2.2,4-3.1s3.7-1.2,6.1-1.2c3.2,0,6.1,0.8,8.8,2.5
		c2.7,1.7,4.8,4.1,6.4,7.5c1.6,3.3,2.4,7.5,2.4,12.5c0,4.9-0.8,9-2.3,12.3s-3.7,5.9-6.4,7.6c-2.7,1.7-5.7,2.6-9,2.6
		c-2.3,0-4.3-0.4-6-1.2c-1.6-0.8-3-1.8-4-2.9c-1-1.2-1.8-2.4-2.4-3.6h-0.4v23.4h-11.9V182.3z M400.6,144.2c0,2.6,0.4,4.9,1.1,6.8
		c0.7,1.9,1.8,3.4,3.1,4.5c1.4,1.1,3,1.6,5,1.6s3.6-0.5,5-1.6s2.4-2.6,3.1-4.5s1.1-4.2,1.1-6.7s-0.4-4.7-1.1-6.6
		c-0.7-1.9-1.7-3.4-3.1-4.5s-3-1.6-5-1.6s-3.6,0.5-5,1.6c-1.4,1-2.4,2.5-3.1,4.4C400.9,139.3,400.6,141.6,400.6,144.2z"/>
	<path d="M449,166.8c-2.8,0-5.3-0.5-7.4-1.5c-2.2-1-3.9-2.4-5.2-4.3c-1.3-1.9-1.9-4.3-1.9-7.2c0-2.4,0.4-4.5,1.3-6.1s2.1-3,3.6-4
		s3.3-1.8,5.2-2.3c2-0.5,4-0.9,6.2-1.1c2.5-0.3,4.6-0.5,6.1-0.8c1.6-0.2,2.7-0.6,3.4-1.1c0.7-0.5,1.1-1.2,1.1-2.1v-0.2
		c0-1.8-0.6-3.2-1.7-4.2s-2.7-1.5-4.8-1.5c-2.2,0-3.9,0.5-5.2,1.4c-1.3,1-2.1,2.2-2.6,3.6l-11.2-0.9c0.6-2.7,1.7-4.9,3.4-6.9
		c1.7-1.9,3.8-3.4,6.5-4.5c2.6-1.1,5.7-1.6,9.2-1.6c2.4,0,4.7,0.3,7,0.9c2.2,0.6,4.2,1.4,5.9,2.6c1.7,1.2,3.1,2.7,4.1,4.6
		c1,1.9,1.5,4.1,1.5,6.7V166H462v-6.1h-0.3c-0.7,1.4-1.6,2.6-2.8,3.6s-2.6,1.8-4.2,2.4C453.1,166.5,451.2,166.8,449,166.8z
		 M452.5,158.4c1.8,0,3.4-0.4,4.7-1.1c1.4-0.7,2.4-1.7,3.2-2.9s1.2-2.6,1.2-4.1v-4.6c-0.4,0.2-0.9,0.5-1.5,0.7s-1.4,0.4-2.2,0.5
		c-0.8,0.2-1.6,0.3-2.4,0.4c-0.8,0.1-1.6,0.2-2.2,0.3c-1.4,0.2-2.7,0.5-3.7,1c-1.1,0.5-1.9,1.1-2.5,1.8c-0.6,0.8-0.9,1.7-0.9,2.9
		c0,1.6,0.6,2.9,1.8,3.8C449.1,158,450.6,158.4,452.5,158.4z"/>
	<path d="M477.7,116.4c-1.6,0-3-0.6-4.2-1.7s-1.8-2.5-1.8-4.1s0.6-3,1.8-4.1c1.2-1.1,2.6-1.7,4.2-1.7s3,0.6,4.2,1.7
		c1.1,1.1,1.7,2.5,1.7,4.1s-0.6,2.9-1.7,4.1S479.4,116.4,477.7,116.4z M480.3,166v-43.6h12.1V166H480.3z M495.1,116.4
		c-1.6,0-3-0.6-4.2-1.7s-1.8-2.5-1.8-4.1s0.6-3,1.8-4.1c1.2-1.1,2.6-1.7,4.2-1.7s3,0.6,4.2,1.7c1.1,1.1,1.7,2.5,1.7,4.1
		s-0.6,2.9-1.7,4.1S496.7,116.4,495.1,116.4z"/>
	<path d="M510.9,122.3V166h-11.6v-43.6L510.9,122.3L510.9,122.3z M529.7,139.3v9.5h-22.8v-9.5H529.7z M537.3,122.3V166h-11.5v-43.6
		L537.3,122.3L537.3,122.3z"/>
	<path d="M555.5,150l15.7-27.7h11.9V166h-11.5v-27.8L556,166h-12v-43.6h11.6L555.5,150L555.5,150z"/>
</g>
</svg>
