<?xml version="1.0" encoding="utf-8"?>

<svg version="1.1" id="Layer_1" xmlns="http://www.w3.org/2000/svg" xmlns:xlink="http://www.w3.org/1999/xlink" x="0px" y="0px"
	 viewBox="0 0 827.6 182.6" style="enable-background:new 0 0 827.6 182.6;" xml:space="preserve">

	<style type="text/css">
		.background {
			fill: #222831;
		}

		.blue {
			fill: #005BBB;
		}
		
		.yellow{
			fill: #FFD500;
		}

		#top-en, #bottom-en {
			fill: #FFF;
			animation: letters-en 20s ease-out infinite;
		}

		#top-ua, #bottom-ua {
			fill: #FFF;
			animation: letters-ua 20s ease-out infinite;
		}

		@keyframes letters-en {
			0% {
				transform: translate(0, 0);
			}

			40% {
				transform: translate(0, 0);
			}

			45% {
				transform: translate(0, 120px);
			}

			95% {
				transform: translate(0, 120px);
			}

			100% {
				transform: translate(0, 0);
			}
		}

		@keyframes letters-ua {
			0% {
				transform: translate(0, 120px);
			}

			40% {
				transform: translate(0, 120px);
			}

			45% {
				transform: translate(0, 0);
			}

			95% {
				transform: translate(0, 0);
			}

			100% {
				transform: translate(0, 120px);
			}
		}
	</style>

	<g id="top-en">
		<path d="M296.6,18.4h7.9L323,63.7h0.6l18.5-45.3h7.9v54.5h-6.2V31.5h-0.5l-17,41.4h-6l-17-41.4h-0.5v41.4h-6.2L296.6,18.4
			L296.6,18.4z"/>
		<path d="M360.3,72.9V18.4h32.9v5.9h-26.3v18.4h24.6v5.9h-24.6V67h26.7v5.9H360.3z"/>
		<path d="M419,72.9h-16.8V18.4h17.6c5.3,0,9.8,1.1,13.6,3.3c3.8,2.2,6.6,5.3,8.7,9.3c2,4.1,3,8.9,3,14.6s-1,10.6-3,14.7
			s-5,7.2-8.8,9.4C429.3,71.8,424.5,72.9,419,72.9z M408.8,67h9.8c4.5,0,8.2-0.9,11.2-2.6c3-1.7,5.2-4.2,6.6-7.4
			c1.5-3.2,2.2-7,2.2-11.5c0-4.4-0.7-8.2-2.2-11.4c-1.4-3.2-3.6-5.6-6.4-7.4c-2.9-1.7-6.4-2.6-10.7-2.6h-10.5V67z"/>
		<path d="M459.7,18.4v54.5h-6.6V18.4H459.7z"/>
		<path d="M513.8,35.4h-6.6c-0.4-1.9-1.1-3.6-2-5c-1-1.4-2.1-2.6-3.5-3.6s-2.9-1.7-4.6-2.2s-3.4-0.7-5.2-0.7c-3.3,0-6.3,0.8-9,2.5
			s-4.8,4.1-6.4,7.4c-1.6,3.2-2.4,7.2-2.4,12c0,4.7,0.8,8.7,2.4,12c1.6,3.2,3.7,5.7,6.4,7.4c2.7,1.7,5.7,2.5,9,2.5
			c1.8,0,3.6-0.2,5.2-0.7c1.7-0.5,3.2-1.2,4.6-2.2s2.5-2.2,3.5-3.6c1-1.4,1.6-3.1,2-5h6.6c-0.5,2.8-1.4,5.3-2.7,7.5
			c-1.3,2.2-2.9,4.1-4.9,5.6s-4.1,2.7-6.6,3.5c-2.4,0.8-5,1.2-7.8,1.2c-4.7,0-8.8-1.1-12.4-3.4s-6.5-5.5-8.5-9.7
			c-2.1-4.2-3.1-9.2-3.1-14.9c0-5.8,1-10.7,3.1-14.9s4.9-7.4,8.5-9.7s7.8-3.4,12.4-3.4c2.8,0,5.3,0.4,7.8,1.2c2.4,0.8,4.6,2,6.6,3.5
			s3.6,3.4,4.9,5.6C512.4,30.1,513.3,32.6,513.8,35.4z"/>
		<path d="M528,18.4v54.5h-6.6V18.4H528z"/>
		<path d="M581.5,18.4v54.5h-6.4l-29.7-42.8h-0.5v42.8h-6.6V18.4h6.4l29.8,42.9h0.5V18.4H581.5z"/>
		<path d="M591.7,72.9V18.4h32.9v5.9h-26.3v18.4h24.6v5.9h-24.6V67H625v5.9H591.7z"/>
		<path d="M651.7,72.9V18.4h32.7v5.9h-26.1v18.4H682v5.9h-23.7V73L651.7,72.9L651.7,72.9z"/>
		<path d="M738.7,45.6c0,5.8-1,10.7-3.1,14.9s-4.9,7.4-8.5,9.7c-3.6,2.3-7.8,3.4-12.4,3.4c-4.7,0-8.8-1.1-12.4-3.4
			c-3.6-2.3-6.5-5.5-8.5-9.7c-2.1-4.2-3.1-9.2-3.1-14.9c0-5.8,1-10.7,3.1-14.9s4.9-7.4,8.5-9.7s7.8-3.4,12.4-3.4
			c4.7,0,8.8,1.1,12.4,3.4c3.6,2.3,6.5,5.5,8.5,9.7S738.7,39.9,738.7,45.6z M732.3,45.6c0-4.7-0.8-8.7-2.4-12
			c-1.6-3.2-3.7-5.7-6.4-7.4c-2.7-1.7-5.7-2.5-9-2.5s-6.3,0.8-9,2.5s-4.8,4.1-6.4,7.4c-1.6,3.2-2.4,7.2-2.4,12c0,4.7,0.8,8.7,2.4,12
			c1.6,3.2,3.7,5.7,6.4,7.4c2.7,1.7,5.7,2.5,9,2.5s6.3-0.8,9-2.5c2.7-1.7,4.8-4.1,6.4-7.4C731.5,54.3,732.3,50.3,732.3,45.6z"/>
		<path d="M746.8,72.9V18.4h18.4c4.3,0,7.8,0.7,10.5,2.2c2.7,1.4,4.8,3.4,6.1,6c1.3,2.5,2,5.4,2,8.6s-0.7,6.1-2,8.5
			c-1.3,2.5-3.3,4.4-6,5.8s-6.2,2.1-10.4,2.1h-14.9v-6h14.7c2.9,0,5.3-0.4,7-1.3c1.8-0.9,3.1-2.1,3.9-3.6c0.8-1.6,1.2-3.4,1.2-5.6
			c0-2.2-0.4-4.1-1.2-5.7s-2.1-2.9-3.9-3.8c-1.8-0.9-4.2-1.3-7.1-1.3h-11.6V73L746.8,72.9L746.8,72.9z M772.4,48.4l13.4,24.5h-7.7
			L765,48.4H772.4z"/>
	</g>
	<g id="top-ua">
		<path d="M295.9,16.5h8.3l19.5,47.7h0.7L344,16.5h8.3V74h-6.5V30.3h-0.6l-18,43.7h-6.3l-18-43.7h-0.6V74h-6.5V16.5H295.9z"/>
		<path d="M380.7,74.8c-4.2,0-7.7-0.9-10.7-2.8c-3-1.8-5.3-4.4-6.9-7.7c-1.6-3.3-2.4-7.2-2.4-11.6s0.8-8.3,2.4-11.7s3.9-6,6.8-7.9
			c2.9-1.9,6.3-2.8,10.2-2.8c2.2,0,4.5,0.4,6.6,1.1c2.2,0.7,4.2,2,6,3.6c1.8,1.7,3.2,3.9,4.3,6.6c1.1,2.7,1.6,6.1,1.6,10.2v2.8h-33.2
			v-5.7h26.5c0-2.4-0.5-4.6-1.4-6.5c-1-1.9-2.3-3.4-4.1-4.5c-1.8-1.1-3.8-1.7-6.2-1.7c-2.6,0-4.9,0.6-6.8,1.9c-1.9,1.3-3.4,3-4.4,5.1
			s-1.5,4.3-1.5,6.7v3.8c0,3.3,0.6,6,1.7,8.3c1.1,2.3,2.7,4,4.7,5.1c2,1.2,4.4,1.8,7,1.8c1.7,0,3.3-0.2,4.7-0.7s2.6-1.2,3.7-2.2
			c1-1,1.8-2.2,2.4-3.7l6.4,1.8c-0.7,2.2-1.8,4.1-3.4,5.7s-3.6,2.9-5.9,3.8C386.2,74.4,383.6,74.8,380.7,74.8z"/>
		<path d="M401.3,86.3V67.8h3.6c0.9-0.9,1.6-1.9,2.3-3c0.6-1.1,1.2-2.3,1.7-3.8s0.9-3.3,1.2-5.4c0.3-2.1,0.6-4.7,0.9-7.7l1.5-17.1
			h27.4v36.9h6.6v18.5h-6.6V73.9H408v12.3L401.3,86.3L401.3,86.3z M412.4,67.8h20.8V37h-14.6l-1.1,10.9c-0.5,4.5-1,8.4-1.7,11.8
			C415,63.1,413.9,65.8,412.4,67.8z"/>
		<path d="M459.1,64.2l20.8-33.3h7.6V74h-6.6V40.6l-20.6,33.3h-7.7V30.8h6.6L459.1,64.2L459.1,64.2z"/>
		<path d="M530.8,30.8v36.9h6.1v20.1h-6.6V73.9H497V30.8h6.6v36.9h20.6V30.8H530.8z"/>
		<path d="M551,64.2l20.8-33.3h7.6V74h-6.6V40.6l-20.6,33.3h-7.7V30.8h6.6L551,64.2L551,64.2z"/>
		<path d="M595.5,30.8v43.1h-6.6V30.8H595.5z M617.7,49.4v6.2h-23.8v-6.2H617.7z M622.7,30.8v43.1h-6.6V30.8H622.7z"/>
		<path d="M644.9,74.9c-2.7,0-5.2-0.5-7.4-1.6c-2.2-1-4-2.5-5.3-4.5s-2-4.4-2-7.2c0-2.5,0.5-4.5,1.5-6s2.3-2.8,3.9-3.6
			c1.6-0.9,3.4-1.5,5.4-2c2-0.4,4-0.8,6-1.1c2.6-0.3,4.7-0.6,6.4-0.8c1.6-0.2,2.8-0.5,3.6-0.9s1.1-1.2,1.1-2.2v-0.2
			c0-2.8-0.8-4.9-2.3-6.5c-1.5-1.5-3.8-2.3-6.8-2.3c-3.2,0-5.6,0.7-7.4,2.1c-1.8,1.4-3.1,2.9-3.8,4.4l-6.3-2.2
			c1.1-2.6,2.6-4.7,4.5-6.1c1.9-1.5,3.9-2.5,6.2-3.1c2.2-0.6,4.4-0.9,6.6-0.9c1.4,0,3,0.2,4.8,0.5s3.6,1,5.2,2c1.7,1,3.1,2.5,4.2,4.6
			c1.1,2,1.7,4.8,1.7,8.2v28.4H658v-5.8h-0.3c-0.4,0.9-1.2,1.9-2.2,3s-2.4,2-4.2,2.7C649.5,74.6,647.4,74.9,644.9,74.9z M645.9,69
			c2.6,0,4.8-0.5,6.6-1.5s3.2-2.4,4.1-4c0.9-1.6,1.4-3.3,1.4-5.1v-6.1c-0.3,0.3-0.9,0.6-1.8,0.9c-0.9,0.3-2,0.5-3.3,0.7
			s-2.4,0.4-3.6,0.5s-2.1,0.3-2.8,0.4c-1.7,0.2-3.3,0.6-4.8,1.1s-2.7,1.2-3.6,2.2c-0.9,1-1.4,2.3-1.4,4c0,2.3,0.9,4,2.6,5.2
			C641,68.4,643.2,69,645.9,69z"/>
		<path d="M689,86.3V67.8h3.6c0.9-0.9,1.6-1.9,2.3-3c0.6-1.1,1.2-2.3,1.7-3.8s0.9-3.3,1.2-5.4c0.3-2.1,0.6-4.7,0.9-7.7l1.5-17.1h27.4
			v36.9h6.6v18.5h-6.6V73.9h-31.9v12.3L689,86.3L689,86.3z M700.1,67.8h20.8V37h-14.6l-1.1,10.9c-0.5,4.5-1,8.4-1.7,11.8
			C702.7,63.1,701.6,65.8,700.1,67.8z"/>
		<path d="M736.3,73.9v-6.2h1.6c1.3,0,2.4-0.3,3.2-0.8c0.9-0.5,1.6-1.4,2.1-2.7c0.5-1.3,0.9-3.1,1.2-5.4c0.3-2.3,0.5-5.3,0.6-8.9
			l0.8-19.1h28.7v43.1H768V37h-15.8l-0.7,15.4c-0.2,3.5-0.5,6.6-0.9,9.3c-0.5,2.7-1.2,4.9-2.2,6.7s-2.2,3.2-3.8,4.1s-3.6,1.4-6,1.4
			H736.3z"/>
		<path d="M781.2,73.9l12.2-21.4h7.2l-12.2,21.4H781.2z M809.9,73.9v-37h-11.4c-2.6,0-4.6,0.6-6.1,1.8s-2.2,2.8-2.2,4.9
			c0,2.1,0.7,3.7,2,4.9s3.2,1.8,5.5,1.8h13.9v6.2h-13.9c-2.9,0-5.4-0.5-7.5-1.5s-3.7-2.5-4.9-4.4c-1.1-1.9-1.7-4.2-1.7-6.8
			c0-2.7,0.6-4.9,1.8-6.8c1.2-1.9,2.9-3.4,5.1-4.4c2.2-1,4.9-1.5,8-1.5h17.7v43.1h-6.3V73.9z"/>
	</g>

	<rect x="283.6" y="91.3" class="background" width="544" height="91.3"/>
	<rect class="blue" width="274" height="91.3" />
	<rect id="yellow" y="91.3" class="yellow" width="274" height="91.3" />
	
	<g id="bottom-en">
		<path d="M328.5,109.5H340v35.4c0,4-0.9,7.5-2.8,10.4c-1.9,3-4.5,5.3-7.9,7s-7.3,2.5-11.9,2.5c-4.5,0-8.5-0.8-11.9-2.5s-6-4-7.9-7
			s-2.8-6.5-2.8-10.4v-35.4h11.5v34.4c0,2.1,0.5,3.9,1.4,5.5s2.2,2.9,3.9,3.8c1.7,0.9,3.6,1.4,5.8,1.4c2.2,0,4.2-0.5,5.8-1.4
			c1.7-0.9,2.9-2.2,3.9-3.8c0.9-1.6,1.4-3.5,1.4-5.5V109.5z"/>
		<path d="M346.5,164.1v-54.5H358v24h0.7l19.6-24h13.8L371.9,134l20.5,30.1h-13.8l-14.9-22.4l-5.7,6.9v15.5H346.5z"/>
		<path d="M395.2,164.1v-54.5h21.5c4.1,0,7.6,0.7,10.6,2.2c2.9,1.5,5.1,3.5,6.7,6.2c1.5,2.7,2.3,5.8,2.3,9.4s-0.8,6.7-2.3,9.3
			c-1.6,2.6-3.8,4.6-6.8,6s-6.5,2.1-10.7,2.1H402v-9.3h12.5c2.2,0,4-0.3,5.5-0.9s2.5-1.5,3.3-2.7c0.7-1.2,1.1-2.7,1.1-4.5
			s-0.4-3.3-1.1-4.6c-0.7-1.2-1.8-2.2-3.3-2.8s-3.3-1-5.5-1h-7.8v45.1H395.2z M424.7,139.2l13.6,24.8h-12.7l-13.3-24.8H424.7z"/>
		<path d="M450.8,164.1h-12.4l18.8-54.5h14.9l18.8,54.5h-12.4L464.9,122h-0.4L450.8,164.1z M450,142.6h29.2v9H450V142.6z"/>
		<path d="M506,109.5V164h-11.5v-54.5H506z"/>
		<path d="M558.2,109.5V164h-10l-23.7-34.3h-0.4V164h-11.5v-54.5h10.1l23.5,34.3h0.5v-34.3H558.2z"/>
		<path d="M564.7,164.1v-54.5h36.8v9.5h-25.2v13h23.3v9.5h-23.3v13h25.3v9.5H564.7z"/>
	</g>
	<g id="bottom-ua">
		<path d="M300.3,166.8v-10h3.2c1.6,0,2.8-0.2,3.8-0.6c1-0.4,1.7-1,2.3-1.7c0.6-0.8,1.1-1.7,1.5-2.9l0.7-1.9l-21.1-41.9h12.7
			l13.7,28.6l11.4-28.6H341l-20,46.8c-1,2.2-2.1,4.2-3.4,6c-1.3,1.9-3,3.4-5,4.5s-4.7,1.7-7.8,1.7H300.3z"/>
		<path d="M341.6,166v-43.6h12.1v16.9h3.4l11.9-16.9h14.2L367.8,144l15.6,22H369l-10.8-15.5h-4.5V166H341.6z"/>
		<path d="M385.7,182.3v-60h11.9v7.3h0.5c0.5-1.2,1.3-2.4,2.3-3.6s2.3-2.2,4-3.1s3.7-1.2,6.1-1.2c3.2,0,6.1,0.8,8.8,2.5
			c2.7,1.7,4.8,4.1,6.4,7.5c1.6,3.3,2.4,7.5,2.4,12.5c0,4.9-0.8,9-2.3,12.3s-3.7,5.9-6.4,7.6c-2.7,1.7-5.7,2.6-9,2.6
			c-2.3,0-4.3-0.4-6-1.2c-1.6-0.8-3-1.8-4-2.9c-1-1.2-1.8-2.4-2.4-3.6h-0.4v23.4h-11.9V182.3z M397.6,144.2c0,2.6,0.4,4.9,1.1,6.8
			c0.7,1.9,1.8,3.4,3.1,4.5c1.4,1.1,3,1.6,5,1.6s3.6-0.5,5-1.6s2.4-2.6,3.1-4.5s1.1-4.2,1.1-6.7s-0.4-4.7-1.1-6.6
			c-0.7-1.9-1.7-3.4-3.1-4.5s-3-1.6-5-1.6s-3.6,0.5-5,1.6c-1.4,1-2.4,2.5-3.1,4.4C397.9,139.3,397.6,141.6,397.6,144.2z"/>
		<path d="M446,166.8c-2.8,0-5.3-0.5-7.4-1.5c-2.2-1-3.9-2.4-5.2-4.3c-1.3-1.9-1.9-4.3-1.9-7.2c0-2.4,0.4-4.5,1.3-6.1s2.1-3,3.6-4
			s3.3-1.8,5.2-2.3c2-0.5,4-0.9,6.2-1.1c2.5-0.3,4.6-0.5,6.1-0.8c1.6-0.2,2.7-0.6,3.4-1.1c0.7-0.5,1.1-1.2,1.1-2.1v-0.2
			c0-1.8-0.6-3.2-1.7-4.2s-2.7-1.5-4.8-1.5c-2.2,0-3.9,0.5-5.2,1.4c-1.3,1-2.1,2.2-2.6,3.6l-11.2-0.9c0.6-2.7,1.7-4.9,3.4-6.9
			c1.7-1.9,3.8-3.4,6.5-4.5c2.6-1.1,5.7-1.6,9.2-1.6c2.4,0,4.7,0.3,7,0.9c2.2,0.6,4.2,1.4,5.9,2.6c1.7,1.2,3.1,2.7,4.1,4.6
			c1,1.9,1.5,4.1,1.5,6.7V166H459v-6.1h-0.3c-0.7,1.4-1.6,2.6-2.8,3.6s-2.6,1.8-4.2,2.4C450.1,166.5,448.2,166.8,446,166.8z
			M449.5,158.4c1.8,0,3.4-0.4,4.7-1.1c1.4-0.7,2.4-1.7,3.2-2.9s1.2-2.6,1.2-4.1v-4.6c-0.4,0.2-0.9,0.5-1.5,0.7s-1.4,0.4-2.2,0.5
			c-0.8,0.2-1.6,0.3-2.4,0.4c-0.8,0.1-1.6,0.2-2.2,0.3c-1.4,0.2-2.7,0.5-3.7,1c-1.1,0.5-1.9,1.1-2.5,1.8c-0.6,0.8-0.9,1.7-0.9,2.9
			c0,1.6,0.6,2.9,1.8,3.8C446.1,158,447.6,158.4,449.5,158.4z"/>
		<path d="M474.7,116.4c-1.6,0-3-0.6-4.2-1.7s-1.8-2.5-1.8-4.1s0.6-3,1.8-4.1c1.2-1.1,2.6-1.7,4.2-1.7s3,0.6,4.2,1.7
			c1.1,1.1,1.7,2.5,1.7,4.1s-0.6,2.9-1.7,4.1S476.4,116.4,474.7,116.4z M477.3,166v-43.6h12.1V166H477.3z M492.1,116.4
			c-1.6,0-3-0.6-4.2-1.7s-1.8-2.5-1.8-4.1s0.6-3,1.8-4.1c1.2-1.1,2.6-1.7,4.2-1.7s3,0.6,4.2,1.7c1.1,1.1,1.7,2.5,1.7,4.1
			s-0.6,2.9-1.7,4.1S493.7,116.4,492.1,116.4z"/>
		<path d="M507.9,122.3V166h-11.6v-43.6L507.9,122.3L507.9,122.3z M526.7,139.3v9.5h-22.8v-9.5H526.7z M534.3,122.3V166h-11.5v-43.6
			L534.3,122.3L534.3,122.3z"/>
		<path d="M552.5,150l15.7-27.7h11.9V166h-11.5v-27.8L553,166h-12v-43.6h11.6L552.5,150L552.5,150z"/>
	</g>
</svg>
