<?xml version="1.0" encoding="utf-8"?>
<!-- Generator: Adobe Illustrator 24.0.0, SVG Export Plug-In . SVG Version: 6.00 Build 0)  -->
<svg version="1.1" id="Layer_1" xmlns="http://www.w3.org/2000/svg" xmlns:xlink="http://www.w3.org/1999/xlink" x="0px" y="0px"
	 viewBox="0 0 1080 1920" style="enable-background:new 0 0 1080 1920;" xml:space="preserve">
<style type="text/css">
	.st0{fill:#222831;}
	.st1{fill:#005BBB;}
	.st2{fill:#FFD500;}
	.st3{fill:#FFFFFF;}
	.st4{fill:#D3D4D6;}
</style>
<rect class="st0" width="1080" height="1920"/>
<rect class="st1" width="1080" height="10"/>
<g>
	<rect x="130.4" y="230.7" class="st2" width="274" height="91.3"/>
	<rect x="130.4" y="139.4" class="st1" width="274" height="91.3"/>
	<g>
		<path class="st3" d="M427,157.8h7.9l18.5,45.3h0.6l18.5-45.3h7.9v54.5h-6.2v-41.4h-0.5l-17,41.4h-6l-17-41.4h-0.5v41.4h-6.2
			L427,157.8L427,157.8z"/>
		<path class="st3" d="M490.6,212.3v-54.5h32.9v5.9h-26.3v18.4h24.6v5.9h-24.6v18.4H524v5.9H490.6z"/>
		<path class="st3" d="M549.3,212.3h-16.8v-54.5h17.6c5.3,0,9.8,1.1,13.6,3.3c3.8,2.2,6.6,5.3,8.7,9.3c2,4.1,3,8.9,3,14.6
			s-1,10.6-3,14.7s-5,7.2-8.8,9.4C559.7,211.2,554.8,212.3,549.3,212.3z M539.2,206.4h9.8c4.5,0,8.2-0.9,11.2-2.6s5.2-4.2,6.6-7.4
			c1.5-3.2,2.2-7,2.2-11.5c0-4.4-0.7-8.2-2.2-11.4c-1.4-3.2-3.6-5.6-6.4-7.4c-2.9-1.7-6.4-2.6-10.7-2.6h-10.5V206.4z"/>
		<path class="st3" d="M590.1,157.8v54.5h-6.6v-54.5H590.1z"/>
		<path class="st3" d="M644.2,174.8h-6.6c-0.4-1.9-1.1-3.6-2-5c-1-1.4-2.1-2.6-3.5-3.6s-2.9-1.7-4.6-2.2c-1.7-0.5-3.4-0.7-5.2-0.7
			c-3.3,0-6.3,0.8-9,2.5c-2.7,1.7-4.8,4.1-6.4,7.4c-1.6,3.2-2.4,7.2-2.4,12c0,4.7,0.8,8.7,2.4,12c1.6,3.2,3.7,5.7,6.4,7.4
			c2.7,1.7,5.7,2.5,9,2.5c1.8,0,3.6-0.2,5.2-0.7c1.7-0.5,3.2-1.2,4.6-2.2s2.5-2.2,3.5-3.6c1-1.4,1.6-3.1,2-5h6.6
			c-0.5,2.8-1.4,5.3-2.7,7.5c-1.3,2.2-2.9,4.1-4.9,5.6s-4.1,2.7-6.6,3.5c-2.4,0.8-5,1.2-7.8,1.2c-4.7,0-8.8-1.1-12.4-3.4
			s-6.5-5.5-8.5-9.7c-2.1-4.2-3.1-9.2-3.1-14.9c0-5.8,1-10.7,3.1-14.9s4.9-7.4,8.5-9.7s7.8-3.4,12.4-3.4c2.8,0,5.3,0.4,7.8,1.2
			c2.4,0.8,4.6,2,6.6,3.5s3.6,3.4,4.9,5.6C642.8,169.5,643.7,172,644.2,174.8z"/>
		<path class="st3" d="M658.3,157.8v54.5h-6.6v-54.5H658.3z"/>
		<path class="st3" d="M711.8,157.8v54.5h-6.4l-29.7-42.8h-0.5v42.8h-6.6v-54.5h6.4l29.8,42.9h0.5v-42.9H711.8z"/>
		<path class="st3" d="M722.1,212.3v-54.5H755v5.9h-26.3v18.4h24.6v5.9h-24.6v18.4h26.7v5.9H722.1z"/>
		<path class="st3" d="M782.1,212.3v-54.5h32.7v5.9h-26.1v18.4h23.7v5.9h-23.7v24.4L782.1,212.3L782.1,212.3z"/>
		<path class="st3" d="M869.1,185c0,5.8-1,10.7-3.1,14.9s-4.9,7.4-8.5,9.7c-3.6,2.3-7.8,3.4-12.4,3.4c-4.7,0-8.8-1.1-12.4-3.4
			s-6.5-5.5-8.5-9.7c-2.1-4.2-3.1-9.2-3.1-14.9c0-5.8,1-10.7,3.1-14.9c2.1-4.2,4.9-7.4,8.5-9.7c3.6-2.3,7.8-3.4,12.4-3.4
			c4.7,0,8.8,1.1,12.4,3.4c3.6,2.3,6.5,5.5,8.5,9.7C868,174.3,869.1,179.3,869.1,185z M862.7,185c0-4.7-0.8-8.7-2.4-12
			c-1.6-3.2-3.7-5.7-6.4-7.4c-2.7-1.7-5.7-2.5-9-2.5c-3.3,0-6.3,0.8-9,2.5c-2.7,1.7-4.8,4.1-6.4,7.4c-1.6,3.2-2.4,7.2-2.4,12
			c0,4.7,0.8,8.7,2.4,12c1.6,3.2,3.7,5.7,6.4,7.4c2.7,1.7,5.7,2.5,9,2.5c3.3,0,6.3-0.8,9-2.5c2.7-1.7,4.8-4.1,6.4-7.4
			C861.8,193.7,862.7,189.7,862.7,185z"/>
		<path class="st3" d="M877.2,212.3v-54.5h18.4c4.3,0,7.8,0.7,10.5,2.2c2.7,1.4,4.8,3.4,6.1,6c1.3,2.5,2,5.4,2,8.6
			c0,3.2-0.7,6.1-2,8.5c-1.3,2.5-3.3,4.4-6,5.8c-2.7,1.4-6.2,2.1-10.4,2.1h-14.9v-6h14.7c2.9,0,5.3-0.4,7-1.3
			c1.8-0.9,3.1-2.1,3.9-3.6c0.8-1.6,1.2-3.4,1.2-5.6s-0.4-4.1-1.2-5.7c-0.8-1.6-2.1-2.9-3.9-3.8c-1.8-0.9-4.2-1.3-7.1-1.3h-11.6
			v48.7L877.2,212.3L877.2,212.3z M902.8,187.8l13.4,24.5h-7.7l-13.1-24.5H902.8z"/>
	</g>
	<g>
		<path class="st3" d="M458.9,248.9h11.5v35.4c0,4-0.9,7.5-2.8,10.4c-1.9,3-4.5,5.3-7.9,7c-3.4,1.7-7.3,2.5-11.9,2.5
			c-4.5,0-8.5-0.8-11.9-2.5c-3.4-1.7-6-4-7.9-7s-2.8-6.5-2.8-10.4v-35.4h11.5v34.4c0,2.1,0.5,3.9,1.4,5.5s2.2,2.9,3.9,3.8
			c1.7,0.9,3.6,1.4,5.8,1.4c2.2,0,4.2-0.5,5.8-1.4c1.7-0.9,2.9-2.2,3.9-3.8c0.9-1.6,1.4-3.5,1.4-5.5V248.9z"/>
		<path class="st3" d="M476.9,303.5V249h11.5v24h0.7l19.6-24h13.8l-20.2,24.4l20.5,30.1H509l-14.9-22.4l-5.7,6.9v15.5H476.9z"/>
		<path class="st3" d="M525.6,303.5V249h21.5c4.1,0,7.6,0.7,10.6,2.2c2.9,1.5,5.1,3.5,6.7,6.2c1.5,2.7,2.3,5.8,2.3,9.4
			c0,3.6-0.8,6.7-2.3,9.3c-1.6,2.6-3.8,4.6-6.8,6s-6.5,2.1-10.7,2.1h-14.5v-9.3h12.5c2.2,0,4-0.3,5.5-0.9c1.5-0.6,2.5-1.5,3.3-2.7
			c0.7-1.2,1.1-2.7,1.1-4.5c0-1.8-0.4-3.3-1.1-4.6c-0.7-1.2-1.8-2.2-3.3-2.8s-3.3-1-5.5-1h-7.8v45.1H525.6z M555.1,278.6l13.6,24.8
			H556l-13.3-24.8H555.1z"/>
		<path class="st3" d="M581.2,303.5h-12.4l18.8-54.5h14.9l18.8,54.5h-12.4l-13.6-42.1h-0.4L581.2,303.5z M580.3,282h29.2v9h-29.2
			V282z"/>
		<path class="st3" d="M636.3,248.9v54.5h-11.5v-54.5H636.3z"/>
		<path class="st3" d="M688.6,248.9v54.5h-10l-23.7-34.3h-0.4v34.3h-11.5v-54.5H653l23.5,34.3h0.5v-34.3H688.6z"/>
		<path class="st3" d="M695.1,303.5V249h36.8v9.5h-25.2v13h23.3v9.5h-23.3v13h25.3v9.5H695.1z"/>
	</g>
	<g>
		<path class="st4" d="M429.4,341h8.3l19.5,47.7h0.7l19.6-47.7h8.3v57.5h-6.5v-43.7h-0.6l-18,43.7h-6.3l-18-43.7h-0.6v43.7h-6.5V341
			H429.4z"/>
		<path class="st4" d="M514.2,399.3c-4.2,0-7.7-0.9-10.7-2.8c-3-1.8-5.3-4.4-6.9-7.7c-1.6-3.3-2.4-7.2-2.4-11.6
			c0-4.4,0.8-8.3,2.4-11.7s3.9-6,6.8-7.9s6.3-2.8,10.2-2.8c2.2,0,4.5,0.4,6.6,1.1c2.2,0.7,4.2,2,6,3.6c1.8,1.7,3.2,3.9,4.3,6.6
			c1.1,2.7,1.6,6.1,1.6,10.2v2.8h-33.2v-5.7h26.5c0-2.4-0.5-4.6-1.4-6.5c-1-1.9-2.3-3.4-4.1-4.5s-3.8-1.7-6.2-1.7
			c-2.6,0-4.9,0.6-6.8,1.9c-1.9,1.3-3.4,3-4.4,5.1c-1,2.1-1.5,4.3-1.5,6.7v3.8c0,3.3,0.6,6,1.7,8.3c1.1,2.3,2.7,4,4.7,5.1
			c2,1.2,4.4,1.8,7,1.8c1.7,0,3.3-0.2,4.7-0.7s2.6-1.2,3.7-2.2c1-1,1.8-2.2,2.4-3.7l6.4,1.8c-0.7,2.2-1.8,4.1-3.4,5.7
			c-1.6,1.6-3.6,2.9-5.9,3.8C519.7,398.9,517.1,399.3,514.2,399.3z"/>
		<path class="st4" d="M534.8,410.8v-18.5h3.6c0.9-0.9,1.6-1.9,2.3-3c0.6-1.1,1.2-2.3,1.7-3.8s0.9-3.3,1.2-5.4
			c0.3-2.1,0.6-4.7,0.9-7.7l1.5-17.1h27.4v36.9h6.6v18.5h-6.6v-12.3h-31.9v12.3L534.8,410.8L534.8,410.8z M545.9,392.3h20.8v-30.8
			h-14.6l-1.1,10.9c-0.5,4.5-1,8.4-1.7,11.8C548.5,387.6,547.4,390.3,545.9,392.3z"/>
		<path class="st4" d="M592.6,388.7l20.8-33.3h7.6v43.1h-6.6v-33.4l-20.6,33.3h-7.7v-43.1h6.6L592.6,388.7L592.6,388.7z"/>
		<path class="st4" d="M664.2,355.3v36.9h6.1v20.1h-6.6v-13.9h-33.3v-43.1h6.6v36.9h20.6v-36.9H664.2z"/>
		<path class="st4" d="M684.5,388.7l20.8-33.3h7.6v43.1h-6.6v-33.4l-20.6,33.3H678v-43.1h6.6L684.5,388.7L684.5,388.7z"/>
		<path class="st4" d="M729,355.3v43.1h-6.6v-43.1H729z M751.2,373.9v6.2h-23.8v-6.2H751.2z M756.2,355.3v43.1h-6.6v-43.1H756.2z"/>
		<path class="st4" d="M778.4,399.4c-2.7,0-5.2-0.5-7.4-1.6c-2.2-1-4-2.5-5.3-4.5c-1.3-2-2-4.4-2-7.2c0-2.5,0.5-4.5,1.5-6
			s2.3-2.8,3.9-3.6c1.6-0.9,3.4-1.5,5.4-2c2-0.4,4-0.8,6-1.1c2.6-0.3,4.7-0.6,6.4-0.8c1.6-0.2,2.8-0.5,3.6-0.9
			c0.8-0.4,1.1-1.2,1.1-2.2v-0.2c0-2.8-0.8-4.9-2.3-6.5c-1.5-1.5-3.8-2.3-6.8-2.3c-3.2,0-5.6,0.7-7.4,2.1c-1.8,1.4-3.1,2.9-3.8,4.4
			l-6.3-2.2c1.1-2.6,2.6-4.7,4.5-6.1c1.9-1.5,3.9-2.5,6.2-3.1c2.2-0.6,4.4-0.9,6.6-0.9c1.4,0,3,0.2,4.8,0.5c1.8,0.3,3.6,1,5.2,2
			c1.7,1,3.1,2.5,4.2,4.6c1.1,2,1.7,4.8,1.7,8.2v28.4h-6.7v-5.8h-0.3c-0.4,0.9-1.2,1.9-2.2,3c-1,1.1-2.4,2-4.2,2.7
			C783,399.1,780.9,399.4,778.4,399.4z M779.4,393.5c2.6,0,4.8-0.5,6.6-1.5c1.8-1,3.2-2.4,4.1-4s1.4-3.3,1.4-5.1v-6.1
			c-0.3,0.3-0.9,0.6-1.8,0.9c-0.9,0.3-2,0.5-3.3,0.7c-1.3,0.2-2.4,0.4-3.6,0.5s-2.1,0.3-2.8,0.4c-1.7,0.2-3.3,0.6-4.8,1.1
			s-2.7,1.2-3.6,2.2c-0.9,1-1.4,2.3-1.4,4c0,2.3,0.9,4,2.6,5.2C774.5,392.9,776.7,393.5,779.4,393.5z"/>
		<path class="st4" d="M822.5,410.8v-18.5h3.6c0.9-0.9,1.6-1.9,2.3-3c0.6-1.1,1.2-2.3,1.7-3.8s0.9-3.3,1.2-5.4
			c0.3-2.1,0.6-4.7,0.9-7.7l1.5-17.1h27.4v36.9h6.6v18.5h-6.6v-12.3h-31.9v12.3L822.5,410.8L822.5,410.8z M833.6,392.3h20.8v-30.8
			h-14.6l-1.1,10.9c-0.5,4.5-1,8.4-1.7,11.8C836.2,387.6,835.1,390.3,833.6,392.3z"/>
		<path class="st4" d="M869.8,398.4v-6.2h1.6c1.3,0,2.4-0.3,3.2-0.8c0.9-0.5,1.6-1.4,2.1-2.7c0.5-1.3,0.9-3.1,1.2-5.4
			c0.3-2.3,0.5-5.3,0.6-8.9l0.8-19.1h28.7v43.1h-6.5v-36.9h-15.8l-0.7,15.4c-0.2,3.5-0.5,6.6-0.9,9.3c-0.5,2.7-1.2,4.9-2.2,6.7
			c-1,1.8-2.2,3.2-3.8,4.1s-3.6,1.4-6,1.4H869.8z"/>
		<path class="st4" d="M914.7,398.4l12.2-21.4h7.2l-12.2,21.4H914.7z M943.4,398.4v-37H932c-2.6,0-4.6,0.6-6.1,1.8
			c-1.5,1.2-2.2,2.8-2.2,4.9c0,2.1,0.7,3.7,2,4.9c1.3,1.2,3.2,1.8,5.5,1.8h13.9v6.2h-13.9c-2.9,0-5.4-0.5-7.5-1.5s-3.7-2.5-4.9-4.4
			c-1.1-1.9-1.7-4.2-1.7-6.8c0-2.7,0.6-4.9,1.8-6.8c1.2-1.9,2.9-3.4,5.1-4.4c2.2-1,4.9-1.5,8-1.5h17.7v43.1h-6.3L943.4,398.4
			L943.4,398.4z"/>
	</g>
	<g>
		<path class="st4" d="M433.8,490.9v-10h3.2c1.6,0,2.8-0.2,3.8-0.6s1.7-1,2.3-1.7c0.6-0.8,1.1-1.7,1.5-2.9l0.7-1.9l-21.1-41.9h12.7
			l13.7,28.6l11.4-28.6h12.5l-20,46.8c-1,2.2-2.1,4.2-3.4,6c-1.3,1.9-3,3.4-5,4.5s-4.7,1.7-7.8,1.7H433.8z"/>
		<path class="st4" d="M475.1,490.1v-43.6h12.1v16.9h3.4l11.9-16.9h14.2l-15.4,21.6l15.6,22h-14.4l-10.8-15.5h-4.5v15.5H475.1z"/>
		<path class="st4" d="M519.2,506.4v-60h11.9v7.3h0.5c0.5-1.2,1.3-2.4,2.3-3.6c1-1.2,2.3-2.2,4-3.1s3.7-1.2,6.1-1.2
			c3.2,0,6.1,0.8,8.8,2.5c2.7,1.7,4.8,4.1,6.4,7.5c1.6,3.3,2.4,7.5,2.4,12.5c0,4.9-0.8,9-2.3,12.3c-1.5,3.3-3.7,5.9-6.4,7.6
			c-2.7,1.7-5.7,2.6-9,2.6c-2.3,0-4.3-0.4-6-1.2c-1.6-0.8-3-1.8-4-2.9c-1-1.2-1.8-2.4-2.4-3.6h-0.4v23.4h-11.9V506.4z M531.1,468.3
			c0,2.6,0.4,4.9,1.1,6.8c0.7,1.9,1.8,3.4,3.1,4.5c1.4,1.1,3,1.6,5,1.6s3.6-0.5,5-1.6s2.4-2.6,3.1-4.5c0.7-1.9,1.1-4.2,1.1-6.7
			s-0.4-4.7-1.1-6.6c-0.7-1.9-1.7-3.4-3.1-4.5s-3-1.6-5-1.6s-3.6,0.5-5,1.6c-1.4,1-2.4,2.5-3.1,4.4
			C531.4,463.4,531.1,465.7,531.1,468.3z"/>
		<path class="st4" d="M579.5,490.9c-2.8,0-5.3-0.5-7.4-1.5c-2.2-1-3.9-2.4-5.2-4.3c-1.3-1.9-1.9-4.3-1.9-7.2c0-2.4,0.4-4.5,1.3-6.1
			c0.9-1.6,2.1-3,3.6-4s3.3-1.8,5.2-2.3c2-0.5,4-0.9,6.2-1.1c2.5-0.3,4.6-0.5,6.1-0.8c1.6-0.2,2.7-0.6,3.4-1.1s1.1-1.2,1.1-2.1v-0.2
			c0-1.8-0.6-3.2-1.7-4.2c-1.1-1-2.7-1.5-4.8-1.5c-2.2,0-3.9,0.5-5.2,1.4c-1.3,1-2.1,2.2-2.6,3.6l-11.2-0.9c0.6-2.7,1.7-4.9,3.4-6.9
			c1.7-1.9,3.8-3.4,6.5-4.5c2.6-1.1,5.7-1.6,9.2-1.6c2.4,0,4.7,0.3,7,0.9c2.2,0.6,4.2,1.4,5.9,2.6c1.7,1.2,3.1,2.7,4.1,4.6
			c1,1.9,1.5,4.1,1.5,6.7v29.7h-11.5V484h-0.3c-0.7,1.4-1.6,2.6-2.8,3.6c-1.2,1-2.6,1.8-4.2,2.4
			C583.6,490.6,581.7,490.9,579.5,490.9z M583,482.5c1.8,0,3.4-0.4,4.7-1.1c1.4-0.7,2.4-1.7,3.2-2.9c0.8-1.2,1.2-2.6,1.2-4.1v-4.6
			c-0.4,0.2-0.9,0.5-1.5,0.7c-0.6,0.2-1.4,0.4-2.2,0.5c-0.8,0.2-1.6,0.3-2.4,0.4s-1.6,0.2-2.2,0.3c-1.4,0.2-2.7,0.5-3.7,1
			c-1.1,0.5-1.9,1.1-2.5,1.8c-0.6,0.8-0.9,1.7-0.9,2.9c0,1.6,0.6,2.9,1.8,3.8C579.6,482.1,581.1,482.5,583,482.5z"/>
		<path class="st4" d="M608.2,440.5c-1.6,0-3-0.6-4.2-1.7c-1.2-1.1-1.8-2.5-1.8-4.1c0-1.6,0.6-3,1.8-4.1c1.2-1.1,2.6-1.7,4.2-1.7
			c1.6,0,3,0.6,4.2,1.7c1.1,1.1,1.7,2.5,1.7,4.1c0,1.6-0.6,2.9-1.7,4.1C611.3,440,609.9,440.5,608.2,440.5z M610.8,490.1v-43.6h12.1
			v43.6H610.8z M625.6,440.5c-1.6,0-3-0.6-4.2-1.7s-1.8-2.5-1.8-4.1c0-1.6,0.6-3,1.8-4.1c1.2-1.1,2.6-1.7,4.2-1.7s3,0.6,4.2,1.7
			c1.1,1.1,1.7,2.5,1.7,4.1c0,1.6-0.6,2.9-1.7,4.1C628.7,440,627.2,440.5,625.6,440.5z"/>
		<path class="st4" d="M641.4,446.4v43.7h-11.6v-43.6L641.4,446.4L641.4,446.4z M660.2,463.4v9.5h-22.8v-9.5H660.2z M667.8,446.4
			v43.7h-11.5v-43.6L667.8,446.4L667.8,446.4z"/>
		<path class="st4" d="M686,474.1l15.7-27.7h11.9v43.7h-11.5v-27.8l-15.6,27.8h-12v-43.6h11.6L686,474.1L686,474.1z"/>
	</g>
</g>
</svg>
