<?xml version="1.0" encoding="utf-8"?>
<!-- Generator: Adobe Illustrator 24.0.0, SVG Export Plug-In . SVG Version: 6.00 Build 0)  -->
<svg version="1.1" id="Layer_1" xmlns="http://www.w3.org/2000/svg" xmlns:xlink="http://www.w3.org/1999/xlink" x="0px" y="0px"
	 viewBox="0 0 1200 630" style="enable-background:new 0 0 1200 630;" xml:space="preserve">
<style type="text/css">
	.st0{fill:#222831;}
	.st1{fill:#005BBB;}
	.st2{fill:#FFD500;}
	.st3{fill:#FFFFFF;}
	.st4{fill:#D3D4D6;}
</style>
<rect class="st0" width="1200" height="630"/>
<rect class="st1" width="1200" height="10"/>
<g>
	<rect x="189.5" y="222.8" class="st2" width="274" height="91.3"/>
	<rect x="189.5" y="131.5" class="st1" width="274" height="91.3"/>
	<g>
		<path class="st3" d="M486.1,149.9h7.9l18.5,45.3h0.6l18.5-45.3h7.9v54.5h-6.2V163h-0.5l-17,41.4h-6l-17-41.4h-0.5v41.4h-6.2
			L486.1,149.9L486.1,149.9z"/>
		<path class="st3" d="M549.8,204.4v-54.5h32.9v5.9h-26.3v18.4H581v5.9h-24.6v18.4h26.7v5.9H549.8z"/>
		<path class="st3" d="M608.5,204.4h-16.8v-54.5h17.6c5.3,0,9.8,1.1,13.6,3.3c3.8,2.2,6.6,5.3,8.7,9.3c2,4.1,3,8.9,3,14.6
			s-1,10.6-3,14.7c-2,4.1-5,7.2-8.8,9.4C618.8,203.3,614,204.4,608.5,204.4z M598.3,198.5h9.8c4.5,0,8.2-0.9,11.2-2.6
			s5.2-4.2,6.6-7.4c1.5-3.2,2.2-7,2.2-11.5c0-4.4-0.7-8.2-2.2-11.4c-1.4-3.2-3.6-5.6-6.4-7.4c-2.9-1.7-6.4-2.6-10.7-2.6h-10.5V198.5
			z"/>
		<path class="st3" d="M649.2,149.9v54.5h-6.6v-54.5H649.2z"/>
		<path class="st3" d="M703.3,166.9h-6.6c-0.4-1.9-1.1-3.6-2-5c-1-1.4-2.1-2.6-3.5-3.6c-1.4-1-2.9-1.7-4.6-2.2s-3.4-0.7-5.2-0.7
			c-3.3,0-6.3,0.8-9,2.5s-4.8,4.1-6.4,7.4c-1.6,3.2-2.4,7.2-2.4,12c0,4.7,0.8,8.7,2.4,12c1.6,3.2,3.7,5.7,6.4,7.4s5.7,2.5,9,2.5
			c1.8,0,3.6-0.2,5.2-0.7c1.7-0.5,3.2-1.2,4.6-2.2c1.4-1,2.5-2.2,3.5-3.6s1.6-3.1,2-5h6.6c-0.5,2.8-1.4,5.3-2.7,7.5
			s-2.9,4.1-4.9,5.6s-4.1,2.7-6.6,3.5c-2.4,0.8-5,1.2-7.8,1.2c-4.7,0-8.8-1.1-12.4-3.4c-3.6-2.3-6.5-5.5-8.5-9.7
			c-2.1-4.2-3.1-9.2-3.1-14.9c0-5.8,1-10.7,3.1-14.9c2.1-4.2,4.9-7.4,8.5-9.7c3.6-2.3,7.8-3.4,12.4-3.4c2.8,0,5.3,0.4,7.8,1.2
			c2.4,0.8,4.6,2,6.6,3.5s3.6,3.4,4.9,5.6C701.9,161.6,702.8,164.1,703.3,166.9z"/>
		<path class="st3" d="M717.5,149.9v54.5h-6.6v-54.5H717.5z"/>
		<path class="st3" d="M771,149.9v54.5h-6.4l-29.7-42.8h-0.5v42.8h-6.6v-54.5h6.4l29.8,42.9h0.5v-42.9H771z"/>
		<path class="st3" d="M781.2,204.4v-54.5h32.9v5.9h-26.3v18.4h24.6v5.9h-24.6v18.4h26.7v5.9H781.2z"/>
		<path class="st3" d="M841.2,204.4v-54.5h32.7v5.9h-26.1v18.4h23.7v5.9h-23.7v24.4L841.2,204.4L841.2,204.4z"/>
		<path class="st3" d="M928.2,177.1c0,5.8-1,10.7-3.1,14.9c-2.1,4.2-4.9,7.4-8.5,9.7s-7.8,3.4-12.4,3.4c-4.7,0-8.8-1.1-12.4-3.4
			c-3.6-2.3-6.5-5.5-8.5-9.7c-2.1-4.2-3.1-9.2-3.1-14.9c0-5.8,1-10.7,3.1-14.9s4.9-7.4,8.5-9.7c3.6-2.3,7.8-3.4,12.4-3.4
			c4.7,0,8.8,1.1,12.4,3.4c3.6,2.3,6.5,5.5,8.5,9.7S928.2,171.4,928.2,177.1z M921.8,177.1c0-4.7-0.8-8.7-2.4-12
			c-1.6-3.2-3.7-5.7-6.4-7.4s-5.7-2.5-9-2.5s-6.3,0.8-9,2.5s-4.8,4.1-6.4,7.4c-1.6,3.2-2.4,7.2-2.4,12c0,4.7,0.8,8.7,2.4,12
			c1.6,3.2,3.7,5.7,6.4,7.4c2.7,1.7,5.7,2.5,9,2.5s6.3-0.8,9-2.5c2.7-1.7,4.8-4.1,6.4-7.4S921.8,181.8,921.8,177.1z"/>
		<path class="st3" d="M936.3,204.4v-54.5h18.4c4.3,0,7.8,0.7,10.5,2.2c2.7,1.4,4.8,3.4,6.1,6c1.3,2.5,2,5.4,2,8.6s-0.7,6.1-2,8.5
			c-1.3,2.5-3.3,4.4-6,5.8c-2.7,1.4-6.2,2.1-10.4,2.1H940v-6h14.7c2.9,0,5.3-0.4,7-1.3c1.8-0.9,3.1-2.1,3.9-3.6
			c0.8-1.6,1.2-3.4,1.2-5.6s-0.4-4.1-1.2-5.7c-0.8-1.6-2.1-2.9-3.9-3.8c-1.8-0.9-4.2-1.3-7.1-1.3H943v48.7L936.3,204.4L936.3,204.4z
			 M961.9,179.9l13.4,24.5h-7.7l-13.1-24.5H961.9z"/>
	</g>
	<g>
		<path class="st3" d="M518,241h11.5v35.4c0,4-0.9,7.5-2.8,10.4c-1.9,3-4.5,5.3-7.9,7c-3.4,1.7-7.3,2.5-11.9,2.5
			c-4.5,0-8.5-0.8-11.9-2.5c-3.4-1.7-6-4-7.9-7s-2.8-6.5-2.8-10.4V241h11.5v34.4c0,2.1,0.5,3.9,1.4,5.5s2.2,2.9,3.9,3.8
			c1.7,0.9,3.6,1.4,5.8,1.4c2.2,0,4.2-0.5,5.8-1.4c1.7-0.9,2.9-2.2,3.9-3.8c0.9-1.6,1.4-3.5,1.4-5.5V241z"/>
		<path class="st3" d="M536,295.6v-54.5h11.5v24h0.7l19.6-24h13.8l-20.2,24.4l20.5,30.1h-13.8l-14.9-22.4l-5.7,6.9v15.5H536z"/>
		<path class="st3" d="M584.7,295.6v-54.5h21.5c4.1,0,7.6,0.7,10.6,2.2c2.9,1.5,5.1,3.5,6.7,6.2c1.5,2.7,2.3,5.8,2.3,9.4
			c0,3.6-0.8,6.7-2.3,9.3c-1.6,2.6-3.8,4.6-6.8,6s-6.5,2.1-10.7,2.1h-14.5V267H604c2.2,0,4-0.3,5.5-0.9c1.5-0.6,2.5-1.5,3.3-2.7
			c0.7-1.2,1.1-2.7,1.1-4.5c0-1.8-0.4-3.3-1.1-4.6c-0.7-1.2-1.8-2.2-3.3-2.8s-3.3-1-5.5-1h-7.8v45.1H584.7z M614.2,270.7l13.6,24.8
			h-12.7l-13.3-24.8H614.2z"/>
		<path class="st3" d="M640.3,295.6h-12.4l18.8-54.5h14.9l18.8,54.5H668l-13.6-42.1H654L640.3,295.6z M639.5,274.1h29.2v9h-29.2
			V274.1z"/>
		<path class="st3" d="M695.5,241v54.5H684V241H695.5z"/>
		<path class="st3" d="M747.7,241v54.5h-10L714,261.2h-0.4v34.3h-11.5V241h10.1l23.5,34.3h0.5V241H747.7z"/>
		<path class="st3" d="M754.2,295.6v-54.5H791v9.5h-25.2v13h23.3v9.5h-23.3v13h25.3v9.5H754.2z"/>
	</g>
	<g>
		<path class="st4" d="M488.5,333h8.3l19.5,47.7h0.7l19.6-47.7h8.3v57.5h-6.5v-43.7h-0.6l-18,43.7h-6.3l-18-43.7h-0.6v43.7h-6.5V333
			H488.5z"/>
		<path class="st4" d="M573.3,391.3c-4.2,0-7.7-0.9-10.7-2.8c-3-1.8-5.3-4.4-6.9-7.7c-1.6-3.3-2.4-7.2-2.4-11.6s0.8-8.3,2.4-11.7
			c1.6-3.4,3.9-6,6.8-7.9c2.9-1.9,6.3-2.8,10.2-2.8c2.2,0,4.5,0.4,6.6,1.1c2.2,0.7,4.2,2,6,3.6c1.8,1.7,3.2,3.9,4.3,6.6
			c1.1,2.7,1.6,6.1,1.6,10.2v2.8H558v-5.7h26.5c0-2.4-0.5-4.6-1.4-6.5c-1-1.9-2.3-3.4-4.1-4.5c-1.8-1.1-3.8-1.7-6.2-1.7
			c-2.6,0-4.9,0.6-6.8,1.9c-1.9,1.3-3.4,3-4.4,5.1s-1.5,4.3-1.5,6.7v3.8c0,3.3,0.6,6,1.7,8.3c1.1,2.3,2.7,4,4.7,5.1
			c2,1.2,4.4,1.8,7,1.8c1.7,0,3.3-0.2,4.7-0.7s2.6-1.2,3.7-2.2c1-1,1.8-2.2,2.4-3.7l6.4,1.8c-0.7,2.2-1.8,4.1-3.4,5.7
			c-1.6,1.6-3.6,2.9-5.9,3.8C578.8,390.9,576.2,391.3,573.3,391.3z"/>
		<path class="st4" d="M593.9,402.8v-18.5h3.6c0.9-0.9,1.6-1.9,2.3-3c0.6-1.1,1.2-2.3,1.7-3.8s0.9-3.3,1.2-5.4
			c0.3-2.1,0.6-4.7,0.9-7.7l1.5-17.1h27.4v36.9h6.6v18.5h-6.6v-12.3h-31.9v12.3L593.9,402.8L593.9,402.8z M605,384.3h20.8v-30.8
			h-14.6l-1.1,10.9c-0.5,4.5-1,8.4-1.7,11.8C607.6,379.6,606.5,382.3,605,384.3z"/>
		<path class="st4" d="M651.7,380.7l20.8-33.3h7.6v43.1h-6.6v-33.4l-20.6,33.3h-7.7v-43.1h6.6L651.7,380.7L651.7,380.7z"/>
		<path class="st4" d="M723.4,347.3v36.9h6.1v20.1h-6.6v-13.9h-33.3v-43.1h6.6v36.9h20.6v-36.9H723.4z"/>
		<path class="st4" d="M743.6,380.7l20.8-33.3h7.6v43.1h-6.6v-33.4l-20.6,33.3h-7.7v-43.1h6.6L743.6,380.7L743.6,380.7z"/>
		<path class="st4" d="M788.1,347.3v43.1h-6.6v-43.1H788.1z M810.3,365.9v6.2h-23.8v-6.2H810.3z M815.3,347.3v43.1h-6.6v-43.1H815.3
			z"/>
		<path class="st4" d="M837.5,391.4c-2.7,0-5.2-0.5-7.4-1.6c-2.2-1-4-2.5-5.3-4.5s-2-4.4-2-7.2c0-2.5,0.5-4.5,1.5-6s2.3-2.8,3.9-3.6
			c1.6-0.9,3.4-1.5,5.4-2c2-0.4,4-0.8,6-1.1c2.6-0.3,4.7-0.6,6.4-0.8c1.6-0.2,2.8-0.5,3.6-0.9c0.8-0.4,1.1-1.2,1.1-2.2v-0.2
			c0-2.8-0.8-4.9-2.3-6.5c-1.5-1.5-3.8-2.3-6.8-2.3c-3.2,0-5.6,0.7-7.4,2.1c-1.8,1.4-3.1,2.9-3.8,4.4l-6.3-2.2
			c1.1-2.6,2.6-4.7,4.5-6.1c1.9-1.5,3.9-2.5,6.2-3.1c2.2-0.6,4.4-0.9,6.6-0.9c1.4,0,3,0.2,4.8,0.5c1.8,0.3,3.6,1,5.2,2
			c1.7,1,3.1,2.5,4.2,4.6c1.1,2,1.7,4.8,1.7,8.2v28.4h-6.7v-5.8h-0.3c-0.4,0.9-1.2,1.9-2.2,3c-1,1.1-2.4,2-4.2,2.7
			C842.1,391.1,840,391.4,837.5,391.4z M838.5,385.5c2.6,0,4.8-0.5,6.6-1.5s3.2-2.4,4.1-4c0.9-1.6,1.4-3.3,1.4-5.1v-6.1
			c-0.3,0.3-0.9,0.6-1.8,0.9c-0.9,0.3-2,0.5-3.3,0.7s-2.4,0.4-3.6,0.5s-2.1,0.3-2.8,0.4c-1.7,0.2-3.3,0.6-4.8,1.1s-2.7,1.2-3.6,2.2
			c-0.9,1-1.4,2.3-1.4,4c0,2.3,0.9,4,2.6,5.2C833.6,384.9,835.8,385.5,838.5,385.5z"/>
		<path class="st4" d="M881.6,402.8v-18.5h3.6c0.9-0.9,1.6-1.9,2.3-3c0.6-1.1,1.2-2.3,1.7-3.8s0.9-3.3,1.2-5.4
			c0.3-2.1,0.6-4.7,0.9-7.7l1.5-17.1h27.4v36.9h6.6v18.5h-6.6v-12.3h-31.9v12.3L881.6,402.8L881.6,402.8z M892.7,384.3h20.8v-30.8
			h-14.6l-1.1,10.9c-0.5,4.5-1,8.4-1.7,11.8C895.3,379.6,894.2,382.3,892.7,384.3z"/>
		<path class="st4" d="M928.9,390.4v-6.2h1.6c1.3,0,2.4-0.3,3.2-0.8c0.9-0.5,1.6-1.4,2.1-2.7c0.5-1.3,0.9-3.1,1.2-5.4
			c0.3-2.3,0.5-5.3,0.6-8.9l0.8-19.1h28.7v43.1h-6.5v-36.9h-15.8l-0.7,15.4c-0.2,3.5-0.5,6.6-0.9,9.3c-0.5,2.7-1.2,4.9-2.2,6.7
			c-1,1.8-2.2,3.2-3.8,4.1c-1.6,0.9-3.6,1.4-6,1.4H928.9z"/>
		<path class="st4" d="M973.8,390.4L986,369h7.2L981,390.4H973.8z M1002.5,390.4v-37h-11.4c-2.6,0-4.6,0.6-6.1,1.8
			c-1.5,1.2-2.2,2.8-2.2,4.9c0,2.1,0.7,3.7,2,4.9c1.3,1.2,3.2,1.8,5.5,1.8h13.9v6.2h-13.9c-2.9,0-5.4-0.5-7.5-1.5s-3.7-2.5-4.9-4.4
			c-1.1-1.9-1.7-4.2-1.7-6.8c0-2.7,0.6-4.9,1.8-6.8c1.2-1.9,2.9-3.4,5.1-4.4c2.2-1,4.9-1.5,8-1.5h17.7v43.1h-6.3L1002.5,390.4
			L1002.5,390.4z"/>
	</g>
	<g>
		<path class="st4" d="M492.9,482.9v-10h3.2c1.6,0,2.8-0.2,3.8-0.6s1.7-1,2.3-1.7c0.6-0.8,1.1-1.7,1.5-2.9l0.7-1.9l-21.1-41.9H496
			l13.7,28.6l11.4-28.6h12.5l-20,46.8c-1,2.2-2.1,4.2-3.4,6c-1.3,1.9-3,3.4-5,4.5s-4.7,1.7-7.8,1.7H492.9z"/>
		<path class="st4" d="M534.2,482.1v-43.6h12.1v16.9h3.4l11.9-16.9h14.2l-15.4,21.6l15.6,22h-14.4l-10.8-15.5h-4.5v15.5H534.2z"/>
		<path class="st4" d="M578.3,498.4v-60h11.9v7.3h0.5c0.5-1.2,1.3-2.4,2.3-3.6c1-1.2,2.3-2.2,4-3.1c1.7-0.9,3.7-1.2,6.1-1.2
			c3.2,0,6.1,0.8,8.8,2.5c2.7,1.7,4.8,4.1,6.4,7.5c1.6,3.3,2.4,7.5,2.4,12.5c0,4.9-0.8,9-2.3,12.3c-1.5,3.3-3.7,5.9-6.4,7.6
			c-2.7,1.7-5.7,2.6-9,2.6c-2.3,0-4.3-0.4-6-1.2c-1.6-0.8-3-1.8-4-2.9c-1-1.2-1.8-2.4-2.4-3.6h-0.4v23.4h-11.9V498.4z M590.2,460.3
			c0,2.6,0.4,4.9,1.1,6.8s1.8,3.4,3.1,4.5c1.4,1.1,3,1.6,5,1.6s3.6-0.5,5-1.6c1.4-1.1,2.4-2.6,3.1-4.5s1.1-4.2,1.1-6.7
			s-0.4-4.7-1.1-6.6s-1.7-3.4-3.1-4.5c-1.4-1.1-3-1.6-5-1.6s-3.6,0.5-5,1.6c-1.4,1-2.4,2.5-3.1,4.4
			C590.5,455.4,590.2,457.7,590.2,460.3z"/>
		<path class="st4" d="M638.6,482.9c-2.8,0-5.3-0.5-7.4-1.5c-2.2-1-3.9-2.4-5.2-4.3c-1.3-1.9-1.9-4.3-1.9-7.2c0-2.4,0.4-4.5,1.3-6.1
			s2.1-3,3.6-4s3.3-1.8,5.2-2.3c2-0.5,4-0.9,6.2-1.1c2.5-0.3,4.6-0.5,6.1-0.8c1.6-0.2,2.7-0.6,3.4-1.1c0.7-0.5,1.1-1.2,1.1-2.1v-0.2
			c0-1.8-0.6-3.2-1.7-4.2s-2.7-1.5-4.8-1.5c-2.2,0-3.9,0.5-5.2,1.4c-1.3,1-2.1,2.2-2.6,3.6l-11.2-0.9c0.6-2.7,1.7-4.9,3.4-6.9
			c1.7-1.9,3.8-3.4,6.5-4.5c2.6-1.1,5.7-1.6,9.2-1.6c2.4,0,4.7,0.3,7,0.9c2.2,0.6,4.2,1.4,5.9,2.6c1.7,1.2,3.1,2.7,4.1,4.6
			c1,1.9,1.5,4.1,1.5,6.7v29.7h-11.5V476h-0.3c-0.7,1.4-1.6,2.6-2.8,3.6s-2.6,1.8-4.2,2.4C642.7,482.6,640.8,482.9,638.6,482.9z
			 M642.1,474.5c1.8,0,3.4-0.4,4.7-1.1c1.4-0.7,2.4-1.7,3.2-2.9c0.8-1.2,1.2-2.6,1.2-4.1v-4.6c-0.4,0.2-0.9,0.5-1.5,0.7
			c-0.6,0.2-1.4,0.4-2.2,0.5c-0.8,0.2-1.6,0.3-2.4,0.4c-0.8,0.1-1.6,0.2-2.2,0.3c-1.4,0.2-2.7,0.5-3.7,1c-1.1,0.5-1.9,1.1-2.5,1.8
			c-0.6,0.8-0.9,1.7-0.9,2.9c0,1.6,0.6,2.9,1.8,3.8C638.7,474.1,640.2,474.5,642.1,474.5z"/>
		<path class="st4" d="M667.3,432.5c-1.6,0-3-0.6-4.2-1.7s-1.8-2.5-1.8-4.1s0.6-3,1.8-4.1c1.2-1.1,2.6-1.7,4.2-1.7s3,0.6,4.2,1.7
			c1.1,1.1,1.7,2.5,1.7,4.1s-0.6,2.9-1.7,4.1C670.4,432,669,432.5,667.3,432.5z M669.9,482.1v-43.6H682v43.6H669.9z M684.7,432.5
			c-1.6,0-3-0.6-4.2-1.7c-1.2-1.1-1.8-2.5-1.8-4.1s0.6-3,1.8-4.1c1.2-1.1,2.6-1.7,4.2-1.7c1.6,0,3,0.6,4.2,1.7
			c1.1,1.1,1.7,2.5,1.7,4.1s-0.6,2.9-1.7,4.1C687.8,432,686.3,432.5,684.7,432.5z"/>
		<path class="st4" d="M700.5,438.4v43.7h-11.6v-43.6L700.5,438.4L700.5,438.4z M719.3,455.4v9.5h-22.8v-9.5H719.3z M726.9,438.4
			v43.7h-11.5v-43.6L726.9,438.4L726.9,438.4z"/>
		<path class="st4" d="M745.1,466.1l15.7-27.7h11.9v43.7h-11.5v-27.8l-15.6,27.8h-12v-43.6h11.6L745.1,466.1L745.1,466.1z"/>
	</g>
</g>
</svg>
