<?xml version="1.0" encoding="utf-8"?>
<!-- Generator: Adobe Illustrator 24.0.0, SVG Export Plug-In . SVG Version: 6.00 Build 0)  -->
<svg version="1.1" id="Layer_1" xmlns="http://www.w3.org/2000/svg" xmlns:xlink="http://www.w3.org/1999/xlink" x="0px" y="0px"
	 viewBox="0 0 1200 627" style="enable-background:new 0 0 1200 627;" xml:space="preserve">
<style type="text/css">
	.st0{fill:#222831;}
	.st1{fill:#005BBB;}
	.st2{fill:#FFD500;}
	.st3{fill:#FFFFFF;}
	.st4{fill:#D3D4D6;}
</style>
<rect x="0" y="-0.4" class="st0" width="1200" height="627.8"/>
<rect class="st1" width="1200" height="10"/>
<g>
	<rect x="190.4" y="221.3" class="st2" width="274" height="91.3"/>
	<rect x="190.4" y="130" class="st1" width="274" height="91.3"/>
	<g>
		<path class="st3" d="M487,148.4h7.9l18.5,45.3h0.6l18.5-45.3h7.9v54.5h-6.2v-41.4h-0.5l-17,41.4h-6l-17-41.4h-0.5v41.4h-6.2
			L487,148.4L487,148.4z"/>
		<path class="st3" d="M550.7,202.9v-54.5h32.9v5.9h-26.3v18.4h24.6v5.9h-24.6V197H584v5.9H550.7z"/>
		<path class="st3" d="M609.3,202.9h-16.8v-54.5h17.6c5.3,0,9.8,1.1,13.6,3.3c3.8,2.2,6.6,5.3,8.7,9.3c2,4.1,3,8.9,3,14.6
			s-1,10.6-3,14.7c-2,4.1-5,7.2-8.8,9.4C619.7,201.8,614.8,202.9,609.3,202.9z M599.2,197h9.8c4.5,0,8.2-0.9,11.2-2.6
			s5.2-4.2,6.6-7.4c1.5-3.2,2.2-7,2.2-11.5c0-4.4-0.7-8.2-2.2-11.4c-1.4-3.2-3.6-5.6-6.4-7.4c-2.9-1.7-6.4-2.6-10.7-2.6h-10.5V197z"
			/>
		<path class="st3" d="M650.1,148.4v54.5h-6.6v-54.5H650.1z"/>
		<path class="st3" d="M704.2,165.4h-6.6c-0.4-1.9-1.1-3.6-2-5c-1-1.4-2.1-2.6-3.5-3.6s-2.9-1.7-4.6-2.2c-1.7-0.5-3.4-0.7-5.2-0.7
			c-3.3,0-6.3,0.8-9,2.5c-2.7,1.7-4.8,4.1-6.4,7.4c-1.6,3.2-2.4,7.2-2.4,12c0,4.7,0.8,8.7,2.4,12c1.6,3.2,3.7,5.7,6.4,7.4
			c2.7,1.7,5.7,2.5,9,2.5c1.8,0,3.6-0.2,5.2-0.7c1.7-0.5,3.2-1.2,4.6-2.2s2.5-2.2,3.5-3.6s1.6-3.1,2-5h6.6c-0.5,2.8-1.4,5.3-2.7,7.5
			c-1.3,2.2-2.9,4.1-4.9,5.6s-4.1,2.7-6.6,3.5c-2.4,0.8-5,1.2-7.8,1.2c-4.7,0-8.8-1.1-12.4-3.4s-6.5-5.5-8.5-9.7
			c-2.1-4.2-3.1-9.2-3.1-14.9c0-5.8,1-10.7,3.1-14.9s4.9-7.4,8.5-9.7s7.8-3.4,12.4-3.4c2.8,0,5.3,0.4,7.8,1.2c2.4,0.8,4.6,2,6.6,3.5
			s3.6,3.4,4.9,5.6C702.8,160.1,703.7,162.6,704.2,165.4z"/>
		<path class="st3" d="M718.3,148.4v54.5h-6.6v-54.5H718.3z"/>
		<path class="st3" d="M771.8,148.4v54.5h-6.4l-29.7-42.8h-0.5v42.8h-6.6v-54.5h6.4l29.8,42.9h0.5v-42.9H771.8z"/>
		<path class="st3" d="M782.1,202.9v-54.5H815v5.9h-26.3v18.4h24.6v5.9h-24.6V197h26.7v5.9H782.1z"/>
		<path class="st3" d="M842.1,202.9v-54.5h32.7v5.9h-26.1v18.4h23.7v5.9h-23.7V203L842.1,202.9L842.1,202.9z"/>
		<path class="st3" d="M929.1,175.6c0,5.8-1,10.7-3.1,14.9c-2.1,4.2-4.9,7.4-8.5,9.7s-7.8,3.4-12.4,3.4c-4.7,0-8.8-1.1-12.4-3.4
			s-6.5-5.5-8.5-9.7c-2.1-4.2-3.1-9.2-3.1-14.9c0-5.8,1-10.7,3.1-14.9s4.9-7.4,8.5-9.7c3.6-2.3,7.8-3.4,12.4-3.4
			c4.7,0,8.8,1.1,12.4,3.4c3.6,2.3,6.5,5.5,8.5,9.7S929.1,169.9,929.1,175.6z M922.7,175.6c0-4.7-0.8-8.7-2.4-12
			c-1.6-3.2-3.7-5.7-6.4-7.4c-2.7-1.7-5.7-2.5-9-2.5c-3.3,0-6.3,0.8-9,2.5c-2.7,1.7-4.8,4.1-6.4,7.4c-1.6,3.2-2.4,7.2-2.4,12
			c0,4.7,0.8,8.7,2.4,12c1.6,3.2,3.7,5.7,6.4,7.4c2.7,1.7,5.7,2.5,9,2.5c3.3,0,6.3-0.8,9-2.5c2.7-1.7,4.8-4.1,6.4-7.4
			C921.8,184.3,922.7,180.3,922.7,175.6z"/>
		<path class="st3" d="M937.2,202.9v-54.5h18.4c4.3,0,7.8,0.7,10.5,2.2c2.7,1.4,4.8,3.4,6.1,6c1.3,2.5,2,5.4,2,8.6s-0.7,6.1-2,8.5
			c-1.3,2.5-3.3,4.4-6,5.8c-2.7,1.4-6.2,2.1-10.4,2.1h-14.9v-6h14.7c2.9,0,5.3-0.4,7-1.3c1.8-0.9,3.1-2.1,3.9-3.6
			c0.8-1.6,1.2-3.4,1.2-5.6s-0.4-4.1-1.2-5.7c-0.8-1.6-2.1-2.9-3.9-3.8c-1.8-0.9-4.2-1.3-7.1-1.3h-11.6V203L937.2,202.9L937.2,202.9
			z M962.8,178.4l13.4,24.5h-7.7l-13.1-24.5H962.8z"/>
	</g>
	<g>
		<path class="st3" d="M518.9,239.5h11.5v35.4c0,4-0.9,7.5-2.8,10.4c-1.9,3-4.5,5.3-7.9,7c-3.4,1.7-7.3,2.5-11.9,2.5
			c-4.5,0-8.5-0.8-11.9-2.5c-3.4-1.7-6-4-7.9-7s-2.8-6.5-2.8-10.4v-35.4h11.5v34.4c0,2.1,0.5,3.9,1.4,5.5s2.2,2.9,3.9,3.8
			c1.7,0.9,3.6,1.4,5.8,1.4c2.2,0,4.2-0.5,5.8-1.4c1.7-0.9,2.9-2.2,3.9-3.8c0.9-1.6,1.4-3.5,1.4-5.5V239.5z"/>
		<path class="st3" d="M536.8,294.1v-54.5h11.5v24h0.7l19.6-24h13.8L562.2,264l20.5,30.1H569l-14.9-22.4l-5.7,6.9v15.5H536.8z"/>
		<path class="st3" d="M585.6,294.1v-54.5h21.5c4.1,0,7.6,0.7,10.6,2.2c2.9,1.5,5.1,3.5,6.7,6.2c1.5,2.7,2.3,5.8,2.3,9.4
			c0,3.6-0.8,6.7-2.3,9.3c-1.6,2.6-3.8,4.6-6.8,6s-6.5,2.1-10.7,2.1h-14.5v-9.3h12.5c2.2,0,4-0.3,5.5-0.9c1.5-0.6,2.5-1.5,3.3-2.7
			c0.7-1.2,1.1-2.7,1.1-4.5c0-1.8-0.4-3.3-1.1-4.6c-0.7-1.2-1.8-2.2-3.3-2.8s-3.3-1-5.5-1h-7.8v45.1H585.6z M615.1,269.2l13.6,24.8
			H616l-13.3-24.8H615.1z"/>
		<path class="st3" d="M641.2,294.1h-12.4l18.8-54.5h14.9l18.8,54.5h-12.4L655.2,252h-0.4L641.2,294.1z M640.3,272.6h29.2v9h-29.2
			V272.6z"/>
		<path class="st3" d="M696.3,239.5V294h-11.5v-54.5H696.3z"/>
		<path class="st3" d="M748.6,239.5V294h-10l-23.7-34.3h-0.4V294h-11.5v-54.5H713l23.5,34.3h0.5v-34.3H748.6z"/>
		<path class="st3" d="M755.1,294.1v-54.5h36.8v9.5h-25.2v13h23.3v9.5h-23.3v13h25.3v9.5H755.1z"/>
	</g>
	<g>
		<path class="st4" d="M489.4,331.5h8.3l19.5,47.7h0.7l19.6-47.7h8.3V389h-6.5v-43.7h-0.6l-18,43.7h-6.3l-18-43.7h-0.6V389h-6.5
			v-57.5H489.4z"/>
		<path class="st4" d="M574.2,389.8c-4.2,0-7.7-0.9-10.7-2.8c-3-1.8-5.3-4.4-6.9-7.7s-2.4-7.2-2.4-11.6s0.8-8.3,2.4-11.7
			c1.6-3.4,3.9-6,6.8-7.9c2.9-1.9,6.3-2.8,10.2-2.8c2.2,0,4.5,0.4,6.6,1.1c2.2,0.7,4.2,2,6,3.6c1.8,1.7,3.2,3.9,4.3,6.6
			c1.1,2.7,1.6,6.1,1.6,10.2v2.8h-33.2v-5.7h26.5c0-2.4-0.5-4.6-1.4-6.5c-1-1.9-2.3-3.4-4.1-4.5s-3.8-1.7-6.2-1.7
			c-2.6,0-4.9,0.6-6.8,1.9c-1.9,1.3-3.4,3-4.4,5.1s-1.5,4.3-1.5,6.7v3.8c0,3.3,0.6,6,1.7,8.3c1.1,2.3,2.7,4,4.7,5.1
			c2,1.2,4.4,1.8,7,1.8c1.7,0,3.3-0.2,4.7-0.7s2.6-1.2,3.7-2.2c1-1,1.8-2.2,2.4-3.7l6.4,1.8c-0.7,2.2-1.8,4.1-3.4,5.7
			s-3.6,2.9-5.9,3.8C579.7,389.4,577.1,389.8,574.2,389.8z"/>
		<path class="st4" d="M594.8,401.3v-18.5h3.6c0.9-0.9,1.6-1.9,2.3-3c0.6-1.1,1.2-2.3,1.7-3.8s0.9-3.3,1.2-5.4
			c0.3-2.1,0.6-4.7,0.9-7.7l1.5-17.1h27.4v36.9h6.6v18.5h-6.6v-12.3h-31.9v12.3L594.8,401.3L594.8,401.3z M605.9,382.8h20.8V352
			h-14.6l-1.1,10.9c-0.5,4.5-1,8.4-1.7,11.8C608.5,378.1,607.4,380.8,605.9,382.8z"/>
		<path class="st4" d="M652.6,379.2l20.8-33.3h7.6V389h-6.6v-33.4l-20.6,33.3h-7.7v-43.1h6.6L652.6,379.2L652.6,379.2z"/>
		<path class="st4" d="M724.2,345.8v36.9h6.1v20.1h-6.6v-13.9h-33.3v-43.1h6.6v36.9h20.6v-36.9H724.2z"/>
		<path class="st4" d="M744.5,379.2l20.8-33.3h7.6V389h-6.6v-33.4l-20.6,33.3H738v-43.1h6.6L744.5,379.2L744.5,379.2z"/>
		<path class="st4" d="M789,345.8v43.1h-6.6v-43.1H789z M811.2,364.4v6.2h-23.8v-6.2H811.2z M816.2,345.8v43.1h-6.6v-43.1H816.2z"/>
		<path class="st4" d="M838.4,389.9c-2.7,0-5.2-0.5-7.4-1.6c-2.2-1-4-2.5-5.3-4.5c-1.3-2-2-4.4-2-7.2c0-2.5,0.5-4.5,1.5-6
			s2.3-2.8,3.9-3.6c1.6-0.9,3.4-1.5,5.4-2c2-0.4,4-0.8,6-1.1c2.6-0.3,4.7-0.6,6.4-0.8c1.6-0.2,2.8-0.5,3.6-0.9
			c0.8-0.4,1.1-1.2,1.1-2.2v-0.2c0-2.8-0.8-4.9-2.3-6.5c-1.5-1.5-3.8-2.3-6.8-2.3c-3.2,0-5.6,0.7-7.4,2.1c-1.8,1.4-3.1,2.9-3.8,4.4
			l-6.3-2.2c1.1-2.6,2.6-4.7,4.5-6.1c1.9-1.5,3.9-2.5,6.2-3.1c2.2-0.6,4.4-0.9,6.6-0.9c1.4,0,3,0.2,4.8,0.5c1.8,0.3,3.6,1,5.2,2
			c1.7,1,3.1,2.5,4.2,4.6c1.1,2,1.7,4.8,1.7,8.2v28.4h-6.7v-5.8h-0.3c-0.4,0.9-1.2,1.9-2.2,3c-1,1.1-2.4,2-4.2,2.7
			C843,389.6,840.9,389.9,838.4,389.9z M839.4,384c2.6,0,4.8-0.5,6.6-1.5c1.8-1,3.2-2.4,4.1-4c0.9-1.6,1.4-3.3,1.4-5.1v-6.1
			c-0.3,0.3-0.9,0.6-1.8,0.9c-0.9,0.3-2,0.5-3.3,0.7c-1.3,0.2-2.4,0.4-3.6,0.5s-2.1,0.3-2.8,0.4c-1.7,0.2-3.3,0.6-4.8,1.1
			s-2.7,1.2-3.6,2.2c-0.9,1-1.4,2.3-1.4,4c0,2.3,0.9,4,2.6,5.2C834.5,383.4,836.7,384,839.4,384z"/>
		<path class="st4" d="M882.5,401.3v-18.5h3.6c0.9-0.9,1.6-1.9,2.3-3c0.6-1.1,1.2-2.3,1.7-3.8s0.9-3.3,1.2-5.4
			c0.3-2.1,0.6-4.7,0.9-7.7l1.5-17.1h27.4v36.9h6.6v18.5h-6.6v-12.3h-31.9v12.3L882.5,401.3L882.5,401.3z M893.6,382.8h20.8V352
			h-14.6l-1.1,10.9c-0.5,4.5-1,8.4-1.7,11.8C896.2,378.1,895.1,380.8,893.6,382.8z"/>
		<path class="st4" d="M929.8,388.9v-6.2h1.6c1.3,0,2.4-0.3,3.2-0.8c0.9-0.5,1.6-1.4,2.1-2.7c0.5-1.3,0.9-3.1,1.2-5.4
			c0.3-2.3,0.5-5.3,0.6-8.9l0.8-19.1h28.7v43.1h-6.5V352h-15.8l-0.7,15.4c-0.2,3.5-0.5,6.6-0.9,9.3c-0.5,2.7-1.2,4.9-2.2,6.7
			c-1,1.8-2.2,3.2-3.8,4.1c-1.6,0.9-3.6,1.4-6,1.4H929.8z"/>
		<path class="st4" d="M974.7,388.9l12.2-21.4h7.2l-12.2,21.4H974.7z M1003.4,388.9v-37H992c-2.6,0-4.6,0.6-6.1,1.8
			c-1.5,1.2-2.2,2.8-2.2,4.9c0,2.1,0.7,3.7,2,4.9c1.3,1.2,3.2,1.8,5.5,1.8h13.9v6.2h-13.9c-2.9,0-5.4-0.5-7.5-1.5s-3.7-2.5-4.9-4.4
			c-1.1-1.9-1.7-4.2-1.7-6.8c0-2.7,0.6-4.9,1.8-6.8c1.2-1.9,2.9-3.4,5.1-4.4c2.2-1,4.9-1.5,8-1.5h17.7v43.1h-6.3L1003.4,388.9
			L1003.4,388.9z"/>
	</g>
	<g>
		<path class="st4" d="M493.8,481.4v-10h3.2c1.6,0,2.8-0.2,3.8-0.6s1.7-1,2.3-1.7c0.6-0.8,1.1-1.7,1.5-2.9l0.7-1.9l-21.1-41.9h12.7
			l13.7,28.6l11.4-28.6h12.5l-20,46.8c-1,2.2-2.1,4.2-3.4,6c-1.3,1.9-3,3.4-5,4.5s-4.7,1.7-7.8,1.7H493.8z"/>
		<path class="st4" d="M535.1,480.6V437h12.1v16.9h3.4l11.9-16.9h14.2l-15.4,21.6l15.6,22h-14.4l-10.8-15.5h-4.5v15.5H535.1z"/>
		<path class="st4" d="M579.2,496.9v-60h11.9v7.3h0.5c0.5-1.2,1.3-2.4,2.3-3.6c1-1.2,2.3-2.2,4-3.1c1.7-0.9,3.7-1.2,6.1-1.2
			c3.2,0,6.1,0.8,8.8,2.5c2.7,1.7,4.8,4.1,6.4,7.5c1.6,3.3,2.4,7.5,2.4,12.5c0,4.9-0.8,9-2.3,12.3c-1.5,3.3-3.7,5.9-6.4,7.6
			c-2.7,1.7-5.7,2.6-9,2.6c-2.3,0-4.3-0.4-6-1.2c-1.6-0.8-3-1.8-4-2.9c-1-1.2-1.8-2.4-2.4-3.6h-0.4V497h-11.9V496.9z M591.1,458.8
			c0,2.6,0.4,4.9,1.1,6.8c0.7,1.9,1.8,3.4,3.1,4.5c1.4,1.1,3,1.6,5,1.6s3.6-0.5,5-1.6s2.4-2.6,3.1-4.5c0.7-1.9,1.1-4.2,1.1-6.7
			s-0.4-4.7-1.1-6.6c-0.7-1.9-1.7-3.4-3.1-4.5s-3-1.6-5-1.6s-3.6,0.5-5,1.6c-1.4,1-2.4,2.5-3.1,4.4
			C591.4,453.9,591.1,456.2,591.1,458.8z"/>
		<path class="st4" d="M639.5,481.4c-2.8,0-5.3-0.5-7.4-1.5c-2.2-1-3.9-2.4-5.2-4.3c-1.3-1.9-1.9-4.3-1.9-7.2c0-2.4,0.4-4.5,1.3-6.1
			c0.9-1.6,2.1-3,3.6-4s3.3-1.8,5.2-2.3c2-0.5,4-0.9,6.2-1.1c2.5-0.3,4.6-0.5,6.1-0.8c1.6-0.2,2.7-0.6,3.4-1.1s1.1-1.2,1.1-2.1v-0.2
			c0-1.8-0.6-3.2-1.7-4.2c-1.1-1-2.7-1.5-4.8-1.5c-2.2,0-3.9,0.5-5.2,1.4c-1.3,1-2.1,2.2-2.6,3.6l-11.2-0.9c0.6-2.7,1.7-4.9,3.4-6.9
			c1.7-1.9,3.8-3.4,6.5-4.5c2.6-1.1,5.7-1.6,9.2-1.6c2.4,0,4.7,0.3,7,0.9c2.2,0.6,4.2,1.4,5.9,2.6c1.7,1.2,3.1,2.7,4.1,4.6
			c1,1.9,1.5,4.1,1.5,6.7v29.7h-11.5v-6.1h-0.3c-0.7,1.4-1.6,2.6-2.8,3.6c-1.2,1-2.6,1.8-4.2,2.4
			C643.6,481.1,641.7,481.4,639.5,481.4z M643,473c1.8,0,3.4-0.4,4.7-1.1c1.4-0.7,2.4-1.7,3.2-2.9c0.8-1.2,1.2-2.6,1.2-4.1v-4.6
			c-0.4,0.2-0.9,0.5-1.5,0.7c-0.6,0.2-1.4,0.4-2.2,0.5c-0.8,0.2-1.6,0.3-2.4,0.4s-1.6,0.2-2.2,0.3c-1.4,0.2-2.7,0.5-3.7,1
			c-1.1,0.5-1.9,1.1-2.5,1.8c-0.6,0.8-0.9,1.7-0.9,2.9c0,1.6,0.6,2.9,1.8,3.8C639.6,472.6,641.1,473,643,473z"/>
		<path class="st4" d="M668.2,431c-1.6,0-3-0.6-4.2-1.7c-1.2-1.1-1.8-2.5-1.8-4.1s0.6-3,1.8-4.1c1.2-1.1,2.6-1.7,4.2-1.7
			c1.6,0,3,0.6,4.2,1.7c1.1,1.1,1.7,2.5,1.7,4.1s-0.6,2.9-1.7,4.1C671.3,430.5,669.9,431,668.2,431z M670.8,480.6V437h12.1v43.6
			H670.8z M685.6,431c-1.6,0-3-0.6-4.2-1.7s-1.8-2.5-1.8-4.1s0.6-3,1.8-4.1c1.2-1.1,2.6-1.7,4.2-1.7s3,0.6,4.2,1.7
			c1.1,1.1,1.7,2.5,1.7,4.1s-0.6,2.9-1.7,4.1C688.7,430.5,687.2,431,685.6,431z"/>
		<path class="st4" d="M701.4,436.9v43.7h-11.6V437L701.4,436.9L701.4,436.9z M720.2,453.9v9.5h-22.8v-9.5H720.2z M727.8,436.9v43.7
			h-11.5V437L727.8,436.9L727.8,436.9z"/>
		<path class="st4" d="M746,464.6l15.7-27.7h11.9v43.7h-11.5v-27.8l-15.6,27.8h-12V437h11.6L746,464.6L746,464.6z"/>
	</g>
</g>
</svg>
