<?xml version="1.0" encoding="utf-8"?>
<!-- Generator: Adobe Illustrator 24.0.0, SVG Export Plug-In . SVG Version: 6.00 Build 0)  -->
<svg version="1.1" id="Layer_1" xmlns="http://www.w3.org/2000/svg" xmlns:xlink="http://www.w3.org/1999/xlink" x="0px" y="0px"
	 viewBox="0 0 400 400" style="enable-background:new 0 0 400 400;" xml:space="preserve">
<style type="text/css">
	.st0{fill:#FFD500;}
	.st1{fill:#005BBB;}
</style>
<rect x="0" y="200" class="st0" width="400" height="200"/>
<path class="st1" d="M0,200V0h400v200H0z"/>
<g>
	<g>
		<path class="st0" d="M83.4,53.7H89l13.2,32.2h0.4l13.2-32.2h5.6v38.7h-4.4V63h-0.4l-12.1,29.4h-4.2L88.1,63h-0.4v29.4h-4.4
			L83.4,53.7L83.4,53.7z"/>
		<path class="st0" d="M128.6,92.4V53.7H152v4.2h-18.7v13h17.5v4.2h-17.5v13h18.9v4.2L128.6,92.4L128.6,92.4z"/>
		<path class="st0" d="M170.3,92.4h-11.9V53.7h12.5c3.8,0,7,0.8,9.7,2.3s4.7,3.8,6.2,6.6c1.4,2.9,2.2,6.3,2.2,10.4
			c0,4.1-0.7,7.5-2.2,10.5c-1.4,2.9-3.6,5.1-6.3,6.7C177.6,91.6,174.3,92.4,170.3,92.4z M163.1,88.2h7c3.2,0,5.8-0.6,7.9-1.8
			c2.2-1.2,3.7-3,4.7-5.2c1-2.3,1.5-5,1.5-8.2c0-3.1-0.5-5.8-1.5-8.1c-1-2.3-2.6-4-4.6-5.2c-2-1.2-4.6-1.8-7.6-1.8h-7.4V88.2
			L163.1,88.2z"/>
		<path class="st0" d="M199.2,53.7v38.7h-4.7V53.7H199.2z"/>
		<path class="st0" d="M237.7,65.7H233c-0.3-1.4-0.8-2.6-1.4-3.6c-0.7-1-1.5-1.8-2.5-2.6c-1-0.7-2-1.2-3.3-1.5
			c-1.2-0.3-2.4-0.5-3.7-0.5c-2.3,0-4.5,0.6-6.4,1.8c-1.9,1.2-3.4,2.9-4.6,5.2c-1.1,2.3-1.7,5.1-1.7,8.5c0,3.3,0.6,6.2,1.7,8.5
			c1.1,2.3,2.6,4.1,4.6,5.2c1.9,1.2,4.1,1.8,6.4,1.8c1.3,0,2.6-0.1,3.7-0.5c1.2-0.4,2.3-0.9,3.3-1.5c1-0.7,1.8-1.5,2.5-2.6
			c0.7-1,1.1-2.2,1.4-3.6h4.7c-0.4,2-1,3.8-1.9,5.4c-0.9,1.6-2,2.9-3.5,4c-1.4,1-2.9,1.9-4.7,2.5c-1.7,0.6-3.6,0.9-5.5,0.9
			c-3.3,0-6.3-0.8-8.8-2.4c-2.6-1.7-4.6-3.9-6-6.9c-1.5-3-2.2-6.5-2.2-10.6c0-4.1,0.7-7.6,2.2-10.6c1.5-3,3.5-5.2,6-6.9
			c2.6-1.7,5.5-2.4,8.8-2.4c2,0,3.8,0.3,5.5,0.9c1.7,0.6,3.3,1.4,4.7,2.5c1.4,1,2.6,2.4,3.5,4C236.7,62,237.3,63.8,237.7,65.7z"/>
		<path class="st0" d="M247.8,53.7v38.7h-4.7V53.7H247.8z"/>
		<path class="st0" d="M285.8,53.7v38.7h-4.6L260.1,62h-0.4v30.4h-4.7V53.7h4.6l21.2,30.4h0.4V53.7H285.8z"/>
		<path class="st0" d="M293,92.4V53.7h23.4v4.2h-18.7v13h17.5v4.2h-17.5v13h18.9v4.2L293,92.4L293,92.4z"/>
	</g>
	<g>
		<path class="st0" d="M152.4,146.1v-38.8h23.3v4.2h-18.5v13H174v4.2h-16.9v17.3H152.4L152.4,146.1z"/>
		<path class="st0" d="M214.2,126.7c0,4.1-0.7,7.6-2.2,10.6c-1.5,3-3.5,5.2-6,6.9c-2.6,1.7-5.5,2.4-8.8,2.4c-3.3,0-6.3-0.8-8.8-2.4
			c-2.6-1.7-4.6-3.9-6-6.9c-1.5-3-2.2-6.5-2.2-10.6c0-4.1,0.7-7.6,2.2-10.6c1.5-3,3.5-5.2,6-6.9c2.6-1.7,5.5-2.4,8.8-2.4
			c3.3,0,6.3,0.8,8.8,2.4c2.6,1.7,4.6,3.9,6,6.9C213.4,119.1,214.2,122.6,214.2,126.7z M209.6,126.7c0-3.3-0.6-6.2-1.7-8.5
			c-1.1-2.3-2.6-4.1-4.6-5.2c-1.9-1.2-4.1-1.8-6.4-1.8s-4.5,0.6-6.4,1.8s-3.4,2.9-4.6,5.2c-1.1,2.3-1.7,5.1-1.7,8.5
			c0,3.3,0.6,6.2,1.7,8.5c1.1,2.3,2.6,4.1,4.6,5.2c1.9,1.2,4.1,1.8,6.4,1.8s4.5-0.6,6.4-1.8c1.9-1.2,3.4-2.9,4.6-5.2
			C209.1,132.9,209.6,130.1,209.6,126.7z"/>
		<path class="st0" d="M220,146.1v-38.8h13c3.1,0,5.5,0.5,7.4,1.5c1.9,1,3.4,2.4,4.3,4.2c0.9,1.8,1.4,3.8,1.4,6.1s-0.5,4.3-1.4,6
			c-0.9,1.8-2.3,3.1-4.2,4.1c-1.9,1-4.4,1.5-7.4,1.5h-10.6v-4.2H233c2,0,3.8-0.3,5-0.9c1.3-0.6,2.2-1.5,2.8-2.6
			c0.6-1.1,0.9-2.4,0.9-4c0-1.5-0.3-2.9-0.9-4.1c-0.6-1.1-1.5-2-2.8-2.7c-1.3-0.6-3-0.9-5-0.9h-8.2V146L220,146.1L220,146.1z
			 M238.2,128.7l9.5,17.4h-5.5l-9.3-17.4H238.2z"/>
	</g>
</g>
<g>
	<path class="st1" d="M92,275.1h10.4v32c0,3.6-0.8,6.8-2.5,9.4c-1.7,2.7-4.1,4.8-7.1,6.3s-6.6,2.3-10.7,2.3c-4.1,0-7.7-0.7-10.7-2.3
		c-3-1.6-5.4-3.6-7.1-6.3s-2.5-5.9-2.5-9.4v-32h10.4v31c0,1.9,0.5,3.5,1.2,5c0.8,1.4,2,2.6,3.5,3.4c1.6,0.8,3.3,1.2,5.2,1.2
		s3.8-0.5,5.2-1.2c1.6-0.8,2.6-2,3.5-3.4c0.8-1.4,1.2-3.1,1.2-5L92,275.1L92,275.1z"/>
	<path class="st1" d="M108.3,324.3v-49.1h10.4v21.6h0.6l17.7-21.6h12.4l-18.2,22l18.5,27.2h-12.4l-13.4-20.2l-5.2,6.2v14
		L108.3,324.3L108.3,324.3z"/>
	<path class="st1" d="M152.2,324.3v-49.1h19.4c3.7,0,6.9,0.6,9.5,2c2.6,1.3,4.6,3.1,6,5.6c1.3,2.4,2.1,5.2,2.1,8.5
		c0,3.3-0.7,6-2.1,8.4s-3.4,4.1-6.2,5.4c-2.7,1.2-5.9,1.9-9.7,1.9h-13v-8.4h11.2c2,0,3.6-0.2,5-0.8c1.3-0.5,2.3-1.3,3-2.4
		c0.6-1.1,1-2.4,1-4.1s-0.4-3-1-4.1c-0.6-1.1-1.6-2-3-2.5c-1.3-0.5-3-0.9-5-0.9h-7v40.7L152.2,324.3L152.2,324.3z M178.8,301.9
		l12.3,22.3h-11.5l-12-22.3H178.8z"/>
	<path class="st1" d="M202.3,324.3h-11.2l17-49.1h13.4l17,49.1h-11.2l-12.3-38h-0.4L202.3,324.3z M201.6,304.9H228v8.1h-26.3V304.9z
		"/>
	<path class="st1" d="M252.1,275.1v49.1h-10.4v-49.1H252.1z"/>
	<path class="st1" d="M299.2,275.1v49.1h-9l-21.4-30.9h-0.4v30.9H258v-49.1h9.1l21.2,30.9h0.5v-30.9H299.2z"/>
	<path class="st1" d="M305.1,324.3v-49.1h33.2v8.6h-22.7v11.7h21v8.6h-21v11.7h22.8v8.6L305.1,324.3L305.1,324.3z"/>
</g>
</svg>
