<?xml version="1.0" encoding="utf-8"?>
<!-- Generator: Adobe Illustrator 24.0.0, SVG Export Plug-In . SVG Version: 6.00 Build 0)  -->
<svg version="1.1" id="Layer_1" xmlns="http://www.w3.org/2000/svg" xmlns:xlink="http://www.w3.org/1999/xlink" x="0px" y="0px"
	 viewBox="0 0 512 512" style="enable-background:new 0 0 512 512;" xml:space="preserve">
<path d="M506.3,417L293,53c-16.3-28-57.5-28-74,0L5.8,417c-16.4,27.9,4,63,36.9,63h426.6C502.1,480,522.6,445,506.3,417z M232,168
	c0-13.2,10.8-24,24-24s24,10.8,24,24v128c0,13.2-10.8,24-23.1,24S232,309.3,232,296V168z M256,416c-17.4,0-31.4-14.1-31.4-31.4
	c0-17.4,14.1-31.4,31.4-31.4s31.4,14.1,31.4,31.4C287.4,401.9,273.4,416,256,416z"/>
</svg>
