<?xml version="1.0" standalone="no"?>
<!DOCTYPE svg PUBLIC "-//W3C//DTD SVG 20010904//EN"
 "http://www.w3.org/TR/2001/REC-SVG-20010904/DTD/svg10.dtd">
<svg version="1.0" xmlns="http://www.w3.org/2000/svg"
 width="512.000000pt" height="512.000000pt" viewBox="0 0 512.000000 512.000000"
 preserveAspectRatio="xMidYMid meet">
<metadata>
Created by potrace 1.14, written by Peter Selinger 2001-2017
</metadata>
<g transform="translate(0.000000,512.000000) scale(0.100000,-0.100000)"
fill="#000000" stroke="none">
<path d="M115 5101 c-48 -22 -79 -54 -100 -103 -13 -33 -15 -182 -15 -1288 l0
-1250 2560 0 2560 0 0 1253 c0 1196 -1 1254 -19 1292 -22 48 -54 79 -103 100
-33 13 -294 15 -2440 15 -2315 0 -2404 -1 -2443 -19z m971 -851 c49 -120 94
-219 99 -218 6 1 50 99 99 220 l89 218 39 0 38 0 0 -275 0 -275 -30 0 -30 0
-2 208 -3 207 -85 -205 c-84 -202 -86 -205 -115 -205 -30 0 -31 3 -115 205
l-85 205 -3 -208 -2 -207 -30 0 -30 0 0 275 0 275 38 0 38 0 90 -220z m794
190 l0 -30 -130 0 -130 0 0 -95 0 -95 125 0 125 0 0 -25 0 -25 -125 0 -125 0
0 -95 0 -95 135 0 135 0 0 -30 0 -30 -167 2 -168 3 -3 273 -2 272 165 0 165 0
0 -30z m341 19 c60 -13 119 -60 152 -123 18 -34 22 -57 22 -141 0 -114 -16
-158 -79 -212 -52 -46 -97 -57 -226 -58 l-115 0 -3 273 -2 272 99 0 c55 0 123
-5 152 -11z m329 -265 l0 -275 -32 3 -33 3 -3 273 -2 272 35 0 35 0 0 -276z
m429 250 c51 -26 91 -71 106 -121 6 -21 3 -23 -27 -23 -27 0 -36 6 -49 33 -9
17 -31 43 -50 55 -45 31 -138 28 -186 -6 -78 -55 -105 -218 -53 -311 30 -54
65 -81 116 -90 76 -14 146 17 174 77 12 26 21 32 48 32 30 0 33 -2 26 -22 -35
-115 -147 -176 -271 -149 -141 32 -219 207 -167 380 42 144 198 212 333 145z
m251 -250 l0 -275 -32 3 -33 3 -3 273 -2 272 35 0 35 0 0 -276z m316 61 l149
-215 3 215 2 215 35 0 35 0 -2 -272 -3 -273 -31 -3 c-29 -3 -36 5 -180 212
l-149 216 -3 -216 -2 -215 -33 3 -32 3 -3 273 -2 272 33 0 c33 0 39 -7 183
-215z m654 185 l0 -30 -135 0 -136 0 3 -92 3 -93 123 -3 c122 -3 122 -3 122
-27 0 -24 0 -24 -122 -27 l-123 -3 -3 -92 -3 -93 136 0 135 0 0 -30 0 -30
-165 0 -165 0 0 275 0 275 165 0 165 0 0 -30z m-1504 -798 c87 -45 129 -126
129 -252 0 -107 -21 -164 -79 -218 -53 -49 -101 -65 -176 -60 -127 9 -208 102
-218 251 -7 107 16 176 77 237 29 29 62 51 87 58 53 15 133 8 180 -16z m-406
-12 l0 -30 -130 0 -130 0 0 -90 0 -90 115 0 115 0 0 -30 0 -30 -115 0 -114 0
-3 -122 -3 -123 -32 -3 -33 -3 0 275 0 276 165 0 165 0 0 -30z m900 8 c57 -30
82 -65 88 -126 6 -65 -24 -134 -68 -157 l-31 -16 61 -114 61 -115 -38 0 -38 0
-58 110 -58 110 -64 0 -64 0 -3 -107 -3 -108 -32 -3 -33 -3 0 275 0 276 118 0
c102 0 123 -3 162 -22z"/>
<path d="M2040 4195 l0 -215 63 0 c82 0 130 14 172 52 68 59 83 200 32 292
-33 60 -90 86 -189 86 l-78 0 0 -215z"/>
<path d="M2535 3600 c-37 -12 -79 -50 -102 -93 -25 -46 -25 -188 1 -240 62
-126 238 -129 302 -5 55 107 21 278 -65 322 -38 20 -99 27 -136 16z"/>
<path d="M2980 3495 l0 -105 80 0 c120 0 152 23 152 109 0 38 -5 50 -31 73
-29 26 -38 28 -116 28 l-85 0 0 -105z"/>
<path d="M440 1332 l0 -278 28 -55 c53 -104 160 -156 306 -147 94 6 156 31
209 85 70 70 72 76 75 391 l3 282 -80 0 -80 0 -3 -259 c-3 -244 -4 -261 -24
-287 -36 -49 -70 -68 -121 -68 -59 1 -108 25 -133 67 -18 30 -20 52 -20 290
l0 257 -80 0 -80 0 0 -278z"/>
<path d="M1140 1235 l0 -375 85 0 85 0 0 108 0 108 36 43 37 42 100 -150 100
-151 94 0 c51 0 93 3 93 6 0 3 -59 92 -131 197 -72 106 -133 197 -136 203 -2
6 54 81 125 166 71 85 132 160 136 167 5 8 -20 11 -91 10 l-98 0 -135 -167
-135 -167 -3 168 -2 167 -80 0 -80 0 0 -375z"/>
<path d="M1810 1235 l0 -375 80 0 80 0 0 130 0 130 58 0 58 0 69 -130 70 -130
176 0 176 0 25 83 26 82 132 0 133 0 27 -80 27 -80 87 -3 c70 -2 87 0 84 11
-2 7 -59 176 -128 376 l-125 362 -105 -3 -105 -3 -125 -362 c-68 -200 -127
-363 -130 -363 -3 0 -37 59 -76 131 l-72 131 53 51 c44 44 55 61 64 106 29
138 -37 259 -161 296 -38 11 -98 15 -225 15 l-173 0 0 -375z m347 221 c46 -23
65 -89 41 -141 -17 -38 -57 -55 -148 -62 l-80 -6 0 118 0 118 78 -6 c44 -2 93
-12 109 -21z m647 -153 c21 -65 41 -124 43 -130 4 -10 -17 -13 -85 -13 l-89 0
40 130 c23 72 44 130 47 130 3 0 23 -53 44 -117z"/>
<path d="M3170 1235 l0 -375 80 0 80 0 0 375 0 375 -80 0 -80 0 0 -375z"/>
<path d="M3410 1235 l0 -375 85 0 85 0 2 229 3 229 158 -229 159 -229 69 0 69
0 0 375 0 375 -80 0 -80 0 -2 -234 -3 -233 -160 233 -160 234 -72 0 -73 0 0
-375z"/>
<path d="M4130 1235 l0 -375 255 0 255 0 0 65 0 65 -175 0 -175 0 0 90 0 90
160 0 160 0 0 65 0 65 -160 0 -160 0 0 85 0 85 170 0 170 0 0 70 0 70 -250 0
-250 0 0 -375z"/>
</g>
</svg>
