<?xml version="1.0" encoding="utf-8"?>
<!-- Generator: Adobe Illustrator 24.0.0, SVG Export Plug-In . SVG Version: 6.00 Build 0)  -->
<svg version="1.1" id="Layer_1" xmlns="http://www.w3.org/2000/svg" xmlns:xlink="http://www.w3.org/1999/xlink" x="0px" y="0px"
	 viewBox="0 0 512 512" style="enable-background:new 0 0 512 512;" xml:space="preserve">
<style type="text/css">
	.st0{fill:#FFFFFF;}
</style>
<path d="M0,256V33.9C0,15.2,13.4,0,30,0H482c16.6,0,30,15.2,30,33.9V256H0z"/>
<path class="st0" d="M482,512H30c-16.6,0-30-15.2-30-33.9V256h512v222.1C512,496.8,498.6,512,482,512z"/>
<g>
	<path class="st0" d="M66.4,52.7h9.1L96.9,105h0.7l21.4-52.3h9.1v62.9h-7.2V67.8h-0.6l-19.6,47.8h-6.9L74.1,67.8h-0.6v47.8h-7.2
		L66.4,52.7L66.4,52.7z"/>
	<path class="st0" d="M139.9,115.6V52.7h38v6.8h-30.4v21.2H176v6.8h-28.4v21.2h30.8v6.8L139.9,115.6L139.9,115.6z"/>
	<path class="st0" d="M207.7,115.6h-19.4V52.7h20.3c6.1,0,11.3,1.3,15.7,3.8c4.4,2.5,7.6,6.1,10,10.7c2.3,4.7,3.5,10.3,3.5,16.9
		s-1.2,12.2-3.5,17c-2.3,4.7-5.8,8.3-10.2,10.9C219.6,114.4,214.1,115.6,207.7,115.6z M196,108.8h11.3c5.2,0,9.5-1,12.9-3
		c3.5-2,6-4.8,7.6-8.5c1.7-3.7,2.5-8.1,2.5-13.3c0-5.1-0.8-9.5-2.5-13.2c-1.6-3.7-4.2-6.5-7.4-8.5c-3.3-2-7.4-3-12.4-3H196
		L196,108.8L196,108.8z"/>
	<path class="st0" d="M254.7,52.7v62.9h-7.6V52.7H254.7z"/>
	<path class="st0" d="M317.2,72.3h-7.6c-0.5-2.2-1.3-4.2-2.3-5.8c-1.2-1.6-2.4-3-4-4.2c-1.6-1.2-3.3-2-5.3-2.5s-3.9-0.8-6-0.8
		c-3.8,0-7.3,0.9-10.4,2.9c-3.1,2-5.5,4.7-7.4,8.5c-1.8,3.7-2.8,8.3-2.8,13.9c0,5.4,0.9,10,2.8,13.9c1.8,3.7,4.3,6.6,7.4,8.5
		s6.6,2.9,10.4,2.9c2.1,0,4.2-0.2,6-0.8c2-0.6,3.7-1.4,5.3-2.5c1.6-1.2,2.9-2.5,4-4.2c1.2-1.6,1.8-3.6,2.3-5.8h7.6
		c-0.6,3.2-1.6,6.1-3.1,8.7s-3.3,4.7-5.7,6.5c-2.3,1.7-4.7,3.1-7.6,4c-2.8,0.9-5.8,1.4-9,1.4c-5.4,0-10.2-1.3-14.3-3.9
		c-4.2-2.7-7.5-6.4-9.8-11.2c-2.4-4.8-3.6-10.6-3.6-17.2c0-6.7,1.2-12.4,3.6-17.2c2.4-4.8,5.7-8.5,9.8-11.2c4.2-2.7,9-3.9,14.3-3.9
		c3.2,0,6.1,0.5,9,1.4c2.8,0.9,5.3,2.3,7.6,4c2.3,1.7,4.2,3.9,5.7,6.5C315.6,66.2,316.6,69.1,317.2,72.3z"/>
	<path class="st0" d="M333.6,52.7v62.9H326V52.7H333.6z"/>
	<path class="st0" d="M395.4,52.7v62.9H388l-34.3-49.4h-0.6v49.4h-7.6V52.7h7.4l34.4,49.5h0.6V52.7H395.4z"/>
	<path class="st0" d="M407.2,115.6V52.7h38v6.8h-30.4v21.2h28.4v6.8h-28.4v21.2h30.8v6.8L407.2,115.6L407.2,115.6z"/>
</g>
<g>
	<path class="st0" d="M178.6,203V140h37.8v6.8h-30.1v21.2h27.4v6.8h-27.4v28.2L178.6,203L178.6,203z"/>
	<path class="st0" d="M279,171.4c0,6.7-1.2,12.4-3.6,17.2c-2.4,4.8-5.7,8.5-9.8,11.2c-4.2,2.7-9,3.9-14.3,3.9
		c-5.4,0-10.2-1.3-14.3-3.9c-4.2-2.7-7.5-6.4-9.8-11.2c-2.4-4.8-3.6-10.6-3.6-17.2c0-6.7,1.2-12.4,3.6-17.2
		c2.4-4.8,5.7-8.5,9.8-11.2c4.2-2.7,9-3.9,14.3-3.9c5.4,0,10.2,1.3,14.3,3.9c4.2,2.7,7.5,6.4,9.8,11.2
		C277.8,159.1,279,164.8,279,171.4z M271.6,171.4c0-5.4-0.9-10-2.8-13.9c-1.8-3.7-4.3-6.6-7.4-8.5c-3.1-2-6.6-2.9-10.4-2.9
		s-7.3,0.9-10.4,2.9c-3.1,2-5.5,4.7-7.4,8.5c-1.8,3.7-2.8,8.3-2.8,13.9c0,5.4,0.9,10,2.8,13.9c1.8,3.7,4.3,6.6,7.4,8.5
		c3.1,2,6.6,2.9,10.4,2.9s7.3-0.9,10.4-2.9c3.1-2,5.5-4.7,7.4-8.5C270.7,181.5,271.6,176.9,271.6,171.4z"/>
	<path class="st0" d="M288.4,203V140h21.2c5,0,9,0.8,12.1,2.5c3.1,1.6,5.5,3.9,7,6.9c1.5,2.9,2.3,6.2,2.3,9.9s-0.8,7-2.3,9.8
		c-1.5,2.9-3.8,5.1-6.9,6.7c-3.1,1.6-7.2,2.4-12,2.4h-17.2v-6.9h17c3.3,0,6.1-0.5,8.1-1.5c2.1-1,3.6-2.4,4.5-4.2
		c0.9-1.8,1.4-3.9,1.4-6.5c0-2.5-0.5-4.7-1.4-6.6c-0.9-1.8-2.4-3.3-4.5-4.4c-2.1-1-4.8-1.5-8.2-1.5h-13.4v56.2L288.4,203L288.4,203z
		 M318,174.7l15.5,28.3h-8.9l-15.1-28.3H318z"/>
</g>
<g>
	<path d="M117.8,352.1h13.3v40.9c0,4.6-1,8.7-3.2,12c-2.2,3.5-5.2,6.1-9.1,8.1s-8.4,2.9-13.7,2.9c-5.2,0-9.8-0.9-13.7-2.9
		c-3.9-2-6.9-4.6-9.1-8.1c-2.2-3.5-3.2-7.5-3.2-12v-40.9h13.3v39.7c0,2.4,0.6,4.5,1.6,6.4c1,1.8,2.5,3.3,4.5,4.4
		c2,1,4.2,1.6,6.7,1.6c2.5,0,4.8-0.6,6.7-1.6c2-1,3.3-2.5,4.5-4.4c1-1.8,1.6-4,1.6-6.4L117.8,352.1L117.8,352.1z"/>
	<path d="M138.6,415.1v-62.9h13.3v27.7h0.8l22.6-27.7h15.9l-23.3,28.2l23.7,34.8h-15.9l-17.2-25.9l-6.6,8v17.9H138.6z"/>
	<path d="M194.8,415.1v-62.9h24.8c4.7,0,8.8,0.8,12.2,2.5c3.3,1.7,5.9,4,7.7,7.2c1.7,3.1,2.7,6.7,2.7,10.9c0,4.2-0.9,7.7-2.7,10.7
		c-1.8,3-4.4,5.3-7.9,6.9c-3.5,1.6-7.5,2.4-12.4,2.4h-16.7v-10.7h14.4c2.5,0,4.6-0.3,6.4-1c1.7-0.7,2.9-1.7,3.8-3.1
		c0.8-1.4,1.3-3.1,1.3-5.2s-0.5-3.8-1.3-5.3c-0.8-1.4-2.1-2.5-3.8-3.2c-1.7-0.7-3.8-1.2-6.4-1.2h-9v52.1L194.8,415.1L194.8,415.1z
		 M228.9,386.4l15.7,28.6h-14.7l-15.4-28.6H228.9z"/>
	<path d="M259,415.1h-14.3l21.7-62.9h17.2l21.7,62.9H291l-15.7-48.6h-0.5L259,415.1z M258.1,390.3h33.7v10.4h-33.7V390.3z"/>
	<path d="M322.7,352.1V415h-13.3v-62.9H322.7z"/>
	<path d="M383,352.1V415h-11.5l-27.4-39.6h-0.5V415h-13.3v-62.9H342l27.1,39.6h0.6v-39.6H383z"/>
	<path d="M390.5,415.1v-62.9H433v11h-29.1v15h26.9v11h-26.9v15h29.2v11H390.5z"/>
</g>
</svg>
