<?xml version="1.0" encoding="utf-8"?>
<!-- Generator: Adobe Illustrator 24.0.0, SVG Export Plug-In . SVG Version: 6.00 Build 0)  -->
<svg version="1.1" id="Layer_1" xmlns="http://www.w3.org/2000/svg" xmlns:xlink="http://www.w3.org/1999/xlink" x="0px" y="0px"
	 viewBox="0 0 512 512" style="enable-background:new 0 0 512 512;" xml:space="preserve">
<path d="M85.7,27.6c10.3,0,19.1,7.3,21.1,17.4l1.3,11.1h375.4c18.1,0,32.6,18.1,27.5,36.3l-48.2,171.4
	c-3.5,12.3-14.7,20.8-27.5,20.8h-283l8.2,42.8h274.9c11.9,0,21.4,9.5,21.4,21.4c0,11.9-9.5,21.4-21.4,21.4H142
	c-9.5,0-18.3-7.3-20.3-17.4L67.9,70.4H21.4C9.6,70.4,0,60.8,0,49s9.6-21.4,21.4-21.4H85.7z M114.2,441.6c0-23.6,19.2-42.8,42.8-42.8
	s42.8,19.2,42.8,42.8s-19.2,42.8-42.8,42.8S114.2,465.3,114.2,441.6z M456.9,441.6c0,23.6-19.2,42.8-42.8,42.8
	c-23.6,0-42.8-19.2-42.8-42.8s19.2-42.8,42.8-42.8C437.7,398.8,456.9,418,456.9,441.6z"/>
</svg>
